<?xml version="1.0" encoding="utf-8"?>
<!-- Generator: Adobe Illustrator 26.0.3, SVG Export Plug-In . SVG Version: 6.00 Build 0)  -->
<svg version="1.1" id="Layer_1" xmlns="http://www.w3.org/2000/svg" xmlns:xlink="http://www.w3.org/1999/xlink" x="0px" y="0px"
	 viewBox="0 0 538 493" style="enable-background:new 0 0 538 493;" xml:space="preserve">
<style type="text/css">
	.st0{fill:#FFFFFF;}
	.st1{clip-path:url(#SVGID_00000034085789947638238460000001129196519846139030_);}
	.st2{fill:#FFFFFF;stroke:#FFFFFF;stroke-width:1.16;stroke-linecap:round;stroke-linejoin:round;stroke-miterlimit:10;}
	.st3{clip-path:url(#SVGID_00000062893569883275196280000009359010664192244920_);}
	.st4{fill:#593F28;}
	.st5{fill:#739D6E;stroke:#739D6E;stroke-width:0.71;stroke-linecap:round;stroke-linejoin:round;stroke-miterlimit:10;}
	.st6{fill:#89C0DB;}
	.st7{fill:none;stroke:#BEBEBE;stroke-width:1.71;stroke-linejoin:round;stroke-miterlimit:10;stroke-dasharray:9.1,9.1;}
	.st8{font-family:'ArialMT';}
	.st9{font-size:11.04px;}
	.st10{fill:none;stroke:#000000;stroke-width:1.07;stroke-linejoin:round;stroke-miterlimit:10;stroke-opacity:0.7;}
	
		.st11{fill:#89C0DB;fill-opacity:0.2;stroke:#89C0DB;stroke-width:1.07;stroke-linecap:round;stroke-linejoin:round;stroke-miterlimit:10;}
	
		.st12{fill:#593F28;fill-opacity:0.2;stroke:#593F28;stroke-width:1.07;stroke-linecap:round;stroke-linejoin:round;stroke-miterlimit:10;stroke-dasharray:2.85,2.85;}
	
		.st13{fill:#739D6E;fill-opacity:0.2;stroke:#739D6E;stroke-width:1.07;stroke-linecap:round;stroke-linejoin:round;stroke-miterlimit:10;stroke-dasharray:5.69,2.85;}
	.st14{clip-path:url(#SVGID_00000034776728234827105820000018113165415063149501_);}
	.st15{fill:none;stroke:#000000;stroke-width:1.07;stroke-linejoin:round;stroke-miterlimit:10;}
	.st16{fill:none;}
	.st17{font-size:12px;}
	.st18{fill:none;stroke:#333333;stroke-width:1.16;stroke-linejoin:round;stroke-miterlimit:10;}
	.st19{fill:#89C0DB;fill-opacity:0.2;stroke:#89C0DB;stroke-width:1.07;stroke-linecap:square;stroke-miterlimit:10;}
	
		.st20{fill:#593F28;fill-opacity:0.2;stroke:#593F28;stroke-width:1.07;stroke-linecap:square;stroke-miterlimit:10;stroke-dasharray:2.85,2.85;}
	
		.st21{fill:#739D6E;fill-opacity:0.2;stroke:#739D6E;stroke-width:1.07;stroke-linecap:square;stroke-miterlimit:10;stroke-dasharray:5.69,2.85;}
	.st22{enable-background:new    ;}
	.st23{font-size:9.6px;}
	.st24{letter-spacing:6;}
	.st25{letter-spacing:3;}
</style>
<rect class="st0" width="538" height="493"/>
<g>
	<defs>
		<rect id="SVGID_1_" width="538" height="493"/>
	</defs>
	<clipPath id="SVGID_00000068663574017487924460000013719100152017944494_">
		<use xlink:href="#SVGID_1_"  style="overflow:visible;"/>
	</clipPath>
</g>
<g>
	<defs>
		<rect id="SVGID_00000173851877198098429990000012304884621663827329_" x="5.8" width="526.4" height="493"/>
	</defs>
	<clipPath id="SVGID_00000155144784183290671480000000879073938636099499_">
		<use xlink:href="#SVGID_00000173851877198098429990000012304884621663827329_"  style="overflow:visible;"/>
	</clipPath>
	<g style="clip-path:url(#SVGID_00000155144784183290671480000000879073938636099499_);">
		<rect x="5.8" class="st2" width="526.4" height="493"/>
	</g>
</g>
<g>
	<defs>
		<rect id="SVGID_00000124123633608347755740000004617238350213460118_" width="538" height="493"/>
	</defs>
	<clipPath id="SVGID_00000121258002251688028150000007282707399524344506_">
		<use xlink:href="#SVGID_00000124123633608347755740000004617238350213460118_"  style="overflow:visible;"/>
	</clipPath>
</g>
<g>
	<defs>
		<rect id="SVGID_00000105405551566807069030000005137010818166410157_" x="42.1" y="6" width="411.9" height="435.2"/>
	</defs>
	<clipPath id="SVGID_00000067225873652096618460000016194775021244572297_">
		<use xlink:href="#SVGID_00000105405551566807069030000005137010818166410157_"  style="overflow:visible;"/>
	</clipPath>
	<g style="clip-path:url(#SVGID_00000067225873652096618460000016194775021244572297_);">
		<rect x="42.1" y="6" class="st0" width="411.9" height="435.2"/>
		<polygon class="st4" points="132.9,163.5 135.5,168.1 130.2,168.1 		"/>
		<polygon class="st4" points="128,127.1 130.7,131.7 125.4,131.7 		"/>
		<polygon class="st4" points="123,163.7 125.6,168.2 120.4,168.2 		"/>
		<polygon class="st4" points="140.2,176.1 142.9,180.6 137.6,180.6 		"/>
		<polygon class="st4" points="232.9,201.1 235.6,205.6 230.3,205.6 		"/>
		<polygon class="st4" points="211.8,125.2 214.5,129.7 209.2,129.7 		"/>
		<polygon class="st4" points="148.1,256 150.7,260.6 145.5,260.6 		"/>
		<polygon class="st4" points="142.8,328.8 145.4,333.3 140.1,333.3 		"/>
		<polygon class="st4" points="104.6,307.4 107.3,312 102,312 		"/>
		<polygon class="st4" points="133.2,262.7 135.8,267.3 130.5,267.3 		"/>
		<polygon class="st4" points="173.1,204.6 175.7,209.2 170.4,209.2 		"/>
		<polygon class="st4" points="183.6,359.9 186.2,364.5 180.9,364.5 		"/>
		<circle class="st5" cx="352.2" cy="214.9" r="2"/>
		<circle class="st5" cx="363.7" cy="173.4" r="2"/>
		<circle class="st5" cx="368.8" cy="176.2" r="2"/>
		<circle class="st5" cx="380.6" cy="181.3" r="2"/>
		<circle class="st5" cx="366.1" cy="178.2" r="2"/>
		<circle class="st5" cx="359.2" cy="136.4" r="2"/>
		<circle class="st5" cx="363.4" cy="147.6" r="2"/>
		<circle class="st5" cx="390" cy="270.1" r="2"/>
		<polygon class="st6" points="402.7,263 406.6,263 406.6,259.1 402.7,259.1 		"/>
		<polygon class="st6" points="403.9,261.6 407.8,261.6 407.8,257.7 403.9,257.7 		"/>
		<polygon class="st6" points="396.7,234.4 400.6,234.4 400.6,230.4 396.7,230.4 		"/>
		<polygon class="st6" points="402.2,259.5 406.2,259.5 406.2,255.6 402.2,255.6 		"/>
		<polygon class="st6" points="391.3,244.5 395.2,244.5 395.2,240.6 391.3,240.6 		"/>
		<polygon class="st6" points="389.9,233.8 393.8,233.8 393.8,229.9 389.9,229.9 		"/>
		<polygon class="st6" points="397.7,263.1 401.6,263.1 401.6,259.2 397.7,259.2 		"/>
		<polygon class="st6" points="394.9,252.5 398.8,252.5 398.8,248.6 394.9,248.6 		"/>
		<polygon class="st6" points="394.3,254.7 398.2,254.7 398.2,250.8 394.3,250.8 		"/>
		<polygon class="st6" points="400,259.7 404,259.7 404,255.8 400,255.8 		"/>
		<line class="st7" x1="-369.9" y1="223.3" x2="865.9" y2="223.3"/>
		<line class="st7" x1="293" y1="441.1" x2="293" y2="6"/>
		<text transform="matrix(1 0 0 1 168.2436 161.05)" class="st8 st9">C</text>
		<text transform="matrix(1 0 0 1 144.0936 170.12)" class="st8 st9">N</text>
		<text transform="matrix(1 0 0 1 423.3883 290.01)" class="st8 st9">Sand</text>
		<text transform="matrix(1 0 0 1 172.4618 148.52)" class="st8 st9">Silt</text>
		<text transform="matrix(1 0 0 1 98.7673 200.21)" class="st8 st9">Clay</text>
		<line class="st10" x1="293" y1="223.3" x2="180.5" y2="156.7"/>
		<polyline class="st10" points="184.6,156.8 180.5,156.7 182.5,160.3 		"/>
		<line class="st10" x1="293" y1="223.3" x2="157.6" y2="166.8"/>
		<polyline class="st10" points="161.7,166.3 157.6,166.8 160.1,170.1 		"/>
		<line class="st10" x1="293" y1="223.3" x2="422.4" y2="284"/>
		<polyline class="st10" points="418.2,284.3 422.4,284 420,280.6 		"/>
		<line class="st10" x1="293" y1="223.3" x2="182.2" y2="154.4"/>
		<polyline class="st10" points="186.3,154.6 182.2,154.4 184.2,158.1 		"/>
		<line class="st10" x1="293" y1="223.3" x2="123.7" y2="196"/>
		<polyline class="st10" points="127.6,194.5 123.7,196 126.9,198.6 		"/>
		<polygon class="st11" points="412.8,273.8 412.7,271.5 412.4,269 411.9,266.2 411.3,263.3 410.4,260.1 409.4,256.9 408.2,253.6 
			407,250.2 405.6,246.9 404.1,243.8 402.5,240.7 400.9,237.8 399.3,235.1 397.7,232.7 396.1,230.6 394.6,228.9 393.1,227.5 
			391.8,226.5 390.6,225.9 389.5,225.7 388.6,225.9 387.8,226.5 387.2,227.5 386.8,228.9 386.6,230.6 386.6,232.7 386.8,235.1 
			387.2,237.7 387.8,240.6 388.6,243.7 389.5,246.9 390.6,250.2 391.8,253.5 393.1,256.8 394.6,260.1 396.1,263.2 397.7,266.2 
			399.3,269 400.9,271.5 402.5,273.7 404.1,275.7 405.6,277.2 407,278.5 408.2,279.3 409.4,279.7 410.4,279.7 411.3,279.3 
			411.9,278.5 412.4,277.3 412.7,275.7 		"/>
		<polygon class="st12" points="237.6,208.8 236.9,184.7 234.9,161.1 231.6,138.5 227.1,117.2 221.3,97.5 214.5,79.7 206.7,64.1 
			198,50.9 188.5,40.4 178.5,32.6 168,27.7 157.3,25.8 146.4,26.8 135.5,30.9 124.9,37.9 114.6,47.7 104.9,60.1 95.8,75.1 
			87.5,92.3 80.2,111.5 73.9,132.4 68.7,154.6 64.8,177.9 62.1,201.9 60.8,226.3 60.8,250.6 62.1,274.5 64.8,297.6 68.7,319.6 
			73.9,340.1 80.2,358.9 87.5,375.6 95.8,390.1 104.9,402 114.6,411.2 124.9,417.5 135.5,420.9 146.4,421.4 157.3,418.8 168,413.3 
			178.5,404.9 188.5,393.7 198,380 206.7,363.9 214.5,345.6 221.3,325.6 227.1,304 231.6,281.1 234.9,257.4 236.9,233.2 		"/>
		<polygon class="st13" points="392.7,229 392.5,219.7 392,209.7 391,199.1 389.7,188.2 388,177 386,165.8 383.7,154.7 381.2,143.9 
			378.4,133.6 375.5,123.9 372.4,114.9 369.3,106.9 366.1,99.8 362.9,93.9 359.8,89.2 356.8,85.8 354,83.7 351.3,83 348.9,83.7 
			346.8,85.7 345,89.1 343.4,93.7 342.3,99.6 341.5,106.6 341.1,114.6 341.1,123.6 341.5,133.2 342.3,143.6 343.4,154.3 345,165.4 
			346.8,176.6 348.9,187.8 351.3,198.7 354,209.3 356.8,219.3 359.8,228.7 362.9,237.2 366.1,244.8 369.3,251.3 372.4,256.6 
			375.5,260.7 378.4,263.4 381.2,264.8 383.7,264.8 386,263.5 388,260.8 389.7,256.8 391,251.5 392,245 392.5,237.5 		"/>
	</g>
</g>
<g>
	<defs>
		<rect id="SVGID_00000181071845195237764100000002989171657262659228_" width="538" height="493"/>
	</defs>
	<clipPath id="SVGID_00000150819033619228564290000000257039606068264337_">
		<use xlink:href="#SVGID_00000181071845195237764100000002989171657262659228_"  style="overflow:visible;"/>
	</clipPath>
	<g style="clip-path:url(#SVGID_00000150819033619228564290000000257039606068264337_);">
		<line class="st15" x1="42.1" y1="441.1" x2="42.1" y2="6"/>
		<rect x="26" y="400.8" class="st16" width="10.7" height="14.2"/>
		<text transform="matrix(1 0 0 1 26.0103 411.0801)" class="st8 st17">-2</text>
		<rect x="26" y="309" class="st16" width="10.7" height="14.2"/>
		<text transform="matrix(1 0 0 1 26.0103 319.3203)" class="st8 st17">-1</text>
		<text transform="matrix(1 0 0 1 30.0062 227.57)" class="st8 st17">0</text>
		<text transform="matrix(1 0 0 1 30.0062 135.81)" class="st8 st17">1</text>
		<text transform="matrix(1 0 0 1 30.0062 44.06)" class="st8 st17">2</text>
		<line class="st18" x1="39.1" y1="406.8" x2="42.1" y2="406.8"/>
		<line class="st18" x1="39.1" y1="315" x2="42.1" y2="315"/>
		<line class="st18" x1="39.1" y1="223.3" x2="42.1" y2="223.3"/>
		<line class="st18" x1="39.1" y1="131.5" x2="42.1" y2="131.5"/>
		<line class="st18" x1="39.1" y1="39.8" x2="42.1" y2="39.8"/>
		<line class="st15" x1="42.1" y1="441.1" x2="454" y2="441.1"/>
		<line class="st18" x1="109.5" y1="444.1" x2="109.5" y2="441.1"/>
		<line class="st18" x1="201.3" y1="444.1" x2="201.3" y2="441.1"/>
		<line class="st18" x1="293" y1="444.1" x2="293" y2="441.1"/>
		<line class="st18" x1="384.8" y1="444.1" x2="384.8" y2="441.1"/>
		<rect x="99.2" y="444.8" class="st16" width="20.7" height="14.2"/>
		<text transform="matrix(1 0 0 1 99.1909 455.1396)" class="st8 st17">-1.0</text>
		<rect x="191" y="444.8" class="st16" width="20.7" height="14.2"/>
		<text transform="matrix(1 0 0 1 190.9512 455.1396)" class="st8 st17">-0.5</text>
		<text transform="matrix(1 0 0 1 284.7092 455.14)" class="st8 st17">0.0</text>
		<text transform="matrix(1 0 0 1 376.4592 455.14)" class="st8 st17">0.5</text>
		<rect x="227" y="459.1" class="st16" width="42" height="14.2"/>
		<text transform="matrix(1 0 0 1 227.0269 469.3896)" class="st8 st17">NMDS1</text>
		<rect x="10.1" y="202.6" class="st16" width="14.2" height="42"/>
		<text transform="matrix(6.123234e-17 -1 1 6.123234e-17 20.3789 244.5625)" class="st8 st17">NMDS2</text>
		<rect x="466" y="183.1" class="st0" width="60.3" height="81"/>
		<rect x="471.9" y="188.7" class="st16" width="45.4" height="14.2"/>
		<text transform="matrix(1 0 0 1 471.9404 198.96)" class="st8 st17">Location</text>
		<polygon class="st6" points="478.6,216.9 482.5,216.9 482.5,212.9 478.6,212.9 		"/>
		<rect x="472.6" y="207" class="st19" width="15.9" height="15.9"/>
		<polygon class="st4" points="480.6,229.1 483.2,233.7 477.9,233.7 		"/>
		<rect x="472.6" y="224.2" class="st20" width="15.9" height="15.9"/>
		<circle class="st5" cx="480.6" cy="249.5" r="2"/>
		<rect x="472.6" y="241.5" class="st21" width="15.9" height="15.9"/>
		<rect x="495.2" y="210.1" class="st16" width="19.7" height="11.4"/>
		<text transform="matrix(1 0 0 1 495.1904 218.3398)" class="st22"><tspan x="0" y="0" class="st8 st23 st24">H</tspan><tspan x="13.3" y="0" class="st8 st23">S</tspan></text>
		<text transform="matrix(1 0 0 1 495.19 235.62)" class="st8 st23">KTR</text>
		<rect x="495.2" y="244.7" class="st16" width="25.1" height="11.4"/>
		<text transform="matrix(1 0 0 1 495.1904 252.9004)" class="st22"><tspan x="0" y="0" class="st8 st23 st25">KT</tspan><tspan x="18.7" y="0" class="st8 st23">Y</tspan></text>
		<rect x="315.7" y="476.7" class="st16" width="138.9" height="11.4"/>
		<text transform="matrix(1 0 0 1 315.7139 484.9004)" class="st22"><tspan x="0" y="0" class="st8 st23">PERMANOVA(Location)</tspan><tspan x="104" y="0" class="st8 st23"> </tspan><tspan x="106.7" y="0" class="st8 st23">&lt;</tspan><tspan x="112.3" y="0" class="st8 st23"> </tspan><tspan x="114.9" y="0" class="st8 st23">0.001</tspan></text>
	</g>
</g>
</svg>
