<?xml version="1.0" encoding="utf-8"?>
<!-- Generator: Adobe Illustrator 26.0.3, SVG Export Plug-In . SVG Version: 6.00 Build 0)  -->
<svg version="1.1" id="Layer_1" xmlns="http://www.w3.org/2000/svg" xmlns:xlink="http://www.w3.org/1999/xlink" x="0px" y="0px"
	 viewBox="0 0 598 648" style="enable-background:new 0 0 598 648;" xml:space="preserve">
<style type="text/css">
	.st0{fill:#FFFFFF;}
	.st1{clip-path:url(#SVGID_00000163766148688790238610000018203031700653733048_);}
	.st2{fill:#FFFFFF;stroke:#FFFFFF;stroke-width:1.16;stroke-linecap:round;stroke-linejoin:round;stroke-miterlimit:10;}
	.st3{clip-path:url(#SVGID_00000050664939612336642850000010760207598043325874_);}
	.st4{fill:#2C7DBC;}
	.st5{fill:#447958;}
	.st6{fill:#003790;}
	.st7{fill:#593F28;}
	.st8{fill:#856D56;}
	.st9{fill:#CBE2FF;}
	.st10{fill:#E2D3C1;}
	.st11{fill:#B29F8A;}
	.st12{fill:#004429;}
	.st13{fill:#89C0DB;}
	.st14{fill:#615E90;}
	.st15{fill:#97D0A4;}
	.st16{fill:none;stroke:#000000;stroke-width:1.07;stroke-linejoin:round;stroke-miterlimit:10;}
	.st17{fill:none;stroke:#BEBEBE;stroke-width:1.07;stroke-linejoin:round;stroke-miterlimit:10;stroke-dasharray:5.69,5.69;}
	.st18{clip-path:url(#SVGID_00000062871487893738986870000007373214163593543048_);}
	.st19{clip-path:url(#SVGID_00000119080989893888050250000005021583331004494782_);}
	.st20{fill:#8092BB;}
	.st21{clip-path:url(#SVGID_00000111898746005802448330000003528915180192385964_);}
	.st22{fill:#F2F2F2;stroke:#000000;stroke-width:1.49;stroke-linecap:round;stroke-linejoin:round;stroke-miterlimit:10;}
	.st23{fill:none;}
	.st24{enable-background:new    ;}
	.st25{fill:#1A1A1A;}
	.st26{font-family:'ArialMT';}
	.st27{font-size:9.6px;}
	.st28{letter-spacing:6;}
	.st29{clip-path:url(#SVGID_00000102520860554038756100000004818529830942208384_);}
	.st30{clip-path:url(#SVGID_00000065775642833497276150000003888549853462843016_);}
	.st31{letter-spacing:3;}
	.st32{clip-path:url(#SVGID_00000080889794141738070410000015502830805022319787_);}
	.st33{fill:none;stroke:#333333;stroke-width:1.16;stroke-linejoin:round;stroke-miterlimit:10;}
	.st34{font-size:12px;}
	.st35{font-family:'Arial-ItalicMT';}
	.st36{letter-spacing:5;}
	.st37{font-family:'Arial-BoldMT';}
	.st38{font-size:16px;}
</style>
<rect class="st0" width="598" height="648"/>
<g>
	<defs>
		<rect id="SVGID_1_" width="598" height="648"/>
	</defs>
	<clipPath id="SVGID_00000084529569745609430470000000214145545012465796_">
		<use xlink:href="#SVGID_1_"  style="overflow:visible;"/>
	</clipPath>
	<g style="clip-path:url(#SVGID_00000084529569745609430470000000214145545012465796_);">
		<rect class="st2" width="598" height="648"/>
	</g>
</g>
<g>
	<defs>
		<rect id="SVGID_00000153688628549878354120000012983567795540511383_" x="263.9" y="24.5" width="62.5" height="571.6"/>
	</defs>
	<clipPath id="SVGID_00000156583005930867011900000005167093176957966747_">
		<use xlink:href="#SVGID_00000153688628549878354120000012983567795540511383_"  style="overflow:visible;"/>
	</clipPath>
	<g style="clip-path:url(#SVGID_00000156583005930867011900000005167093176957966747_);">
		<rect x="263.9" y="24.5" class="st0" width="62.5" height="571.6"/>
		<rect x="296.1" y="458.2" class="st4" width="5" height="8.8"/>
		<rect x="296.1" y="487.6" class="st5" width="7.2" height="8.8"/>
		<rect x="289" y="281.4" class="st5" width="7.1" height="8.8"/>
		<rect x="296.1" y="379.6" class="st4" width="3.7" height="8.8"/>
		<rect x="296.1" y="526.9" class="st6" width="11.9" height="8.8"/>
		<rect x="296.1" y="448.3" class="st5" width="4.8" height="8.8"/>
		<rect x="296.1" y="546.5" class="st5" width="21.5" height="8.8"/>
		<rect x="286.8" y="409" class="st5" width="9.3" height="8.8"/>
		<rect x="296.1" y="468" class="st5" width="5.2" height="8.8"/>
		<rect x="296.1" y="477.8" class="st7" width="5.3" height="8.8"/>
		<rect x="296.1" y="340.3" class="st5" width="4.7" height="8.8"/>
		<rect x="286.5" y="232.3" class="st5" width="9.5" height="8.8"/>
		<rect x="296.1" y="320.7" class="st8" width="6.5" height="8.8"/>
		<rect x="277" y="75.1" class="st5" width="19.1" height="8.8"/>
		<rect x="272.5" y="84.9" class="st4" width="23.6" height="8.8"/>
		<rect x="285.8" y="222.4" class="st5" width="10.2" height="8.8"/>
		<rect x="287.4" y="271.5" class="st4" width="8.6" height="8.8"/>
		<rect x="296.1" y="507.3" class="st9" width="9.4" height="8.8"/>
		<rect x="292.1" y="183.2" class="st10" width="4" height="8.8"/>
		<rect x="296.1" y="399.2" class="st5" width="2.1" height="8.8"/>
		<rect x="293" y="350.1" class="st5" width="3" height="8.8"/>
		<rect x="271.4" y="291.2" class="st5" width="24.6" height="8.8"/>
		<rect x="291" y="301" class="st5" width="5.1" height="8.8"/>
		<rect x="280" y="104.6" class="st11" width="16" height="8.8"/>
		<rect x="282.7" y="134.1" class="st4" width="13.4" height="8.8"/>
		<rect x="291.8" y="389.4" class="st4" width="4.2" height="8.8"/>
		<rect x="296.1" y="497.4" class="st5" width="7.5" height="8.8"/>
		<rect x="296.1" y="428.7" class="st12" width="4.3" height="8.8"/>
		<rect x="296.1" y="330.5" class="st5" width="3.2" height="8.8"/>
		<rect x="296.1" y="360" class="st5" width="5.6" height="8.8"/>
		<rect x="292.4" y="261.7" class="st10" width="3.6" height="8.8"/>
		<rect x="291.2" y="310.8" class="st13" width="4.9" height="8.8"/>
		<rect x="284.4" y="173.3" class="st4" width="11.6" height="8.8"/>
		<rect x="267.3" y="26" class="st11" width="28.8" height="8.8"/>
		<rect x="283.3" y="153.7" class="st5" width="12.8" height="8.8"/>
		<rect x="296.1" y="566.2" class="st14" width="19.1" height="8.8"/>
		<rect x="296.1" y="418.9" class="st15" width="3.4" height="8.8"/>
		<rect x="296.1" y="576" class="st5" width="22.4" height="8.8"/>
		<rect x="296.1" y="369.8" class="st5" width="5.3" height="8.8"/>
		<rect x="296.1" y="438.5" class="st5" width="4.7" height="8.8"/>
		<line class="st16" x1="301.9" y1="463.6" x2="301.9" y2="461.6"/>
		<line class="st16" x1="301.9" y1="462.6" x2="300.2" y2="462.6"/>
		<line class="st16" x1="300.2" y1="463.6" x2="300.2" y2="461.6"/>
		<line class="st16" x1="304.2" y1="493" x2="304.2" y2="491.1"/>
		<line class="st16" x1="304.2" y1="492" x2="302.5" y2="492"/>
		<line class="st16" x1="302.5" y1="493" x2="302.5" y2="491.1"/>
		<line class="st16" x1="289.5" y1="286.8" x2="289.5" y2="284.8"/>
		<line class="st16" x1="289.5" y1="285.8" x2="288.5" y2="285.8"/>
		<line class="st16" x1="288.5" y1="286.8" x2="288.5" y2="284.8"/>
		<line class="st16" x1="300.1" y1="385" x2="300.1" y2="383"/>
		<line class="st16" x1="300.1" y1="384" x2="299.3" y2="384"/>
		<line class="st16" x1="299.3" y1="385" x2="299.3" y2="383"/>
		<line class="st16" x1="308.7" y1="532.3" x2="308.7" y2="530.3"/>
		<line class="st16" x1="308.7" y1="531.3" x2="307.2" y2="531.3"/>
		<line class="st16" x1="307.2" y1="532.3" x2="307.2" y2="530.3"/>
		<line class="st16" x1="301.5" y1="453.7" x2="301.5" y2="451.8"/>
		<line class="st16" x1="301.5" y1="452.8" x2="300.2" y2="452.8"/>
		<line class="st16" x1="300.2" y1="453.7" x2="300.2" y2="451.8"/>
		<line class="st16" x1="323.5" y1="552" x2="323.5" y2="550"/>
		<line class="st16" x1="323.5" y1="551" x2="311.7" y2="551"/>
		<line class="st16" x1="311.7" y1="552" x2="311.7" y2="550"/>
		<line class="st16" x1="287.8" y1="414.5" x2="287.8" y2="412.5"/>
		<line class="st16" x1="287.8" y1="413.5" x2="285.8" y2="413.5"/>
		<line class="st16" x1="285.8" y1="414.5" x2="285.8" y2="412.5"/>
		<line class="st16" x1="301.7" y1="473.4" x2="301.7" y2="471.4"/>
		<line class="st16" x1="301.7" y1="472.4" x2="300.8" y2="472.4"/>
		<line class="st16" x1="300.8" y1="473.4" x2="300.8" y2="471.4"/>
		<line class="st16" x1="302.1" y1="483.2" x2="302.1" y2="481.2"/>
		<line class="st16" x1="302.1" y1="482.2" x2="300.7" y2="482.2"/>
		<line class="st16" x1="300.7" y1="483.2" x2="300.7" y2="481.2"/>
		<line class="st16" x1="301.9" y1="345.7" x2="301.9" y2="343.7"/>
		<line class="st16" x1="301.9" y1="344.7" x2="299.6" y2="344.7"/>
		<line class="st16" x1="299.6" y1="345.7" x2="299.6" y2="343.7"/>
		<line class="st16" x1="288.4" y1="237.7" x2="288.4" y2="235.7"/>
		<line class="st16" x1="288.4" y1="236.7" x2="284.6" y2="236.7"/>
		<line class="st16" x1="284.6" y1="237.7" x2="284.6" y2="235.7"/>
		<line class="st16" x1="303.1" y1="326.1" x2="303.1" y2="324.1"/>
		<line class="st16" x1="303.1" y1="325.1" x2="302.1" y2="325.1"/>
		<line class="st16" x1="302.1" y1="326.1" x2="302.1" y2="324.1"/>
		<line class="st16" x1="281.6" y1="80.5" x2="281.6" y2="78.6"/>
		<line class="st16" x1="281.6" y1="79.6" x2="272.4" y2="79.6"/>
		<line class="st16" x1="272.4" y1="80.5" x2="272.4" y2="78.6"/>
		<line class="st16" x1="277.2" y1="90.3" x2="277.2" y2="88.4"/>
		<line class="st16" x1="277.2" y1="89.4" x2="267.7" y2="89.4"/>
		<line class="st16" x1="267.7" y1="90.3" x2="267.7" y2="88.4"/>
		<line class="st16" x1="287.3" y1="227.9" x2="287.3" y2="225.9"/>
		<line class="st16" x1="287.3" y1="226.9" x2="284.4" y2="226.9"/>
		<line class="st16" x1="284.4" y1="227.9" x2="284.4" y2="225.9"/>
		<line class="st16" x1="287.9" y1="277" x2="287.9" y2="275"/>
		<line class="st16" x1="287.9" y1="276" x2="286.9" y2="276"/>
		<line class="st16" x1="286.9" y1="277" x2="286.9" y2="275"/>
		<line class="st16" x1="306.6" y1="512.7" x2="306.6" y2="510.7"/>
		<line class="st16" x1="306.6" y1="511.7" x2="304.3" y2="511.7"/>
		<line class="st16" x1="304.3" y1="512.7" x2="304.3" y2="510.7"/>
		<line class="st16" x1="293.2" y1="188.6" x2="293.2" y2="186.6"/>
		<line class="st16" x1="293.2" y1="187.6" x2="291" y2="187.6"/>
		<line class="st16" x1="291" y1="188.6" x2="291" y2="186.6"/>
		<line class="st16" x1="298.7" y1="404.6" x2="298.7" y2="402.7"/>
		<line class="st16" x1="298.7" y1="403.6" x2="297.8" y2="403.6"/>
		<line class="st16" x1="297.8" y1="404.6" x2="297.8" y2="402.7"/>
		<line class="st16" x1="293.7" y1="355.5" x2="293.7" y2="353.6"/>
		<line class="st16" x1="293.7" y1="354.5" x2="292.4" y2="354.5"/>
		<line class="st16" x1="292.4" y1="355.5" x2="292.4" y2="353.6"/>
		<line class="st16" x1="275.5" y1="296.6" x2="275.5" y2="294.6"/>
		<line class="st16" x1="275.5" y1="295.6" x2="267.3" y2="295.6"/>
		<line class="st16" x1="267.3" y1="296.6" x2="267.3" y2="294.6"/>
		<line class="st16" x1="291.9" y1="306.4" x2="291.9" y2="304.5"/>
		<line class="st16" x1="291.9" y1="305.4" x2="290.1" y2="305.4"/>
		<line class="st16" x1="290.1" y1="306.4" x2="290.1" y2="304.5"/>
		<line class="st16" x1="282.8" y1="110" x2="282.8" y2="108"/>
		<line class="st16" x1="282.8" y1="109" x2="277.3" y2="109"/>
		<line class="st16" x1="277.3" y1="110" x2="277.3" y2="108"/>
		<line class="st16" x1="284.5" y1="139.5" x2="284.5" y2="137.5"/>
		<line class="st16" x1="284.5" y1="138.5" x2="280.9" y2="138.5"/>
		<line class="st16" x1="280.9" y1="139.5" x2="280.9" y2="137.5"/>
		<line class="st16" x1="293" y1="394.8" x2="293" y2="392.9"/>
		<line class="st16" x1="293" y1="393.8" x2="290.6" y2="393.8"/>
		<line class="st16" x1="290.6" y1="394.8" x2="290.6" y2="392.9"/>
		<line class="st16" x1="305" y1="502.9" x2="305" y2="500.9"/>
		<line class="st16" x1="305" y1="501.9" x2="302.2" y2="501.9"/>
		<line class="st16" x1="302.2" y1="502.9" x2="302.2" y2="500.9"/>
		<line class="st16" x1="301.5" y1="434.1" x2="301.5" y2="432.1"/>
		<line class="st16" x1="301.5" y1="433.1" x2="299.2" y2="433.1"/>
		<line class="st16" x1="299.2" y1="434.1" x2="299.2" y2="432.1"/>
		<line class="st16" x1="300.1" y1="335.9" x2="300.1" y2="333.9"/>
		<line class="st16" x1="300.1" y1="334.9" x2="298.4" y2="334.9"/>
		<line class="st16" x1="298.4" y1="335.9" x2="298.4" y2="333.9"/>
		<line class="st16" x1="302.9" y1="365.4" x2="302.9" y2="363.4"/>
		<line class="st16" x1="302.9" y1="364.4" x2="300.5" y2="364.4"/>
		<line class="st16" x1="300.5" y1="365.4" x2="300.5" y2="363.4"/>
		<line class="st16" x1="292.8" y1="267.1" x2="292.8" y2="265.2"/>
		<line class="st16" x1="292.8" y1="266.1" x2="292.1" y2="266.1"/>
		<line class="st16" x1="292.1" y1="267.1" x2="292.1" y2="265.2"/>
		<line class="st16" x1="291.5" y1="316.2" x2="291.5" y2="314.3"/>
		<line class="st16" x1="291.5" y1="315.3" x2="290.8" y2="315.3"/>
		<line class="st16" x1="290.8" y1="316.2" x2="290.8" y2="314.3"/>
		<line class="st16" x1="286.4" y1="178.7" x2="286.4" y2="176.8"/>
		<line class="st16" x1="286.4" y1="177.8" x2="282.4" y2="177.8"/>
		<line class="st16" x1="282.4" y1="178.7" x2="282.4" y2="176.8"/>
		<line class="st16" x1="267.9" y1="31.4" x2="267.9" y2="29.5"/>
		<line class="st16" x1="267.9" y1="30.4" x2="266.7" y2="30.4"/>
		<line class="st16" x1="266.7" y1="31.4" x2="266.7" y2="29.5"/>
		<line class="st16" x1="285.6" y1="159.1" x2="285.6" y2="157.1"/>
		<line class="st16" x1="285.6" y1="158.1" x2="281" y2="158.1"/>
		<line class="st16" x1="281" y1="159.1" x2="281" y2="157.1"/>
		<line class="st16" x1="320.5" y1="571.6" x2="320.5" y2="569.6"/>
		<line class="st16" x1="320.5" y1="570.6" x2="309.7" y2="570.6"/>
		<line class="st16" x1="309.7" y1="571.6" x2="309.7" y2="569.6"/>
		<line class="st16" x1="300" y1="424.3" x2="300" y2="422.3"/>
		<line class="st16" x1="300" y1="423.3" x2="299" y2="423.3"/>
		<line class="st16" x1="299" y1="424.3" x2="299" y2="422.3"/>
		<line class="st16" x1="320.4" y1="581.4" x2="320.4" y2="579.5"/>
		<line class="st16" x1="320.4" y1="580.4" x2="316.5" y2="580.4"/>
		<line class="st16" x1="316.5" y1="581.4" x2="316.5" y2="579.5"/>
		<line class="st16" x1="302" y1="375.2" x2="302" y2="373.2"/>
		<line class="st16" x1="302" y1="374.2" x2="300.8" y2="374.2"/>
		<line class="st16" x1="300.8" y1="375.2" x2="300.8" y2="373.2"/>
		<line class="st16" x1="302.1" y1="443.9" x2="302.1" y2="442"/>
		<line class="st16" x1="302.1" y1="442.9" x2="299.5" y2="442.9"/>
		<line class="st16" x1="299.5" y1="443.9" x2="299.5" y2="442"/>
		<line class="st17" x1="296.1" y1="596.2" x2="296.1" y2="24.5"/>
	</g>
</g>
<g>
	<defs>
		<rect id="SVGID_00000026162508868455659410000002311754828582978706_" width="598" height="648"/>
	</defs>
	<clipPath id="SVGID_00000030471580406135717640000002583626354891406265_">
		<use xlink:href="#SVGID_00000026162508868455659410000002311754828582978706_"  style="overflow:visible;"/>
	</clipPath>
</g>
<g>
	<defs>
		<rect id="SVGID_00000036252471111440837530000015373948957260840320_" x="332.3" y="24.5" width="62.5" height="571.6"/>
	</defs>
	<clipPath id="SVGID_00000168114005985381820760000006902380736319578038_">
		<use xlink:href="#SVGID_00000036252471111440837530000015373948957260840320_"  style="overflow:visible;"/>
	</clipPath>
	<g style="clip-path:url(#SVGID_00000168114005985381820760000006902380736319578038_);">
		<rect x="332.3" y="24.5" class="st0" width="62.5" height="571.6"/>
		<rect x="364.5" y="566.2" class="st14" width="13.6" height="8.8"/>
		<line class="st16" x1="381.8" y1="571.6" x2="381.8" y2="569.6"/>
		<line class="st16" x1="381.8" y1="570.6" x2="374.6" y2="570.6"/>
		<line class="st16" x1="374.6" y1="571.6" x2="374.6" y2="569.6"/>
		<line class="st17" x1="364.5" y1="596.2" x2="364.5" y2="24.5"/>
	</g>
</g>
<g>
	<defs>
		<rect id="SVGID_00000032622522351772698720000005621780226571189164_" width="598" height="648"/>
	</defs>
	<clipPath id="SVGID_00000017513319495752651430000002246554245727929279_">
		<use xlink:href="#SVGID_00000032622522351772698720000005621780226571189164_"  style="overflow:visible;"/>
	</clipPath>
</g>
<g>
	<defs>
		<rect id="SVGID_00000160907670029788496810000005640804578261291957_" x="400.8" y="24.5" width="62.5" height="571.6"/>
	</defs>
	<clipPath id="SVGID_00000047779594242976544360000014040918892128976793_">
		<use xlink:href="#SVGID_00000160907670029788496810000005640804578261291957_"  style="overflow:visible;"/>
	</clipPath>
	<g style="clip-path:url(#SVGID_00000047779594242976544360000014040918892128976793_);">
		<rect x="400.8" y="24.5" class="st0" width="62.5" height="571.6"/>
		<rect x="433" y="536.7" class="st5" width="15.7" height="8.8"/>
		<rect x="424.9" y="281.4" class="st5" width="8.1" height="8.8"/>
		<rect x="425.2" y="379.6" class="st4" width="7.8" height="8.8"/>
		<rect x="433" y="546.5" class="st5" width="11.1" height="8.8"/>
		<rect x="433" y="409" class="st5" width="13.8" height="8.8"/>
		<rect x="416.7" y="94.8" class="st10" width="16.3" height="8.8"/>
		<rect x="415.3" y="65.3" class="st5" width="17.7" height="8.8"/>
		<rect x="422.1" y="340.3" class="st5" width="10.9" height="8.8"/>
		<rect x="421.2" y="163.5" class="st13" width="11.8" height="8.8"/>
		<rect x="423.8" y="251.9" class="st5" width="9.2" height="8.8"/>
		<rect x="420.2" y="143.9" class="st4" width="12.8" height="8.8"/>
		<rect x="433" y="585.8" class="st5" width="22.3" height="8.8"/>
		<rect x="418.2" y="320.7" class="st8" width="14.8" height="8.8"/>
		<rect x="433" y="556.4" class="st14" width="16.5" height="8.8"/>
		<rect x="417.3" y="75.1" class="st5" width="15.7" height="8.8"/>
		<rect x="422.7" y="84.9" class="st4" width="10.3" height="8.8"/>
		<rect x="411.9" y="35.8" class="st12" width="21.1" height="8.8"/>
		<rect x="414.2" y="55.5" class="st13" width="18.8" height="8.8"/>
		<rect x="413.9" y="183.2" class="st10" width="19.1" height="8.8"/>
		<rect x="422.1" y="202.8" class="st4" width="10.9" height="8.8"/>
		<rect x="433" y="291.2" class="st5" width="14.2" height="8.8"/>
		<rect x="421.6" y="193" class="st20" width="11.4" height="8.8"/>
		<rect x="433" y="389.4" class="st4" width="8.5" height="8.8"/>
		<rect x="423.1" y="330.5" class="st5" width="9.9" height="8.8"/>
		<rect x="422.2" y="360" class="st5" width="10.8" height="8.8"/>
		<rect x="417.2" y="114.4" class="st4" width="15.8" height="8.8"/>
		<rect x="433" y="517.1" class="st6" width="10.3" height="8.8"/>
		<rect x="419" y="261.7" class="st10" width="14" height="8.8"/>
		<rect x="419" y="124.2" class="st4" width="14" height="8.8"/>
		<rect x="423.6" y="242.1" class="st8" width="9.4" height="8.8"/>
		<rect x="433" y="566.2" class="st14" width="19.7" height="8.8"/>
		<rect x="433" y="576" class="st5" width="21.8" height="8.8"/>
		<rect x="423.5" y="369.8" class="st5" width="9.5" height="8.8"/>
		<rect x="413.8" y="45.7" class="st15" width="19.2" height="8.8"/>
		<rect x="422.3" y="212.6" class="st20" width="10.8" height="8.8"/>
		<line class="st16" x1="450.7" y1="542.1" x2="450.7" y2="540.2"/>
		<line class="st16" x1="450.7" y1="541.2" x2="446.7" y2="541.2"/>
		<line class="st16" x1="446.7" y1="542.1" x2="446.7" y2="540.2"/>
		<line class="st16" x1="426.2" y1="286.8" x2="426.2" y2="284.8"/>
		<line class="st16" x1="426.2" y1="285.8" x2="423.6" y2="285.8"/>
		<line class="st16" x1="423.6" y1="286.8" x2="423.6" y2="284.8"/>
		<line class="st16" x1="427.3" y1="385" x2="427.3" y2="383"/>
		<line class="st16" x1="427.3" y1="384" x2="423.1" y2="384"/>
		<line class="st16" x1="423.1" y1="385" x2="423.1" y2="383"/>
		<line class="st16" x1="447.2" y1="552" x2="447.2" y2="550"/>
		<line class="st16" x1="447.2" y1="551" x2="441.1" y2="551"/>
		<line class="st16" x1="441.1" y1="552" x2="441.1" y2="550"/>
		<line class="st16" x1="449" y1="414.5" x2="449" y2="412.5"/>
		<line class="st16" x1="449" y1="413.5" x2="444.5" y2="413.5"/>
		<line class="st16" x1="444.5" y1="414.5" x2="444.5" y2="412.5"/>
		<line class="st16" x1="418.8" y1="100.2" x2="418.8" y2="98.2"/>
		<line class="st16" x1="418.8" y1="99.2" x2="414.6" y2="99.2"/>
		<line class="st16" x1="414.6" y1="100.2" x2="414.6" y2="98.2"/>
		<line class="st16" x1="417.8" y1="70.7" x2="417.8" y2="68.7"/>
		<line class="st16" x1="417.8" y1="69.7" x2="412.7" y2="69.7"/>
		<line class="st16" x1="412.7" y1="70.7" x2="412.7" y2="68.7"/>
		<line class="st16" x1="423.4" y1="345.7" x2="423.4" y2="343.7"/>
		<line class="st16" x1="423.4" y1="344.7" x2="420.8" y2="344.7"/>
		<line class="st16" x1="420.8" y1="345.7" x2="420.8" y2="343.7"/>
		<line class="st16" x1="423.2" y1="168.9" x2="423.2" y2="167"/>
		<line class="st16" x1="423.2" y1="167.9" x2="419.3" y2="167.9"/>
		<line class="st16" x1="419.3" y1="168.9" x2="419.3" y2="167"/>
		<line class="st16" x1="424.9" y1="257.3" x2="424.9" y2="255.4"/>
		<line class="st16" x1="424.9" y1="256.3" x2="422.6" y2="256.3"/>
		<line class="st16" x1="422.6" y1="257.3" x2="422.6" y2="255.4"/>
		<line class="st16" x1="422.8" y1="149.3" x2="422.8" y2="147.3"/>
		<line class="st16" x1="422.8" y1="148.3" x2="417.6" y2="148.3"/>
		<line class="st16" x1="417.6" y1="149.3" x2="417.6" y2="147.3"/>
		<line class="st16" x1="458.7" y1="591.2" x2="458.7" y2="589.3"/>
		<line class="st16" x1="458.7" y1="590.2" x2="452" y2="590.2"/>
		<line class="st16" x1="452" y1="591.2" x2="452" y2="589.3"/>
		<line class="st16" x1="420.2" y1="326.1" x2="420.2" y2="324.1"/>
		<line class="st16" x1="420.2" y1="325.1" x2="416.3" y2="325.1"/>
		<line class="st16" x1="416.3" y1="326.1" x2="416.3" y2="324.1"/>
		<line class="st16" x1="452.1" y1="561.8" x2="452.1" y2="559.8"/>
		<line class="st16" x1="452.1" y1="560.8" x2="446.9" y2="560.8"/>
		<line class="st16" x1="446.9" y1="561.8" x2="446.9" y2="559.8"/>
		<line class="st16" x1="420.6" y1="80.5" x2="420.6" y2="78.6"/>
		<line class="st16" x1="420.6" y1="79.6" x2="413.9" y2="79.6"/>
		<line class="st16" x1="413.9" y1="80.5" x2="413.9" y2="78.6"/>
		<line class="st16" x1="425.7" y1="90.3" x2="425.7" y2="88.4"/>
		<line class="st16" x1="425.7" y1="89.4" x2="419.7" y2="89.4"/>
		<line class="st16" x1="419.7" y1="90.3" x2="419.7" y2="88.4"/>
		<line class="st16" x1="415.1" y1="41.2" x2="415.1" y2="39.3"/>
		<line class="st16" x1="415.1" y1="40.3" x2="408.7" y2="40.3"/>
		<line class="st16" x1="408.7" y1="41.2" x2="408.7" y2="39.3"/>
		<line class="st16" x1="417.5" y1="60.9" x2="417.5" y2="58.9"/>
		<line class="st16" x1="417.5" y1="59.9" x2="410.8" y2="59.9"/>
		<line class="st16" x1="410.8" y1="60.9" x2="410.8" y2="58.9"/>
		<line class="st16" x1="417" y1="188.6" x2="417" y2="186.6"/>
		<line class="st16" x1="417" y1="187.6" x2="410.8" y2="187.6"/>
		<line class="st16" x1="410.8" y1="188.6" x2="410.8" y2="186.6"/>
		<line class="st16" x1="425.3" y1="208.2" x2="425.3" y2="206.2"/>
		<line class="st16" x1="425.3" y1="207.2" x2="418.9" y2="207.2"/>
		<line class="st16" x1="418.9" y1="208.2" x2="418.9" y2="206.2"/>
		<line class="st16" x1="449.2" y1="296.6" x2="449.2" y2="294.6"/>
		<line class="st16" x1="449.2" y1="295.6" x2="445.2" y2="295.6"/>
		<line class="st16" x1="445.2" y1="296.6" x2="445.2" y2="294.6"/>
		<line class="st16" x1="423.5" y1="198.4" x2="423.5" y2="196.4"/>
		<line class="st16" x1="423.5" y1="197.4" x2="419.8" y2="197.4"/>
		<line class="st16" x1="419.8" y1="198.4" x2="419.8" y2="196.4"/>
		<line class="st16" x1="443.7" y1="394.8" x2="443.7" y2="392.9"/>
		<line class="st16" x1="443.7" y1="393.8" x2="439.2" y2="393.8"/>
		<line class="st16" x1="439.2" y1="394.8" x2="439.2" y2="392.9"/>
		<line class="st16" x1="424.7" y1="335.9" x2="424.7" y2="333.9"/>
		<line class="st16" x1="424.7" y1="334.9" x2="421.5" y2="334.9"/>
		<line class="st16" x1="421.5" y1="335.9" x2="421.5" y2="333.9"/>
		<line class="st16" x1="425" y1="365.4" x2="425" y2="363.4"/>
		<line class="st16" x1="425" y1="364.4" x2="419.4" y2="364.4"/>
		<line class="st16" x1="419.4" y1="365.4" x2="419.4" y2="363.4"/>
		<line class="st16" x1="420.5" y1="119.8" x2="420.5" y2="117.8"/>
		<line class="st16" x1="420.5" y1="118.8" x2="414" y2="118.8"/>
		<line class="st16" x1="414" y1="119.8" x2="414" y2="117.8"/>
		<line class="st16" x1="445.8" y1="522.5" x2="445.8" y2="520.5"/>
		<line class="st16" x1="445.8" y1="521.5" x2="440.9" y2="521.5"/>
		<line class="st16" x1="440.9" y1="522.5" x2="440.9" y2="520.5"/>
		<line class="st16" x1="421.8" y1="267.1" x2="421.8" y2="265.2"/>
		<line class="st16" x1="421.8" y1="266.1" x2="416.2" y2="266.1"/>
		<line class="st16" x1="416.2" y1="267.1" x2="416.2" y2="265.2"/>
		<line class="st16" x1="420.8" y1="129.6" x2="420.8" y2="127.7"/>
		<line class="st16" x1="420.8" y1="128.6" x2="417.1" y2="128.6"/>
		<line class="st16" x1="417.1" y1="129.6" x2="417.1" y2="127.7"/>
		<line class="st16" x1="425.4" y1="247.5" x2="425.4" y2="245.5"/>
		<line class="st16" x1="425.4" y1="246.5" x2="421.9" y2="246.5"/>
		<line class="st16" x1="421.9" y1="247.5" x2="421.9" y2="245.5"/>
		<line class="st16" x1="455.4" y1="571.6" x2="455.4" y2="569.6"/>
		<line class="st16" x1="455.4" y1="570.6" x2="450.1" y2="570.6"/>
		<line class="st16" x1="450.1" y1="571.6" x2="450.1" y2="569.6"/>
		<line class="st16" x1="456.7" y1="581.4" x2="456.7" y2="579.5"/>
		<line class="st16" x1="456.7" y1="580.4" x2="452.8" y2="580.4"/>
		<line class="st16" x1="452.8" y1="581.4" x2="452.8" y2="579.5"/>
		<line class="st16" x1="426.1" y1="375.2" x2="426.1" y2="373.2"/>
		<line class="st16" x1="426.1" y1="374.2" x2="420.9" y2="374.2"/>
		<line class="st16" x1="420.9" y1="375.2" x2="420.9" y2="373.2"/>
		<line class="st16" x1="416.4" y1="51.1" x2="416.4" y2="49.1"/>
		<line class="st16" x1="416.4" y1="50.1" x2="411.1" y2="50.1"/>
		<line class="st16" x1="411.1" y1="51.1" x2="411.1" y2="49.1"/>
		<line class="st16" x1="424.9" y1="218" x2="424.9" y2="216.1"/>
		<line class="st16" x1="424.9" y1="217.1" x2="419.7" y2="217.1"/>
		<line class="st16" x1="419.7" y1="218" x2="419.7" y2="216.1"/>
		<line class="st17" x1="433" y1="596.2" x2="433" y2="24.5"/>
	</g>
</g>
<g>
	<defs>
		<rect id="SVGID_00000011025064361116849230000018119713473346320822_" width="598" height="648"/>
	</defs>
	<clipPath id="SVGID_00000137090307603277278690000005049118728533308825_">
		<use xlink:href="#SVGID_00000011025064361116849230000018119713473346320822_"  style="overflow:visible;"/>
	</clipPath>
</g>
<g>
	<defs>
		<rect id="SVGID_00000109707837904224233570000007293191954579893183_" x="263.9" y="6" width="62.5" height="18.6"/>
	</defs>
	<clipPath id="SVGID_00000124872135591550812730000013973236247028486056_">
		<use xlink:href="#SVGID_00000109707837904224233570000007293191954579893183_"  style="overflow:visible;"/>
	</clipPath>
	<g style="clip-path:url(#SVGID_00000124872135591550812730000013973236247028486056_);">
		<rect x="263.9" y="6" class="st22" width="62.5" height="18.6"/>
		<rect x="285.2" y="10.5" class="st23" width="19.7" height="11.4"/>
		<text transform="matrix(1 0 0 1 285.2207 18.7002)" class="st24"><tspan x="0" y="0" class="st25 st26 st27 st28">H</tspan><tspan x="13.3" y="0" class="st25 st26 st27">S</tspan></text>
	</g>
</g>
<g>
	<defs>
		<rect id="SVGID_00000009575328467046851940000009843473314082786470_" width="598" height="648"/>
	</defs>
	<clipPath id="SVGID_00000107569786719105767680000000465105700815676071_">
		<use xlink:href="#SVGID_00000009575328467046851940000009843473314082786470_"  style="overflow:visible;"/>
	</clipPath>
</g>
<g>
	<defs>
		<rect id="SVGID_00000091706663316092736280000000553378363324709027_" x="332.3" y="6" width="62.5" height="18.6"/>
	</defs>
	<clipPath id="SVGID_00000031910397167400799680000017669097597460869291_">
		<use xlink:href="#SVGID_00000091706663316092736280000000553378363324709027_"  style="overflow:visible;"/>
	</clipPath>
	<g style="clip-path:url(#SVGID_00000031910397167400799680000017669097597460869291_);">
		<rect x="332.3" y="6" class="st22" width="62.5" height="18.6"/>
		<text transform="matrix(1 0 0 1 353.96 18.7)" class="st25 st26 st27">KTR</text>
	</g>
</g>
<g>
	<defs>
		<rect id="SVGID_00000127043511288504416320000014832099270103952547_" width="598" height="648"/>
	</defs>
	<clipPath id="SVGID_00000150805641309574565110000018365861546655626663_">
		<use xlink:href="#SVGID_00000127043511288504416320000014832099270103952547_"  style="overflow:visible;"/>
	</clipPath>
</g>
<g>
	<defs>
		<rect id="SVGID_00000114771504230676522440000003988712187790192276_" x="400.8" y="6" width="62.5" height="18.6"/>
	</defs>
	<clipPath id="SVGID_00000097486739151367808290000007516619113841515967_">
		<use xlink:href="#SVGID_00000114771504230676522440000003988712187790192276_"  style="overflow:visible;"/>
	</clipPath>
	<g style="clip-path:url(#SVGID_00000097486739151367808290000007516619113841515967_);">
		<rect x="400.8" y="6" class="st22" width="62.5" height="18.6"/>
		<rect x="419.8" y="10.5" class="st23" width="25.1" height="11.4"/>
		<text transform="matrix(1 0 0 1 419.8496 18.7002)" class="st24"><tspan x="0" y="0" class="st25 st26 st27 st31">KT</tspan><tspan x="18.7" y="0" class="st25 st26 st27">Y</tspan></text>
	</g>
</g>
<g>
	<defs>
		<rect id="SVGID_00000001657348111916614090000005916469343517199254_" width="598" height="648"/>
	</defs>
	<clipPath id="SVGID_00000156547117063660154600000010980549380234349224_">
		<use xlink:href="#SVGID_00000001657348111916614090000005916469343517199254_"  style="overflow:visible;"/>
	</clipPath>
	<g style="clip-path:url(#SVGID_00000156547117063660154600000010980549380234349224_);">
		<line class="st16" x1="263.9" y1="596.2" x2="326.3" y2="596.2"/>
		<line class="st33" x1="266" y1="599.1" x2="266" y2="596.2"/>
		<line class="st33" x1="281" y1="599.1" x2="281" y2="596.2"/>
		<line class="st33" x1="296.1" y1="599.1" x2="296.1" y2="596.2"/>
		<line class="st33" x1="311.1" y1="599.1" x2="311.1" y2="596.2"/>
		<line class="st33" x1="326.1" y1="599.1" x2="326.1" y2="596.2"/>
		<rect x="260.6" y="599.8" class="st23" width="10.7" height="14.2"/>
		<text transform="matrix(1 0 0 1 260.645 610.1396)" class="st26 st34">-8</text>
		<rect x="275.7" y="599.8" class="st23" width="10.7" height="14.2"/>
		<text transform="matrix(1 0 0 1 275.6851 610.1396)" class="st26 st34">-4</text>
		<text transform="matrix(1 0 0 1 292.7231 610.14)" class="st26 st34">0</text>
		<text transform="matrix(1 0 0 1 307.7631 610.14)" class="st26 st34">4</text>
		<text transform="matrix(1 0 0 1 322.8031 610.14)" class="st26 st34">8</text>
		<line class="st16" x1="332.3" y1="596.2" x2="394.8" y2="596.2"/>
		<line class="st33" x1="334.5" y1="599.1" x2="334.5" y2="596.2"/>
		<line class="st33" x1="349.5" y1="599.1" x2="349.5" y2="596.2"/>
		<line class="st33" x1="364.5" y1="599.1" x2="364.5" y2="596.2"/>
		<line class="st33" x1="379.6" y1="599.1" x2="379.6" y2="596.2"/>
		<line class="st33" x1="394.6" y1="599.1" x2="394.6" y2="596.2"/>
		<rect x="329.1" y="599.8" class="st23" width="10.7" height="14.2"/>
		<text transform="matrix(1 0 0 1 329.1152 610.1396)" class="st26 st34">-8</text>
		<rect x="344.2" y="599.8" class="st23" width="10.7" height="14.2"/>
		<text transform="matrix(1 0 0 1 344.1553 610.1396)" class="st26 st34">-4</text>
		<text transform="matrix(1 0 0 1 361.1931 610.14)" class="st26 st34">0</text>
		<text transform="matrix(1 0 0 1 376.2331 610.14)" class="st26 st34">4</text>
		<text transform="matrix(1 0 0 1 391.2731 610.14)" class="st26 st34">8</text>
		<line class="st16" x1="400.8" y1="596.2" x2="463.3" y2="596.2"/>
		<line class="st33" x1="402.9" y1="599.1" x2="402.9" y2="596.2"/>
		<line class="st33" x1="418" y1="599.1" x2="418" y2="596.2"/>
		<line class="st33" x1="433" y1="599.1" x2="433" y2="596.2"/>
		<line class="st33" x1="448" y1="599.1" x2="448" y2="596.2"/>
		<line class="st33" x1="463.1" y1="599.1" x2="463.1" y2="596.2"/>
		<rect x="397.6" y="599.8" class="st23" width="10.7" height="14.2"/>
		<text transform="matrix(1 0 0 1 397.585 610.1396)" class="st26 st34">-8</text>
		<rect x="412.6" y="599.8" class="st23" width="10.7" height="14.2"/>
		<text transform="matrix(1 0 0 1 412.625 610.1396)" class="st26 st34">-4</text>
		<text transform="matrix(1 0 0 1 429.6631 610.14)" class="st26 st34">0</text>
		<text transform="matrix(1 0 0 1 444.7031 610.14)" class="st26 st34">4</text>
		<text transform="matrix(1 0 0 1 459.743 610.14)" class="st26 st34">8</text>
		<line class="st16" x1="263.9" y1="596.2" x2="263.9" y2="24.5"/>
		<text transform="matrix(1 0 0 1 199.1087 594.56)" class="st35 st34">Acidovorax</text>
		<text transform="matrix(1 0 0 1 184.4427 584.74)" class="st35 st34">Nitrosomonas</text>
		<text transform="matrix(1 0 0 1 124.3958 574.91)" class="st35 st34">Candidatus Nitrosotenuis</text>
		<text transform="matrix(1 0 0 1 173.7727 565.09)" class="st35 st34">Nitrosarchaeum</text>
		<text transform="matrix(1 0 0 1 221.1223 555.27)" class="st35 st34">Ensifer</text>
		<text transform="matrix(1 0 0 1 181.7532 545.45)" class="st35 st34">Pseudomonas</text>
		<text transform="matrix(1 0 0 1 176.4388 535.63)" class="st35 st34">Flavobacterium</text>
		<rect x="198.9" y="515.5" class="st23" width="60.7" height="14.2"/>
		<text transform="matrix(1 0 0 1 198.8921 525.8096)" class="st24"><tspan x="0" y="0" class="st35 st34 st28">Terri</tspan><tspan x="56.7" y="0" class="st35 st34">-</tspan></text>
		<text transform="matrix(1 0 0 1 89.0345 515.99)" class="st35 st34">Bdellovibrionaceae OM27 clade</text>
		<rect x="201.8" y="495.9" class="st23" width="56.7" height="14.2"/>
		<text transform="matrix(1 0 0 1 201.7808 506.1699)" class="st35 st34">Rhizobium</text>
		<rect x="162.4" y="486" class="st23" width="96.1" height="14.2"/>
		<text transform="matrix(1 0 0 1 162.4116 496.3398)" class="st35 st34">Novosphingobium</text>
		<text transform="matrix(1 0 0 1 207.1243 486.52)" class="st35 st34">Nitrospira</text>
		<text transform="matrix(1 0 0 1 119.0579 476.7)" class="st35 st34">Nitrosomonadaceae IS-44</text>
		<text transform="matrix(1 0 0 1 159.7454 466.88)" class="st35 st34">Pseudarthrobacter</text>
		<text transform="matrix(1 0 0 1 113.7376 457.06)" class="st35 st34">Nitrosomonadaceae MND1</text>
		<text transform="matrix(1 0 0 1 148.4075 447.24)" class="st35 st34">Candidatus Berkiella</text>
		<text transform="matrix(1 0 0 1 125.7317 437.42)" class="st35 st34">Candidatus Omnitrophus</text>
		<text transform="matrix(1 0 0 1 215.7845 427.59)" class="st35 st34">Pirellula</text>
		<text transform="matrix(1 0 0 1 203.7727 417.77)" class="st35 st34">Xylophilus</text>
		<text transform="matrix(1 0 0 1 187.7473 407.95)" class="st35 st34">Rhodoplanes</text>
		<rect x="197.6" y="387.8" class="st23" width="62" height="14.2"/>
		<text transform="matrix(1 0 0 1 197.5503 398.1299)" class="st24"><tspan x="0" y="0" class="st35 st34 st36">Terra</tspan><tspan x="58" y="0" class="st35 st34">-</tspan></text>
		<text transform="matrix(1 0 0 1 221.1165 388.31)" class="st35 st34">Gaiella</text>
		<rect x="99.3" y="368.2" class="st23" width="160.1" height="14.2"/>
		<text transform="matrix(1 0 0 1 99.2886 378.4902)" class="st35 st34">Nitrosomonadaceae GOUTA6</text>
		<text transform="matrix(1 0 0 1 110.3802 368.67)" class="st35 st34">Hyphomonadaceae SWB02</text>
		<text transform="matrix(1 0 0 1 215.1165 358.85)" class="st35 st34">Devosia</text>
		<text transform="matrix(1 0 0 1 185.761 349.02)" class="st35 st34">Pseudolabrys</text>
		<text transform="matrix(1 0 0 1 218.4388 339.2)" class="st35 st34">Bauldia</text>
		<text transform="matrix(1 0 0 1 157.7532 329.38)" class="st35 st34">Anaeromyxobacter</text>
		<text transform="matrix(1 0 0 1 200.4446 319.56)" class="st35 st34">Bryobacter</text>
		<rect x="220.4" y="299.4" class="st23" width="38" height="14.2"/>
		<text transform="matrix(1 0 0 1 220.4429 309.7402)" class="st35 st34">Dongia</text>
		<text transform="matrix(1 0 0 1 191.0989 299.92)" class="st35 st34">Caenimonas</text>
		<text transform="matrix(1 0 0 1 175.1028 290.1)" class="st35 st34">Bradyrhizobium</text>
		<text transform="matrix(1 0 0 1 188.4329 280.28)" class="st35 st34">Nocardioides</text>
		<text transform="matrix(1 0 0 1 187.7591 270.45)" class="st35 st34">Paenibacillus</text>
		<text transform="matrix(1 0 0 1 175.1028 260.63)" class="st35 st34">Pedomicrobium</text>
		<rect x="198.4" y="240.5" class="st23" width="60" height="14.2"/>
		<text transform="matrix(1 0 0 1 198.4409 250.8101)" class="st35 st34">Haliangium</text>
		<text transform="matrix(1 0 0 1 163.097 240.99)" class="st35 st34">Altererythrobacter</text>
		<text transform="matrix(1 0 0 1 215.1282 231.17)" class="st35 st34">Massilia</text>
		<text transform="matrix(1 0 0 1 207.1067 221.35)" class="st35 st34">Litorilinea</text>
		<text transform="matrix(1 0 0 1 185.1106 211.53)" class="st35 st34">Streptomyces</text>
		<text transform="matrix(1 0 0 1 118.3958 201.71)" class="st35 st34">Anaerolineaceae UTCFX1</text>
		<text transform="matrix(1 0 0 1 159.0774 191.88)" class="st35 st34">Paenisporosarcina</text>
		<text transform="matrix(1 0 0 1 177.095 182.06)" class="st35 st34">Solirubrobacter</text>
		<rect x="121.7" y="161.9" class="st23" width="136.8" height="14.2"/>
		<text transform="matrix(1 0 0 1 121.7183 172.2402)" class="st35 st34">Pyrinomonadaceae RB41</text>
		<text transform="matrix(1 0 0 1 194.4388 162.42)" class="st35 st34">Arenimonas</text>
		<text transform="matrix(1 0 0 1 170.4095 152.6)" class="st35 st34">Jatrophihabitans</text>
		<text transform="matrix(1 0 0 1 192.4583 142.78)" class="st35 st34">Marmoricola</text>
		<text transform="matrix(1 0 0 1 187.7649 132.96)" class="st35 st34">Conexibacter</text>
		<text transform="matrix(1 0 0 1 177.1126 123.14)" class="st35 st34">Mycobacterium</text>
		<text transform="matrix(1 0 0 1 173.7786 113.31)" class="st35 st34">Gemmatimonas</text>
		<text transform="matrix(1 0 0 1 217.1204 103.49)" class="st35 st34">Bacillus</text>
		<text transform="matrix(1 0 0 1 187.7708 93.67)" class="st35 st34">Blastococcus</text>
		<text transform="matrix(1 0 0 1 180.4231 83.85)" class="st35 st34">Steroidobacter</text>
		<rect x="213.8" y="63.7" class="st23" width="44.7" height="14.2"/>
		<text transform="matrix(1 0 0 1 213.7808 74.0298)" class="st35 st34">Nordella</text>
		<text transform="matrix(1 0 0 1 46.3196 64.21)" class="st35 st34">Thermoanaerobaculaceae Subgroup 10</text>
		<text transform="matrix(1 0 0 1 123.054 54.39)" class="st35 st34">Pirellulaceae Pir4 lineage</text>
		<text transform="matrix(1 0 0 1 125.7141 44.56)" class="st35 st34">Candidatus Udaeobacter</text>
		<text transform="matrix(1 0 0 1 176.4329 34.74)" class="st35 st34">Roseisolibacter</text>
		<line class="st33" x1="260.9" y1="590.2" x2="263.9" y2="590.2"/>
		<line class="st33" x1="260.9" y1="580.4" x2="263.9" y2="580.4"/>
		<line class="st33" x1="260.9" y1="570.6" x2="263.9" y2="570.6"/>
		<line class="st33" x1="260.9" y1="560.8" x2="263.9" y2="560.8"/>
		<line class="st33" x1="260.9" y1="551" x2="263.9" y2="551"/>
		<line class="st33" x1="260.9" y1="541.2" x2="263.9" y2="541.2"/>
		<line class="st33" x1="260.9" y1="531.3" x2="263.9" y2="531.3"/>
		<line class="st33" x1="260.9" y1="521.5" x2="263.9" y2="521.5"/>
		<line class="st33" x1="260.9" y1="511.7" x2="263.9" y2="511.7"/>
		<line class="st33" x1="260.9" y1="501.9" x2="263.9" y2="501.9"/>
		<line class="st33" x1="260.9" y1="492" x2="263.9" y2="492"/>
		<line class="st33" x1="260.9" y1="482.2" x2="263.9" y2="482.2"/>
		<line class="st33" x1="260.9" y1="472.4" x2="263.9" y2="472.4"/>
		<line class="st33" x1="260.9" y1="462.6" x2="263.9" y2="462.6"/>
		<line class="st33" x1="260.9" y1="452.8" x2="263.9" y2="452.8"/>
		<line class="st33" x1="260.9" y1="442.9" x2="263.9" y2="442.9"/>
		<line class="st33" x1="260.9" y1="433.1" x2="263.9" y2="433.1"/>
		<line class="st33" x1="260.9" y1="423.3" x2="263.9" y2="423.3"/>
		<line class="st33" x1="260.9" y1="413.5" x2="263.9" y2="413.5"/>
		<line class="st33" x1="260.9" y1="403.6" x2="263.9" y2="403.6"/>
		<line class="st33" x1="260.9" y1="393.8" x2="263.9" y2="393.8"/>
		<line class="st33" x1="260.9" y1="384" x2="263.9" y2="384"/>
		<line class="st33" x1="260.9" y1="374.2" x2="263.9" y2="374.2"/>
		<line class="st33" x1="260.9" y1="364.4" x2="263.9" y2="364.4"/>
		<line class="st33" x1="260.9" y1="354.5" x2="263.9" y2="354.5"/>
		<line class="st33" x1="260.9" y1="344.7" x2="263.9" y2="344.7"/>
		<line class="st33" x1="260.9" y1="334.9" x2="263.9" y2="334.9"/>
		<line class="st33" x1="260.9" y1="325.1" x2="263.9" y2="325.1"/>
		<line class="st33" x1="260.9" y1="315.3" x2="263.9" y2="315.3"/>
		<line class="st33" x1="260.9" y1="305.4" x2="263.9" y2="305.4"/>
		<line class="st33" x1="260.9" y1="295.6" x2="263.9" y2="295.6"/>
		<line class="st33" x1="260.9" y1="285.8" x2="263.9" y2="285.8"/>
		<line class="st33" x1="260.9" y1="276" x2="263.9" y2="276"/>
		<line class="st33" x1="260.9" y1="266.1" x2="263.9" y2="266.1"/>
		<line class="st33" x1="260.9" y1="256.3" x2="263.9" y2="256.3"/>
		<line class="st33" x1="260.9" y1="246.5" x2="263.9" y2="246.5"/>
		<line class="st33" x1="260.9" y1="236.7" x2="263.9" y2="236.7"/>
		<line class="st33" x1="260.9" y1="226.9" x2="263.9" y2="226.9"/>
		<line class="st33" x1="260.9" y1="217.1" x2="263.9" y2="217.1"/>
		<line class="st33" x1="260.9" y1="207.2" x2="263.9" y2="207.2"/>
		<line class="st33" x1="260.9" y1="197.4" x2="263.9" y2="197.4"/>
		<line class="st33" x1="260.9" y1="187.6" x2="263.9" y2="187.6"/>
		<line class="st33" x1="260.9" y1="177.8" x2="263.9" y2="177.8"/>
		<line class="st33" x1="260.9" y1="167.9" x2="263.9" y2="167.9"/>
		<line class="st33" x1="260.9" y1="158.1" x2="263.9" y2="158.1"/>
		<line class="st33" x1="260.9" y1="148.3" x2="263.9" y2="148.3"/>
		<line class="st33" x1="260.9" y1="138.5" x2="263.9" y2="138.5"/>
		<line class="st33" x1="260.9" y1="128.6" x2="263.9" y2="128.6"/>
		<line class="st33" x1="260.9" y1="118.8" x2="263.9" y2="118.8"/>
		<line class="st33" x1="260.9" y1="109" x2="263.9" y2="109"/>
		<line class="st33" x1="260.9" y1="99.2" x2="263.9" y2="99.2"/>
		<line class="st33" x1="260.9" y1="89.4" x2="263.9" y2="89.4"/>
		<line class="st33" x1="260.9" y1="79.6" x2="263.9" y2="79.6"/>
		<line class="st33" x1="260.9" y1="69.7" x2="263.9" y2="69.7"/>
		<line class="st33" x1="260.9" y1="59.9" x2="263.9" y2="59.9"/>
		<line class="st33" x1="260.9" y1="50.1" x2="263.9" y2="50.1"/>
		<line class="st33" x1="260.9" y1="40.3" x2="263.9" y2="40.3"/>
		<line class="st33" x1="260.9" y1="30.4" x2="263.9" y2="30.4"/>
		<rect x="274.3" y="614.1" class="st23" width="179.4" height="14.2"/>
		<text transform="matrix(1 0 0 1 274.2749 624.3896)" class="st26 st34">Log 2-Fold Abundance Difference</text>
		<rect x="475.2" y="183.4" class="st0" width="116.8" height="253.8"/>
		<text transform="matrix(1 0 0 1 481.21 199.34)" class="st26 st34">Phylum</text>
		<rect x="481.9" y="207.4" class="st13" width="15.9" height="15.9"/>
		<rect x="481.9" y="224.6" class="st4" width="15.9" height="15.9"/>
		<rect x="481.9" y="241.9" class="st6" width="15.9" height="15.9"/>
		<rect x="481.9" y="259.2" class="st9" width="15.9" height="15.9"/>
		<rect x="481.9" y="276.5" class="st20" width="15.9" height="15.9"/>
		<rect x="481.9" y="293.8" class="st14" width="15.9" height="15.9"/>
		<rect x="481.9" y="311" class="st10" width="15.9" height="15.9"/>
		<rect x="481.9" y="328.3" class="st11" width="15.9" height="15.9"/>
		<rect x="481.9" y="345.6" class="st8" width="15.9" height="15.9"/>
		<rect x="481.9" y="362.9" class="st7" width="15.9" height="15.9"/>
		<rect x="481.9" y="380.2" class="st15" width="15.9" height="15.9"/>
		<rect x="481.9" y="397.4" class="st5" width="15.9" height="15.9"/>
		<rect x="481.9" y="414.7" class="st12" width="15.9" height="15.9"/>
		<text transform="matrix(1 0 0 1 504.47 218.73)" class="st35 st27">Acidobacteriota</text>
		<text transform="matrix(1 0 0 1 504.47 236.01)" class="st35 st27">Actinobacteriota</text>
		<text transform="matrix(1 0 0 1 504.47 253.29)" class="st35 st27">Bacteroidota</text>
		<text transform="matrix(1 0 0 1 504.47 270.57)" class="st35 st27">Bdellovibrionota</text>
		<text transform="matrix(1 0 0 1 504.47 287.85)" class="st35 st27">Chloroflexi</text>
		<text transform="matrix(1 0 0 1 504.47 305.13)" class="st35 st27">Crenarchaeota</text>
		<text transform="matrix(1 0 0 1 504.47 322.41)" class="st35 st27">Firmicutes</text>
		<text transform="matrix(1 0 0 1 504.47 339.69)" class="st35 st27">Gemmatimonadota</text>
		<text transform="matrix(1 0 0 1 504.47 356.97)" class="st35 st27">Myxococcota</text>
		<text transform="matrix(1 0 0 1 504.47 374.25)" class="st35 st27">Nitrospirota</text>
		<text transform="matrix(1 0 0 1 504.47 391.53)" class="st35 st27">Planctomycetota</text>
		<text transform="matrix(1 0 0 1 504.47 408.81)" class="st35 st27">Proteobacteria</text>
		<rect x="504.5" y="417.9" class="st23" width="77.8" height="11.4"/>
		<text transform="matrix(1 0 0 1 504.4697 426.0898)" class="st24"><tspan x="0" y="0" class="st35 st27">Verrucomicrobio</tspan><tspan x="74.7" y="0" class="st35 st27">-</tspan></text>
		<text transform="matrix(1 0 0 1 489.8519 443.9)" class="st26 st27">Native soil (no PRB)</text>
	</g>
</g>
<rect x="207.5" y="9" class="st23" width="61" height="22"/>
<text transform="matrix(1 0 0 1 207.5 20.4561)" class="st37 st38">Genus</text>
</svg>
