<?xml version="1.0" encoding="utf-8"?>
<!-- Generator: Adobe Illustrator 26.0.3, SVG Export Plug-In . SVG Version: 6.00 Build 0)  -->
<svg version="1.1" id="Layer_1" xmlns="http://www.w3.org/2000/svg" xmlns:xlink="http://www.w3.org/1999/xlink" x="0px" y="0px"
	 viewBox="0 0 757 493" style="enable-background:new 0 0 757 493;" xml:space="preserve">
<style type="text/css">
	.st0{fill:#FFFFFF;}
	.st1{clip-path:url(#SVGID_00000071550245545947134790000006181763528336737152_);}
	.st2{fill:#FFFFFF;stroke:#FFFFFF;stroke-width:1.16;stroke-linecap:round;stroke-linejoin:round;stroke-miterlimit:10;}
	.st3{clip-path:url(#SVGID_00000016074039342456075020000016976176000844024482_);}
	.st4{fill:#593F28;}
	.st5{fill:#739D6E;stroke:#739D6E;stroke-width:0.71;stroke-linecap:round;stroke-linejoin:round;stroke-miterlimit:10;}
	.st6{fill:#89C0DB;}
	.st7{fill:none;stroke:#BEBEBE;stroke-width:1.71;stroke-linejoin:round;stroke-miterlimit:10;stroke-dasharray:9.1,9.1;}
	.st8{font-family:'ArialMT';}
	.st9{font-size:11.04px;}
	.st10{fill:none;stroke:#000000;stroke-width:1.07;stroke-linejoin:round;stroke-miterlimit:10;stroke-opacity:0.7;}
	
		.st11{fill:#89C0DB;fill-opacity:0.2;stroke:#89C0DB;stroke-width:1.07;stroke-linecap:round;stroke-linejoin:round;stroke-miterlimit:10;}
	
		.st12{fill:#593F28;fill-opacity:0.2;stroke:#593F28;stroke-width:1.07;stroke-linecap:round;stroke-linejoin:round;stroke-miterlimit:10;stroke-dasharray:2.85,2.85;}
	
		.st13{fill:#739D6E;fill-opacity:0.2;stroke:#739D6E;stroke-width:1.07;stroke-linecap:round;stroke-linejoin:round;stroke-miterlimit:10;stroke-dasharray:5.69,2.85;}
	.st14{clip-path:url(#SVGID_00000005964055089451259090000016206627356483705478_);}
	.st15{fill:none;stroke:#000000;stroke-width:1.07;stroke-linejoin:round;stroke-miterlimit:10;}
	.st16{fill:none;}
	.st17{font-size:12px;}
	.st18{fill:none;stroke:#333333;stroke-width:1.16;stroke-linejoin:round;stroke-miterlimit:10;}
	.st19{fill:#89C0DB;fill-opacity:0.2;stroke:#89C0DB;stroke-width:1.07;stroke-linecap:square;stroke-miterlimit:10;}
	
		.st20{fill:#593F28;fill-opacity:0.2;stroke:#593F28;stroke-width:1.07;stroke-linecap:square;stroke-miterlimit:10;stroke-dasharray:2.85,2.85;}
	
		.st21{fill:#739D6E;fill-opacity:0.2;stroke:#739D6E;stroke-width:1.07;stroke-linecap:square;stroke-miterlimit:10;stroke-dasharray:5.69,2.85;}
	.st22{enable-background:new    ;}
	.st23{font-size:9.6px;}
	.st24{letter-spacing:6;}
	.st25{letter-spacing:3;}
</style>
<rect class="st0" width="757" height="493"/>
<g>
	<defs>
		<rect id="SVGID_1_" width="757" height="493"/>
	</defs>
	<clipPath id="SVGID_00000144326414696582486710000004439438675533649284_">
		<use xlink:href="#SVGID_1_"  style="overflow:visible;"/>
	</clipPath>
</g>
<g>
	<defs>
		<rect id="SVGID_00000008122488741248859600000007448123349685862047_" x="120.2" width="516.6" height="493"/>
	</defs>
	<clipPath id="SVGID_00000042006375079348280850000014530869448120682667_">
		<use xlink:href="#SVGID_00000008122488741248859600000007448123349685862047_"  style="overflow:visible;"/>
	</clipPath>
	<g style="clip-path:url(#SVGID_00000042006375079348280850000014530869448120682667_);">
		<rect x="120.2" class="st2" width="516.6" height="493"/>
	</g>
</g>
<g>
	<defs>
		<rect id="SVGID_00000145757566178083360400000003950653233465436349_" width="757" height="493"/>
	</defs>
	<clipPath id="SVGID_00000030465585013403463470000006698549267989963914_">
		<use xlink:href="#SVGID_00000145757566178083360400000003950653233465436349_"  style="overflow:visible;"/>
	</clipPath>
</g>
<g>
	<defs>
		<rect id="SVGID_00000157306985575195652030000008061000687831351477_" x="156.5" y="6" width="402.1" height="424.8"/>
	</defs>
	<clipPath id="SVGID_00000001662653131800276790000018172552181320039567_">
		<use xlink:href="#SVGID_00000157306985575195652030000008061000687831351477_"  style="overflow:visible;"/>
	</clipPath>
	<g style="clip-path:url(#SVGID_00000001662653131800276790000018172552181320039567_);">
		<rect x="156.5" y="6" class="st0" width="402.1" height="424.8"/>
		<polygon class="st4" points="245.1,159.7 247.7,164.3 242.5,164.3 		"/>
		<polygon class="st4" points="240.4,124.2 243,128.7 237.8,128.7 		"/>
		<polygon class="st4" points="235.5,159.8 238.1,164.4 232.8,164.4 		"/>
		<polygon class="st4" points="252.3,171.9 254.9,176.5 249.7,176.5 		"/>
		<polygon class="st4" points="342.8,196.4 345.4,200.9 340.2,200.9 		"/>
		<polygon class="st4" points="322.2,122.3 324.8,126.8 319.6,126.8 		"/>
		<polygon class="st4" points="260,250 262.6,254.5 257.4,254.5 		"/>
		<polygon class="st4" points="254.8,321 257.4,325.6 252.1,325.6 		"/>
		<polygon class="st4" points="217.6,300.1 220.2,304.7 214.9,304.7 		"/>
		<polygon class="st4" points="245.4,256.5 248,261.1 242.8,261.1 		"/>
		<polygon class="st4" points="284.4,199.8 287,204.4 281.7,204.4 		"/>
		<polygon class="st4" points="294.6,351.4 297.2,356 292,356 		"/>
		<circle class="st5" cx="459.2" cy="209.9" r="2"/>
		<circle class="st5" cx="470.5" cy="169.4" r="2"/>
		<circle class="st5" cx="475.4" cy="172.2" r="2"/>
		<circle class="st5" cx="486.9" cy="177.1" r="2"/>
		<circle class="st5" cx="472.8" cy="174.1" r="2"/>
		<circle class="st5" cx="466.1" cy="133.3" r="2"/>
		<circle class="st5" cx="470.1" cy="144.2" r="2"/>
		<circle class="st5" cx="496.1" cy="263.8" r="2"/>
		<polygon class="st6" points="508.4,256.9 512.3,256.9 512.3,253 508.4,253 		"/>
		<polygon class="st6" points="509.7,255.6 513.6,255.6 513.6,251.6 509.7,251.6 		"/>
		<polygon class="st6" points="502.6,229 506.5,229 506.5,225.1 502.6,225.1 		"/>
		<polygon class="st6" points="508,253.5 511.9,253.5 511.9,249.6 508,249.6 		"/>
		<polygon class="st6" points="497.4,238.8 501.3,238.8 501.3,234.9 497.4,234.9 		"/>
		<polygon class="st6" points="496,228.4 499.9,228.4 499.9,224.5 496,224.5 		"/>
		<polygon class="st6" points="503.6,257.1 507.5,257.1 507.5,253.1 503.6,253.1 		"/>
		<polygon class="st6" points="500.9,246.7 504.8,246.7 504.8,242.8 500.9,242.8 		"/>
		<polygon class="st6" points="500.2,248.8 504.1,248.8 504.1,244.9 500.2,244.9 		"/>
		<polygon class="st6" points="505.9,253.7 509.8,253.7 509.8,249.8 505.9,249.8 		"/>
		<line class="st7" x1="-245.6" y1="218.1" x2="960.7" y2="218.1"/>
		<line class="st7" x1="401.5" y1="430.8" x2="401.5" y2="6"/>
		<text transform="matrix(1 0 0 1 281.6236 156.61)" class="st8 st9">C</text>
		<text transform="matrix(1 0 0 1 259.0736 166.42)" class="st8 st9">N</text>
		<text transform="matrix(1 0 0 1 528.4283 283.24)" class="st8 st9">Sand</text>
		<text transform="matrix(1 0 0 1 277.7918 149.15)" class="st8 st9">Silt</text>
		<text transform="matrix(1 0 0 1 211.6373 194.75)" class="st8 st9">Clay</text>
		<line class="st10" x1="401.5" y1="218.1" x2="291.6" y2="153.1"/>
		<polyline class="st10" points="295.6,153.2 291.6,153.1 293.6,156.6 		"/>
		<line class="st10" x1="401.5" y1="218.1" x2="269.3" y2="163"/>
		<polyline class="st10" points="273.3,162.5 269.3,163 271.7,166.2 		"/>
		<line class="st10" x1="401.5" y1="218.1" x2="527.7" y2="277.4"/>
		<polyline class="st10" points="523.7,277.7 527.7,277.4 525.4,274.1 		"/>
		<line class="st10" x1="401.5" y1="218.1" x2="293.3" y2="150.9"/>
		<polyline class="st10" points="297.3,151 293.3,150.9 295.2,154.4 		"/>
		<line class="st10" x1="401.5" y1="218.1" x2="236.2" y2="191.4"/>
		<polyline class="st10" points="240,190 236.2,191.4 239.3,194 		"/>
		<polygon class="st11" points="518.4,267.4 518.3,265.2 518,262.8 517.5,260 516.9,257.1 516,254.1 515.1,250.9 513.9,247.7 
			512.7,244.4 511.3,241.2 509.9,238.1 508.3,235.1 506.8,232.3 505.2,229.7 503.6,227.3 502.1,225.3 500.6,223.6 499.2,222.2 
			497.9,221.2 496.7,220.6 495.6,220.4 494.7,220.6 494,221.2 493.4,222.2 493,223.6 492.8,225.3 492.8,227.3 493,229.6 
			493.4,232.2 494,235 494.7,238 495.6,241.1 496.7,244.4 497.9,247.6 499.2,250.8 500.6,254 502.1,257.1 503.6,260 505.2,262.7 
			506.8,265.2 508.3,267.4 509.9,269.2 511.3,270.8 512.7,272 513.9,272.8 515.1,273.2 516,273.2 516.9,272.8 517.5,272 518,270.8 
			518.3,269.3 		"/>
		<polygon class="st12" points="347.3,204 346.7,180.4 344.7,157.4 341.5,135.4 337,114.6 331.5,95.3 324.8,78 317.1,62.7 
			308.7,49.9 299.5,39.5 289.7,31.9 279.4,27.2 268.9,25.3 258.3,26.3 247.7,30.3 237.3,37.1 227.3,46.7 217.8,58.8 208.9,73.4 
			200.8,90.2 193.7,108.9 187.5,129.3 182.5,151.1 178.6,173.8 176.1,197.3 174.8,221 174.8,244.8 176.1,268.1 178.6,290.6 
			182.5,312.1 187.5,332.2 193.7,350.5 200.8,366.8 208.9,380.9 217.8,392.5 227.3,401.5 237.3,407.7 247.7,411.1 258.3,411.5 
			268.9,409 279.4,403.6 289.7,395.4 299.5,384.5 308.7,371.1 317.1,355.4 324.8,337.6 331.5,318 337,296.9 341.5,274.6 
			344.7,251.4 346.7,227.8 		"/>
		<polygon class="st13" points="498.8,223.7 498.6,214.6 498,204.8 497.1,194.5 495.8,183.8 494.1,172.9 492.2,162 490,151.2 
			487.5,140.7 484.8,130.6 482,121.1 479,112.3 475.9,104.5 472.8,97.6 469.7,91.8 466.7,87.2 463.8,83.9 461,81.8 458.4,81.2 
			456,81.8 453.9,83.8 452.1,87.1 450.7,91.6 449.5,97.4 448.8,104.2 448.4,112 448.4,120.8 448.8,130.2 449.5,140.3 450.7,150.8 
			452.1,161.6 453.9,172.5 456,183.4 458.4,194.1 461,204.4 463.8,214.2 466.7,223.4 469.7,231.7 472.8,239.1 475.9,245.4 
			479,250.6 482,254.6 484.8,257.3 487.5,258.6 490,258.7 492.2,257.4 494.1,254.7 495.8,250.8 497.1,245.6 498,239.3 498.6,232 		
			"/>
	</g>
</g>
<g>
	<defs>
		<rect id="SVGID_00000158016980057974576900000016542088603985659552_" width="757" height="493"/>
	</defs>
	<clipPath id="SVGID_00000182530758781334718950000018011442883068195493_">
		<use xlink:href="#SVGID_00000158016980057974576900000016542088603985659552_"  style="overflow:visible;"/>
	</clipPath>
	<g style="clip-path:url(#SVGID_00000182530758781334718950000018011442883068195493_);">
		<line class="st15" x1="156.5" y1="430.8" x2="156.5" y2="6"/>
		<rect x="140.4" y="391.2" class="st16" width="10.7" height="14.2"/>
		<text transform="matrix(1 0 0 1 140.4199 401.5303)" class="st8 st17">-2</text>
		<rect x="140.4" y="301.7" class="st16" width="10.7" height="14.2"/>
		<text transform="matrix(1 0 0 1 140.4199 311.96)" class="st8 st17">-1</text>
		<text transform="matrix(1 0 0 1 144.4162 222.39)" class="st8 st17">0</text>
		<text transform="matrix(1 0 0 1 144.4162 132.82)" class="st8 st17">1</text>
		<text transform="matrix(1 0 0 1 144.4162 43.25)" class="st8 st17">2</text>
		<line class="st18" x1="153.5" y1="397.2" x2="156.5" y2="397.2"/>
		<line class="st18" x1="153.5" y1="307.6" x2="156.5" y2="307.6"/>
		<line class="st18" x1="153.5" y1="218.1" x2="156.5" y2="218.1"/>
		<line class="st18" x1="153.5" y1="128.5" x2="156.5" y2="128.5"/>
		<line class="st18" x1="153.5" y1="39" x2="156.5" y2="39"/>
		<line class="st15" x1="156.5" y1="430.8" x2="558.6" y2="430.8"/>
		<line class="st18" x1="222.3" y1="433.8" x2="222.3" y2="430.8"/>
		<line class="st18" x1="311.9" y1="433.8" x2="311.9" y2="430.8"/>
		<line class="st18" x1="401.5" y1="433.8" x2="401.5" y2="430.8"/>
		<line class="st18" x1="491" y1="433.8" x2="491" y2="430.8"/>
		<rect x="212" y="434.5" class="st16" width="20.7" height="14.2"/>
		<text transform="matrix(1 0 0 1 211.9912 444.7695)" class="st8 st17">-1.0</text>
		<rect x="301.6" y="434.5" class="st16" width="20.7" height="14.2"/>
		<text transform="matrix(1 0 0 1 301.5615 444.7695)" class="st8 st17">-0.5</text>
		<text transform="matrix(1 0 0 1 393.1292 444.77)" class="st8 st17">0.0</text>
		<text transform="matrix(1 0 0 1 482.6992 444.77)" class="st8 st17">0.5</text>
		<rect x="336.5" y="448.7" class="st16" width="42" height="14.2"/>
		<text transform="matrix(1 0 0 1 336.5273 459.0195)" class="st8 st17">NMDS1</text>
		<rect x="124.5" y="197.4" class="st16" width="14.2" height="42"/>
		<text transform="matrix(6.123234e-17 -1 1 6.123234e-17 134.7783 239.3828)" class="st8 st17">NMDS2</text>
		<rect x="570.5" y="177.9" class="st0" width="60.3" height="81"/>
		<rect x="576.5" y="183.5" class="st16" width="45.4" height="14.2"/>
		<text transform="matrix(1 0 0 1 576.5303 193.7803)" class="st8 st17">Location</text>
		<polygon class="st6" points="583.2,211.7 587.1,211.7 587.1,207.8 583.2,207.8 		"/>
		<rect x="577.2" y="201.8" class="st19" width="15.9" height="15.9"/>
		<polygon class="st4" points="585.2,224 587.8,228.5 582.5,228.5 		"/>
		<rect x="577.2" y="219.1" class="st20" width="15.9" height="15.9"/>
		<circle class="st5" cx="585.2" cy="244.3" r="2"/>
		<rect x="577.2" y="236.4" class="st21" width="15.9" height="15.9"/>
		<rect x="599.8" y="204.9" class="st16" width="19.7" height="11.4"/>
		<text transform="matrix(1 0 0 1 599.79 213.1602)" class="st22"><tspan x="0" y="0" class="st8 st23 st24">H</tspan><tspan x="13.3" y="0" class="st8 st23">S</tspan></text>
		<text transform="matrix(1 0 0 1 599.79 230.44)" class="st8 st23">KTR</text>
		<rect x="599.8" y="239.5" class="st16" width="25.1" height="11.4"/>
		<text transform="matrix(1 0 0 1 599.79 247.7197)" class="st22"><tspan x="0" y="0" class="st8 st23 st25">KT</tspan><tspan x="18.7" y="0" class="st8 st23">Y</tspan></text>
		<rect x="420.3" y="466.3" class="st16" width="138.9" height="11.4"/>
		<text transform="matrix(1 0 0 1 420.3145 474.5303)" class="st22"><tspan x="0" y="0" class="st8 st23">PERMANOVA(Location)</tspan><tspan x="104" y="0" class="st8 st23"> </tspan><tspan x="106.7" y="0" class="st8 st23">&lt;</tspan><tspan x="112.3" y="0" class="st8 st23"> </tspan><tspan x="114.9" y="0" class="st8 st23">0.001</tspan></text>
		<rect x="507.1" y="476.7" class="st16" width="54.1" height="11.4"/>
		<text transform="matrix(1 0 0 1 507.1035 484.9004)" class="st22"><tspan x="0" y="0" class="st8 st23">Stress=0.0</tspan><tspan x="48.8" y="0" class="st8 st23">2</tspan></text>
	</g>
</g>
</svg>
