<?xml version="1.0" encoding="utf-8"?>
<!-- Generator: Adobe Illustrator 26.0.3, SVG Export Plug-In . SVG Version: 6.00 Build 0)  -->
<svg version="1.1" id="Layer_1" xmlns="http://www.w3.org/2000/svg" xmlns:xlink="http://www.w3.org/1999/xlink" x="0px" y="0px"
	 viewBox="0 0 720 720" style="enable-background:new 0 0 720 720;" xml:space="preserve">
<style type="text/css">
	.st0{fill:#FFFFFF;}
	.st1{clip-path:url(#SVGID_00000100344010108386116750000002093015117718153149_);}
	.st2{fill:#FFFFFF;stroke:#FFFFFF;stroke-width:1.16;stroke-linecap:round;stroke-linejoin:round;stroke-miterlimit:10;}
	.st3{clip-path:url(#SVGID_00000115509419956561779050000006044631274583331733_);}
	.st4{fill:#6D93A4;}
	.st5{font-family:'Arial-ItalicMT';}
	.st6{font-size:14.23px;}
	.st7{fill:none;}
	.st8{enable-background:new    ;}
	.st9{fill:#B3C5AB;}
	.st10{letter-spacing:5;}
	.st11{fill:#5E3023;}
	.st12{fill:#EDD9AF;}
	.st13{fill:#3E5524;}
	.st14{fill:#89C0DB;}
	.st15{fill:#6D93A4;stroke:#6D93A4;stroke-width:0.71;stroke-linecap:round;stroke-linejoin:round;stroke-miterlimit:10;}
	.st16{fill:#B3C5AB;stroke:#B3C5AB;stroke-width:0.71;stroke-linecap:round;stroke-linejoin:round;stroke-miterlimit:10;}
	.st17{fill:#5E3023;stroke:#5E3023;stroke-width:0.71;stroke-linecap:round;stroke-linejoin:round;stroke-miterlimit:10;}
	.st18{fill:#EDD9AF;stroke:#EDD9AF;stroke-width:0.71;stroke-linecap:round;stroke-linejoin:round;stroke-miterlimit:10;}
	.st19{fill:#3E5524;stroke:#3E5524;stroke-width:0.71;stroke-linecap:round;stroke-linejoin:round;stroke-miterlimit:10;}
	.st20{fill:#89C0DB;stroke:#89C0DB;stroke-width:0.71;stroke-linecap:round;stroke-linejoin:round;stroke-miterlimit:10;}
	.st21{fill:none;stroke:#000000;stroke-width:1.07;stroke-linejoin:round;stroke-miterlimit:10;}
	.st22{font-family:'ArialMT';}
	.st23{font-size:11.04px;}
	.st24{font-family:'MyriadPro-Regular';}
	.st25{font-size:12px;}
	.st26{fill:none;stroke:#000000;stroke-width:1.4379;stroke-linejoin:round;stroke-miterlimit:10;stroke-dasharray:7.6519,7.6519;}
	.st27{fill:none;stroke:#000000;stroke-width:1.71;stroke-linejoin:round;stroke-miterlimit:10;stroke-dasharray:9.1,9.1;}
	.st28{clip-path:url(#SVGID_00000000210571630313052770000014106253796978532509_);}
	.st29{fill:none;stroke:#333333;stroke-width:1.16;stroke-linejoin:round;stroke-miterlimit:10;}
	.st30{font-size:9.6px;}
	.st31{letter-spacing:2;}
</style>
<rect class="st0" width="720" height="720"/>
<g>
	<defs>
		<rect id="SVGID_1_" width="720" height="720"/>
	</defs>
	<clipPath id="SVGID_00000111909624216514553710000015059287635234832554_">
		<use xlink:href="#SVGID_1_"  style="overflow:visible;"/>
	</clipPath>
</g>
<g>
	<defs>
		<rect id="SVGID_00000075875543336846330790000008966401909317459891_" y="133.8" width="720" height="452.5"/>
	</defs>
	<clipPath id="SVGID_00000036967696694023861940000016502156646374046097_">
		<use xlink:href="#SVGID_00000075875543336846330790000008966401909317459891_"  style="overflow:visible;"/>
	</clipPath>
	<g style="clip-path:url(#SVGID_00000036967696694023861940000016502156646374046097_);">
		<rect y="133.8" class="st2" width="720" height="452.5"/>
	</g>
</g>
<g>
	<defs>
		<rect id="SVGID_00000116921442769002134780000001343615291608954509_" width="720" height="720"/>
	</defs>
	<clipPath id="SVGID_00000035528105171002179370000005830831274263399079_">
		<use xlink:href="#SVGID_00000116921442769002134780000001343615291608954509_"  style="overflow:visible;"/>
	</clipPath>
</g>
<g>
	<defs>
		<rect id="SVGID_00000135656302555628447100000015337358790180995748_" x="46.3" y="139.7" width="551.8" height="394.7"/>
	</defs>
	<clipPath id="SVGID_00000128459675762273530150000004532086463775710128_">
		<use xlink:href="#SVGID_00000135656302555628447100000015337358790180995748_"  style="overflow:visible;"/>
	</clipPath>
	<g style="clip-path:url(#SVGID_00000128459675762273530150000004532086463775710128_);">
		<text transform="matrix(1 0 0 1 477.4146 259.51)" class="st4 st5 st6">Pseudarthrobacter</text>
		<rect x="525.3" y="230" class="st7" width="62.4" height="16.8"/>
		<text transform="matrix(1 0 0 1 525.2646 242.1602)" class="st8"><tspan x="0" y="0" class="st9 st5 st6">Vogesel</tspan><tspan x="57.7" y="0" class="st9 st5 st6">-</tspan></text>
		<text transform="matrix(1 0 0 1 480.5852 415.85)" class="st9 st5 st6">Novosphingobium</text>
		<text transform="matrix(1 0 0 1 452.3133 226.78)" class="st9 st5 st6">Pseudomonas</text>
		<text transform="matrix(1 0 0 1 472.2678 400.38)" class="st9 st5 st6">Polaromonas</text>
		<rect x="503.2" y="333.2" class="st7" width="85.3" height="16.8"/>
		<text transform="matrix(1 0 0 1 503.1846 345.4297)" class="st8"><tspan x="0" y="0" class="st9 st5 st6 st10">Tropici</tspan><tspan x="80.6" y="0" class="st9 st5 st6">-</tspan></text>
		<text transform="matrix(1 0 0 1 414.4702 360.88)" class="st9 st5 st6">Bradyrhizobium</text>
		<text transform="matrix(1 0 0 1 345.8225 161.54)" class="st4 st5 st6">Gaiella</text>
		<text transform="matrix(1 0 0 1 491.0712 383.9)" class="st9 st5 st6">Limnohabitans</text>
		<text transform="matrix(1 0 0 1 468.6655 174.23)" class="st9 st5 st6">Comamonas</text>
		<text transform="matrix(1 0 0 1 459.4223 200.93)" class="st11 st5 st6">Flavobacterium</text>
		<text transform="matrix(1 0 0 1 138.0957 301.86)" class="st9 st5 st6">Nitrosomonadaceae MND1</text>
		<text transform="matrix(1 0 0 1 497.5959 212.06)" class="st9 st5 st6">Ensifer</text>
		<text transform="matrix(1 0 0 1 529.6391 366.97)" class="st9 st5 st6">Xylophilus</text>
		<text transform="matrix(1 0 0 1 89.9063 274.95)" class="st12 st5 st6">Nitrospira</text>
		<text transform="matrix(1 0 0 1 75.9193 470.49)" class="st13 st5 st6">Candidatus Nitrososphaera</text>
		<text transform="matrix(1 0 0 1 498.2329 325.99)" class="st9 st5 st6">Methylotenera</text>
		<text transform="matrix(1 0 0 1 151.5875 363.03)" class="st14 st5 st6">Pyrinomonadaceae RB41</text>
		<text transform="matrix(1 0 0 1 482.4969 308.52)" class="st9 st5 st6">Sphingobium</text>
		<text transform="matrix(1 0 0 1 420.0514 323.85)" class="st9 st5 st6">Azoarcus</text>
		<circle class="st15" cx="555.4" cy="244.7" r="2"/>
		<circle class="st16" cx="545.5" cy="232.1" r="2"/>
		<circle class="st16" cx="569.7" cy="401.1" r="2"/>
		<circle class="st16" cx="520.6" cy="229.5" r="2"/>
		<circle class="st16" cx="560.9" cy="396.9" r="2"/>
		<circle class="st16" cx="573" cy="348.6" r="2"/>
		<circle class="st16" cx="518.1" cy="359.2" r="2"/>
		<circle class="st15" cx="343.1" cy="157.7" r="2"/>
		<circle class="st16" cx="569" cy="387.3" r="2"/>
		<circle class="st16" cx="522.6" cy="178.8" r="2"/>
		<circle class="st17" cx="546.4" cy="188.5" r="2"/>
		<circle class="st16" cx="134.8" cy="294" r="2"/>
		<circle class="st16" cx="546.1" cy="206.2" r="2"/>
		<circle class="st16" cx="557" cy="352.1" r="2"/>
		<circle class="st18" cx="137.9" cy="261.2" r="2"/>
		<circle class="st19" cx="71.4" cy="465.4" r="2"/>
		<circle class="st16" cx="556.9" cy="330.6" r="2"/>
		<circle class="st20" cx="255" cy="367.6" r="2"/>
		<circle class="st16" cx="570.4" cy="301.4" r="2"/>
		<circle class="st16" cx="435.4" cy="309.5" r="2"/>
		<line class="st21" x1="450.2" y1="289.5" x2="278.4" y2="327.1"/>
		<polyline class="st21" points="281.3,324.4 278.4,327.1 282.1,328.2 		"/>
		<line class="st21" x1="450.2" y1="289.5" x2="166.1" y2="265.8"/>
		<polyline class="st21" points="169.7,264.1 166.1,265.8 169.3,268.1 		"/>
		<line class="st21" x1="450.2" y1="289.5" x2="222.7" y2="505.6"/>
		<polyline class="st21" points="223.8,501.9 222.7,505.6 226.5,504.7 		"/>
		<line class="st21" x1="450.2" y1="289.5" x2="307.4" y2="367.7"/>
		<polyline class="st21" points="309.4,364.4 307.4,367.7 311.3,367.8 		"/>
		<text transform="matrix(1 0 0 1 252.0536 331.89)" class="st22 st23">DOC</text>
		<text transform="matrix(1 0 0 1 143.84 265.58)" class="st24 st25">NO3-</text>
		<text transform="matrix(1 0 0 1 207.0618 513.4)" class="st22 st23">Mn</text>
		<text transform="matrix(1 0 0 1 290.9482 375.59)" class="st22 st23">Fe</text>
		<line class="st26" x1="46.3" y1="289.5" x2="594.7" y2="289.5"/>
		<line class="st27" x1="450.2" y1="534.4" x2="450.2" y2="139.7"/>
	</g>
</g>
<g>
	<defs>
		<rect id="SVGID_00000152238330239321438850000011929998731569723808_" width="720" height="720"/>
	</defs>
	<clipPath id="SVGID_00000033342691812867953410000005894438066591555735_">
		<use xlink:href="#SVGID_00000152238330239321438850000011929998731569723808_"  style="overflow:visible;"/>
	</clipPath>
	<g style="clip-path:url(#SVGID_00000033342691812867953410000005894438066591555735_);">
		<line class="st21" x1="46.3" y1="534.4" x2="46.3" y2="139.7"/>
		<rect x="20.2" y="448" class="st7" width="20.7" height="14.2"/>
		<text transform="matrix(1 0 0 1 20.2324 458.2998)" class="st22 st25">-0.4</text>
		<rect x="20.2" y="365.8" class="st7" width="20.7" height="14.2"/>
		<text transform="matrix(1 0 0 1 20.2324 376.0498)" class="st22 st25">-0.2</text>
		<text transform="matrix(1 0 0 1 24.2284 293.81)" class="st22 st25">0.0</text>
		<text transform="matrix(1 0 0 1 24.2284 211.57)" class="st22 st25">0.2</text>
		<line class="st29" x1="43.3" y1="454" x2="46.3" y2="454"/>
		<line class="st29" x1="43.3" y1="371.8" x2="46.3" y2="371.8"/>
		<line class="st29" x1="43.3" y1="289.5" x2="46.3" y2="289.5"/>
		<line class="st29" x1="43.3" y1="207.3" x2="46.3" y2="207.3"/>
		<line class="st21" x1="46.3" y1="534.4" x2="598.1" y2="534.4"/>
		<line class="st29" x1="97.8" y1="537.4" x2="97.8" y2="534.4"/>
		<line class="st29" x1="215.3" y1="537.4" x2="215.3" y2="534.4"/>
		<line class="st29" x1="332.8" y1="537.4" x2="332.8" y2="534.4"/>
		<line class="st29" x1="450.2" y1="537.4" x2="450.2" y2="534.4"/>
		<line class="st29" x1="567.7" y1="537.4" x2="567.7" y2="534.4"/>
		<rect x="87.4" y="538.1" class="st7" width="20.7" height="14.2"/>
		<text transform="matrix(1 0 0 1 87.4409 548.3799)" class="st22 st25">-1.5</text>
		<rect x="204.9" y="538.1" class="st7" width="20.7" height="14.2"/>
		<text transform="matrix(1 0 0 1 204.9312 548.3799)" class="st22 st25">-1.0</text>
		<rect x="322.4" y="538.1" class="st7" width="20.7" height="14.2"/>
		<text transform="matrix(1 0 0 1 322.4209 548.3799)" class="st22 st25">-0.5</text>
		<text transform="matrix(1 0 0 1 441.8992 548.38)" class="st22 st25">0.0</text>
		<text transform="matrix(1 0 0 1 559.3892 548.38)" class="st22 st25">0.5</text>
		<rect x="285.2" y="552.3" class="st7" width="74" height="14.2"/>
		<text transform="matrix(1 0 0 1 285.1665 562.6299)" class="st22 st25">CCA1(43.3%)</text>
		<rect x="4.3" y="303.4" class="st7" width="14.2" height="67.4"/>
		<text transform="matrix(6.123234e-17 -1 1 6.123234e-17 14.5889 370.7363)" class="st22 st25">CCA2(3.2%)</text>
		<rect x="610" y="270.6" class="st0" width="104" height="132.9"/>
		<text transform="matrix(1 0 0 1 616 286.54)" class="st22 st25">Phylum</text>
		<circle class="st20" cx="624.6" cy="302.5" r="5.7"/>
		<circle class="st15" cx="624.6" cy="319.8" r="5.7"/>
		<circle class="st17" cx="624.6" cy="337" r="5.7"/>
		<circle class="st19" cx="624.6" cy="354.3" r="5.7"/>
		<circle class="st18" cx="624.6" cy="371.6" r="5.7"/>
		<circle class="st16" cx="624.6" cy="388.9" r="5.7"/>
		<text transform="matrix(1 0 0 1 639.26 305.92)" class="st5 st30">Acidobacteriota</text>
		<text transform="matrix(1 0 0 1 639.26 323.2)" class="st5 st30">Actinobacteriota</text>
		<text transform="matrix(1 0 0 1 639.26 340.48)" class="st5 st30">Bacteroidota</text>
		<text transform="matrix(1 0 0 1 639.26 357.76)" class="st5 st30">Crenarchaeota</text>
		<text transform="matrix(1 0 0 1 639.26 375.04)" class="st5 st30">Nitrospirota</text>
		<text transform="matrix(1 0 0 1 639.26 392.32)" class="st5 st30">Proteobacteria</text>
		<rect x="475.3" y="569.9" class="st7" width="123.4" height="11.4"/>
		<text transform="matrix(1 0 0 1 475.2666 578.1396)" class="st8"><tspan x="0" y="0" class="st22 st30 st31">PERMANOVA(mod</tspan><tspan x="120.2" y="0" class="st22 st30">-</tspan></text>
	</g>
</g>
</svg>
