<?xml version="1.0" encoding="utf-8"?>
<!-- Generator: Adobe Illustrator 26.0.3, SVG Export Plug-In . SVG Version: 6.00 Build 0)  -->
<svg version="1.1" id="Layer_1" xmlns="http://www.w3.org/2000/svg" xmlns:xlink="http://www.w3.org/1999/xlink" x="0px" y="0px"
	 viewBox="0 0 598 756" style="enable-background:new 0 0 598 756;" xml:space="preserve">
<style type="text/css">
	.st0{fill:#FFFFFF;}
	.st1{clip-path:url(#SVGID_00000050646706912797382480000001809711102891846827_);}
	.st2{fill:#FFFFFF;stroke:#FFFFFF;stroke-width:1.16;stroke-linecap:round;stroke-linejoin:round;stroke-miterlimit:10;}
	.st3{clip-path:url(#SVGID_00000168108906790032104330000005305747469314409146_);}
	.st4{fill:#447958;}
	.st5{fill:#2C7DBC;}
	.st6{fill:#003790;}
	.st7{fill:#593F28;}
	.st8{fill:#615E90;}
	.st9{fill:#89C0DB;}
	.st10{fill:#856D56;}
	.st11{fill:#004429;}
	.st12{fill:#CBE2FF;}
	.st13{fill:none;stroke:#BEBEBE;stroke-width:1.07;stroke-linejoin:round;stroke-miterlimit:10;stroke-dasharray:5.69,5.69;}
	.st14{fill:none;stroke:#000000;stroke-width:1.07;stroke-linejoin:round;stroke-miterlimit:10;}
	.st15{clip-path:url(#SVGID_00000088834002742844321860000001536227176991950992_);}
	.st16{clip-path:url(#SVGID_00000053514158830355276480000006664532115227673534_);}
	.st17{fill:#E2D3C1;}
	.st18{fill:#8092BB;}
	.st19{fill:#B29F8A;}
	.st20{fill:#97D0A4;}
	.st21{clip-path:url(#SVGID_00000049921110466055166190000013232097995271041174_);}
	.st22{fill:#F2F2F2;stroke:#000000;stroke-width:1.49;stroke-linecap:round;stroke-linejoin:round;stroke-miterlimit:10;}
	.st23{fill:none;}
	.st24{enable-background:new    ;}
	.st25{fill:#1A1A1A;}
	.st26{font-family:'ArialMT';}
	.st27{font-size:9.6px;}
	.st28{letter-spacing:6;}
	.st29{clip-path:url(#SVGID_00000139260477036284977860000007917343725529058487_);}
	.st30{clip-path:url(#SVGID_00000151509503836076285370000017268758889593818765_);}
	.st31{letter-spacing:3;}
	.st32{clip-path:url(#SVGID_00000139281706052784567460000001719844273147902885_);}
	.st33{fill:none;stroke:#333333;stroke-width:1.16;stroke-linejoin:round;stroke-miterlimit:10;}
	.st34{font-size:12px;}
	.st35{font-family:'Arial-ItalicMT';}
	.st36{letter-spacing:4;}
	.st37{font-family:'Arial-BoldMT';}
	.st38{font-size:15px;}
</style>
<rect class="st0" width="598" height="756"/>
<g>
	<defs>
		<rect id="SVGID_1_" width="598" height="756"/>
	</defs>
	<clipPath id="SVGID_00000139268338649909619000000010965659750182181019_">
		<use xlink:href="#SVGID_1_"  style="overflow:visible;"/>
	</clipPath>
	<g style="clip-path:url(#SVGID_00000139268338649909619000000010965659750182181019_);">
		<rect class="st2" width="598" height="756"/>
	</g>
</g>
<g>
	<defs>
		<rect id="SVGID_00000026124292212570119500000001057571033420679351_" x="211.8" y="24.5" width="79.8" height="679.6"/>
	</defs>
	<clipPath id="SVGID_00000090991472535199904480000013618138863242339488_">
		<use xlink:href="#SVGID_00000026124292212570119500000001057571033420679351_"  style="overflow:visible;"/>
	</clipPath>
	<g style="clip-path:url(#SVGID_00000090991472535199904480000013618138863242339488_);">
		<rect x="211.8" y="24.5" class="st0" width="79.8" height="679.6"/>
		<rect x="248.6" y="616.2" class="st4" width="20.6" height="9.8"/>
		<rect x="248.6" y="430.5" class="st4" width="13.8" height="9.8"/>
		<rect x="248.6" y="561.6" class="st4" width="21.8" height="9.8"/>
		<rect x="248.6" y="670.8" class="st4" width="27.4" height="9.8"/>
		<rect x="242.9" y="364.9" class="st5" width="5.7" height="9.8"/>
		<rect x="248.6" y="627.1" class="st4" width="21" height="9.8"/>
		<rect x="248.6" y="474.1" class="st4" width="9.4" height="9.8"/>
		<rect x="248.6" y="441.4" class="st6" width="5.5" height="9.8"/>
		<rect x="241.5" y="343" class="st4" width="7.1" height="9.8"/>
		<rect x="248.6" y="539.7" class="st4" width="15.8" height="9.8"/>
		<rect x="248.6" y="583.4" class="st4" width="20" height="9.8"/>
		<rect x="243.2" y="266.6" class="st4" width="5.3" height="9.8"/>
		<rect x="242.2" y="211.9" class="st7" width="6.4" height="9.8"/>
		<rect x="240.4" y="354" class="st8" width="8.2" height="9.8"/>
		<rect x="248.6" y="485.1" class="st4" width="13.2" height="9.8"/>
		<rect x="248.6" y="572.5" class="st4" width="19.8" height="9.8"/>
		<rect x="248.6" y="594.3" class="st5" width="21.4" height="9.8"/>
		<rect x="237.4" y="332.1" class="st4" width="11.2" height="9.8"/>
		<rect x="243.2" y="408.6" class="st9" width="5.4" height="9.8"/>
		<rect x="248.6" y="692.7" class="st4" width="34.6" height="9.8"/>
		<rect x="248.6" y="517.9" class="st4" width="14.7" height="9.8"/>
		<rect x="236.3" y="190.1" class="st10" width="12.3" height="9.8"/>
		<rect x="248.6" y="605.3" class="st4" width="18.6" height="9.8"/>
		<rect x="237.7" y="233.8" class="st4" width="10.9" height="9.8"/>
		<rect x="248.6" y="681.8" class="st4" width="34" height="9.8"/>
		<rect x="242.3" y="419.5" class="st5" width="6.3" height="9.8"/>
		<rect x="242.6" y="310.3" class="st4" width="6.1" height="9.8"/>
		<rect x="248.6" y="506.9" class="st4" width="13.2" height="9.8"/>
		<rect x="248.6" y="649" class="st4" width="27" height="9.8"/>
		<rect x="248.6" y="452.3" class="st4" width="5.9" height="9.8"/>
		<rect x="248.6" y="659.9" class="st11" width="36.6" height="9.8"/>
		<rect x="248.6" y="496" class="st4" width="11.3" height="9.8"/>
		<rect x="240" y="255.6" class="st4" width="8.6" height="9.8"/>
		<rect x="233.2" y="113.6" class="st5" width="15.3" height="9.8"/>
		<rect x="244.8" y="321.2" class="st9" width="3.8" height="9.8"/>
		<rect x="238.8" y="299.3" class="st12" width="9.8" height="9.8"/>
		<rect x="234.6" y="157.3" class="st5" width="14" height="9.8"/>
		<rect x="241.5" y="277.5" class="st10" width="7.1" height="9.8"/>
		<rect x="248.6" y="550.6" class="st11" width="14.1" height="9.8"/>
		<rect x="238.2" y="48" class="st4" width="10.4" height="9.8"/>
		<rect x="248.6" y="463.2" class="st11" width="9.5" height="9.8"/>
		<line class="st13" x1="248.6" y1="704.2" x2="248.6" y2="24.5"/>
		<line class="st14" x1="270.6" y1="622.2" x2="270.6" y2="620"/>
		<line class="st14" x1="270.6" y1="621.1" x2="267.8" y2="621.1"/>
		<line class="st14" x1="267.8" y1="622.2" x2="267.8" y2="620"/>
		<line class="st14" x1="264.8" y1="436.5" x2="264.8" y2="434.3"/>
		<line class="st14" x1="264.8" y1="435.4" x2="259.9" y2="435.4"/>
		<line class="st14" x1="259.9" y1="436.5" x2="259.9" y2="434.3"/>
		<line class="st14" x1="272.7" y1="567.6" x2="272.7" y2="565.4"/>
		<line class="st14" x1="272.7" y1="566.5" x2="268" y2="566.5"/>
		<line class="st14" x1="268" y1="567.6" x2="268" y2="565.4"/>
		<line class="st14" x1="279.5" y1="676.8" x2="279.5" y2="674.7"/>
		<line class="st14" x1="279.5" y1="675.7" x2="272.6" y2="675.7"/>
		<line class="st14" x1="272.6" y1="676.8" x2="272.6" y2="674.7"/>
		<line class="st14" x1="243.9" y1="370.9" x2="243.9" y2="368.7"/>
		<line class="st14" x1="243.9" y1="369.8" x2="242" y2="369.8"/>
		<line class="st14" x1="242" y1="370.9" x2="242" y2="368.7"/>
		<line class="st14" x1="273.4" y1="633.1" x2="273.4" y2="630.9"/>
		<line class="st14" x1="273.4" y1="632" x2="265.9" y2="632"/>
		<line class="st14" x1="265.9" y1="633.1" x2="265.9" y2="630.9"/>
		<line class="st14" x1="260" y1="480.2" x2="260" y2="478"/>
		<line class="st14" x1="260" y1="479.1" x2="256" y2="479.1"/>
		<line class="st14" x1="256" y1="480.2" x2="256" y2="478"/>
		<line class="st14" x1="255.6" y1="447.4" x2="255.6" y2="445.2"/>
		<line class="st14" x1="255.6" y1="446.3" x2="252.6" y2="446.3"/>
		<line class="st14" x1="252.6" y1="447.4" x2="252.6" y2="445.2"/>
		<line class="st14" x1="243.2" y1="349" x2="243.2" y2="346.9"/>
		<line class="st14" x1="243.2" y1="348" x2="239.8" y2="348"/>
		<line class="st14" x1="239.8" y1="349" x2="239.8" y2="346.9"/>
		<line class="st14" x1="267.9" y1="545.7" x2="267.9" y2="543.5"/>
		<line class="st14" x1="267.9" y1="544.6" x2="261" y2="544.6"/>
		<line class="st14" x1="261" y1="545.7" x2="261" y2="543.5"/>
		<line class="st14" x1="269.9" y1="589.4" x2="269.9" y2="587.2"/>
		<line class="st14" x1="269.9" y1="588.3" x2="267.4" y2="588.3"/>
		<line class="st14" x1="267.4" y1="589.4" x2="267.4" y2="587.2"/>
		<line class="st14" x1="244.8" y1="272.6" x2="244.8" y2="270.4"/>
		<line class="st14" x1="244.8" y1="271.5" x2="241.7" y2="271.5"/>
		<line class="st14" x1="241.7" y1="272.6" x2="241.7" y2="270.4"/>
		<line class="st14" x1="243.6" y1="217.9" x2="243.6" y2="215.8"/>
		<line class="st14" x1="243.6" y1="216.9" x2="240.9" y2="216.9"/>
		<line class="st14" x1="240.9" y1="217.9" x2="240.9" y2="215.8"/>
		<line class="st14" x1="241.6" y1="360" x2="241.6" y2="357.8"/>
		<line class="st14" x1="241.6" y1="358.9" x2="239.1" y2="358.9"/>
		<line class="st14" x1="239.1" y1="360" x2="239.1" y2="357.8"/>
		<line class="st14" x1="264.7" y1="491.1" x2="264.7" y2="488.9"/>
		<line class="st14" x1="264.7" y1="490" x2="258.9" y2="490"/>
		<line class="st14" x1="258.9" y1="491.1" x2="258.9" y2="488.9"/>
		<line class="st14" x1="269.8" y1="578.5" x2="269.8" y2="576.3"/>
		<line class="st14" x1="269.8" y1="577.4" x2="267" y2="577.4"/>
		<line class="st14" x1="267" y1="578.5" x2="267" y2="576.3"/>
		<line class="st14" x1="271.9" y1="600.3" x2="271.9" y2="598.2"/>
		<line class="st14" x1="271.9" y1="599.3" x2="268.1" y2="599.3"/>
		<line class="st14" x1="268.1" y1="600.3" x2="268.1" y2="598.2"/>
		<line class="st14" x1="239.3" y1="338.1" x2="239.3" y2="335.9"/>
		<line class="st14" x1="239.3" y1="337" x2="235.6" y2="337"/>
		<line class="st14" x1="235.6" y1="338.1" x2="235.6" y2="335.9"/>
		<line class="st14" x1="244.3" y1="414.6" x2="244.3" y2="412.4"/>
		<line class="st14" x1="244.3" y1="413.5" x2="242.2" y2="413.5"/>
		<line class="st14" x1="242.2" y1="414.6" x2="242.2" y2="412.4"/>
		<line class="st14" x1="285.5" y1="698.7" x2="285.5" y2="696.5"/>
		<line class="st14" x1="285.5" y1="697.6" x2="280.8" y2="697.6"/>
		<line class="st14" x1="280.8" y1="698.7" x2="280.8" y2="696.5"/>
		<line class="st14" x1="266.7" y1="523.9" x2="266.7" y2="521.7"/>
		<line class="st14" x1="266.7" y1="522.8" x2="259.9" y2="522.8"/>
		<line class="st14" x1="259.9" y1="523.9" x2="259.9" y2="521.7"/>
		<line class="st14" x1="237.6" y1="196.1" x2="237.6" y2="193.9"/>
		<line class="st14" x1="237.6" y1="195" x2="235" y2="195"/>
		<line class="st14" x1="235" y1="196.1" x2="235" y2="193.9"/>
		<line class="st14" x1="268.8" y1="611.3" x2="268.8" y2="609.1"/>
		<line class="st14" x1="268.8" y1="610.2" x2="265.6" y2="610.2"/>
		<line class="st14" x1="265.6" y1="611.3" x2="265.6" y2="609.1"/>
		<line class="st14" x1="241" y1="239.8" x2="241" y2="237.6"/>
		<line class="st14" x1="241" y1="238.7" x2="234.4" y2="238.7"/>
		<line class="st14" x1="234.4" y1="239.8" x2="234.4" y2="237.6"/>
		<line class="st14" x1="286.2" y1="687.8" x2="286.2" y2="685.6"/>
		<line class="st14" x1="286.2" y1="686.7" x2="278.9" y2="686.7"/>
		<line class="st14" x1="278.9" y1="687.8" x2="278.9" y2="685.6"/>
		<line class="st14" x1="244" y1="425.5" x2="244" y2="423.4"/>
		<line class="st14" x1="244" y1="424.4" x2="240.6" y2="424.4"/>
		<line class="st14" x1="240.6" y1="425.5" x2="240.6" y2="423.4"/>
		<line class="st14" x1="244.1" y1="316.3" x2="244.1" y2="314.1"/>
		<line class="st14" x1="244.1" y1="315.2" x2="241" y2="315.2"/>
		<line class="st14" x1="241" y1="316.3" x2="241" y2="314.1"/>
		<line class="st14" x1="263.9" y1="512.9" x2="263.9" y2="510.8"/>
		<line class="st14" x1="263.9" y1="511.9" x2="259.7" y2="511.9"/>
		<line class="st14" x1="259.7" y1="512.9" x2="259.7" y2="510.8"/>
		<line class="st14" x1="279.8" y1="655" x2="279.8" y2="652.8"/>
		<line class="st14" x1="279.8" y1="653.9" x2="271.3" y2="653.9"/>
		<line class="st14" x1="271.3" y1="655" x2="271.3" y2="652.8"/>
		<line class="st14" x1="255.5" y1="458.3" x2="255.5" y2="456.1"/>
		<line class="st14" x1="255.5" y1="457.2" x2="253.4" y2="457.2"/>
		<line class="st14" x1="253.4" y1="458.3" x2="253.4" y2="456.1"/>
		<line class="st14" x1="288" y1="665.9" x2="288" y2="663.7"/>
		<line class="st14" x1="288" y1="664.8" x2="282.4" y2="664.8"/>
		<line class="st14" x1="282.4" y1="665.9" x2="282.4" y2="663.7"/>
		<line class="st14" x1="261.4" y1="502" x2="261.4" y2="499.8"/>
		<line class="st14" x1="261.4" y1="500.9" x2="258.4" y2="500.9"/>
		<line class="st14" x1="258.4" y1="502" x2="258.4" y2="499.8"/>
		<line class="st14" x1="241.3" y1="261.6" x2="241.3" y2="259.5"/>
		<line class="st14" x1="241.3" y1="260.5" x2="238.7" y2="260.5"/>
		<line class="st14" x1="238.7" y1="261.6" x2="238.7" y2="259.5"/>
		<line class="st14" x1="236.3" y1="119.6" x2="236.3" y2="117.4"/>
		<line class="st14" x1="236.3" y1="118.5" x2="230.2" y2="118.5"/>
		<line class="st14" x1="230.2" y1="119.6" x2="230.2" y2="117.4"/>
		<line class="st14" x1="245.8" y1="327.2" x2="245.8" y2="325"/>
		<line class="st14" x1="245.8" y1="326.1" x2="243.8" y2="326.1"/>
		<line class="st14" x1="243.8" y1="327.2" x2="243.8" y2="325"/>
		<line class="st14" x1="240.4" y1="305.4" x2="240.4" y2="303.2"/>
		<line class="st14" x1="240.4" y1="304.3" x2="237.2" y2="304.3"/>
		<line class="st14" x1="237.2" y1="305.4" x2="237.2" y2="303.2"/>
		<line class="st14" x1="238.2" y1="163.3" x2="238.2" y2="161.1"/>
		<line class="st14" x1="238.2" y1="162.2" x2="230.9" y2="162.2"/>
		<line class="st14" x1="230.9" y1="163.3" x2="230.9" y2="161.1"/>
		<line class="st14" x1="242.4" y1="283.5" x2="242.4" y2="281.3"/>
		<line class="st14" x1="242.4" y1="282.4" x2="240.6" y2="282.4"/>
		<line class="st14" x1="240.6" y1="283.5" x2="240.6" y2="281.3"/>
		<line class="st14" x1="266.5" y1="556.7" x2="266.5" y2="554.5"/>
		<line class="st14" x1="266.5" y1="555.5" x2="258.9" y2="555.5"/>
		<line class="st14" x1="258.9" y1="556.7" x2="258.9" y2="554.5"/>
		<line class="st14" x1="239.9" y1="54" x2="239.9" y2="51.9"/>
		<line class="st14" x1="239.9" y1="53" x2="236.6" y2="53"/>
		<line class="st14" x1="236.6" y1="54" x2="236.6" y2="51.9"/>
		<line class="st14" x1="259.4" y1="469.2" x2="259.4" y2="467"/>
		<line class="st14" x1="259.4" y1="468.1" x2="256.8" y2="468.1"/>
		<line class="st14" x1="256.8" y1="469.2" x2="256.8" y2="467"/>
	</g>
</g>
<g>
	<defs>
		<rect id="SVGID_00000126314374106194526950000012289611467664469903_" width="598" height="756"/>
	</defs>
	<clipPath id="SVGID_00000115489613247417725440000000495749263420847233_">
		<use xlink:href="#SVGID_00000126314374106194526950000012289611467664469903_"  style="overflow:visible;"/>
	</clipPath>
</g>
<g>
	<defs>
		<rect id="SVGID_00000157987527465321780270000002491228337306310043_" x="297.6" y="24.5" width="79.8" height="679.6"/>
	</defs>
	<clipPath id="SVGID_00000056388463190567684280000014844409113525790893_">
		<use xlink:href="#SVGID_00000157987527465321780270000002491228337306310043_"  style="overflow:visible;"/>
	</clipPath>
	<g style="clip-path:url(#SVGID_00000056388463190567684280000014844409113525790893_);">
		<rect x="297.6" y="24.5" class="st0" width="79.8" height="679.6"/>
		<rect x="334.4" y="561.6" class="st4" width="11.4" height="9.8"/>
		<line class="st13" x1="334.4" y1="704.2" x2="334.4" y2="24.5"/>
		<line class="st14" x1="349.1" y1="567.6" x2="349.1" y2="565.4"/>
		<line class="st14" x1="349.1" y1="566.5" x2="342.6" y2="566.5"/>
		<line class="st14" x1="342.6" y1="567.6" x2="342.6" y2="565.4"/>
	</g>
</g>
<g>
	<defs>
		<rect id="SVGID_00000160171725213887813180000000584889629219375519_" width="598" height="756"/>
	</defs>
	<clipPath id="SVGID_00000069356849534153255560000018237243312412779705_">
		<use xlink:href="#SVGID_00000160171725213887813180000000584889629219375519_"  style="overflow:visible;"/>
	</clipPath>
</g>
<g>
	<defs>
		<rect id="SVGID_00000018196452908679396060000014899964670763006370_" x="383.4" y="24.5" width="79.8" height="679.6"/>
	</defs>
	<clipPath id="SVGID_00000088825311434347115950000004133679526370609810_">
		<use xlink:href="#SVGID_00000018196452908679396060000014899964670763006370_"  style="overflow:visible;"/>
	</clipPath>
	<g style="clip-path:url(#SVGID_00000088825311434347115950000004133679526370609810_);">
		<rect x="383.4" y="24.5" class="st0" width="79.8" height="679.6"/>
		<rect x="420.2" y="616.2" class="st4" width="21.2" height="9.8"/>
		<rect x="413.5" y="430.5" class="st4" width="6.7" height="9.8"/>
		<rect x="420.2" y="670.8" class="st4" width="28.9" height="9.8"/>
		<rect x="409.6" y="364.9" class="st5" width="10.7" height="9.8"/>
		<rect x="420.2" y="474.1" class="st4" width="11.8" height="9.8"/>
		<rect x="410.6" y="343" class="st4" width="9.7" height="9.8"/>
		<rect x="405.3" y="266.6" class="st4" width="14.9" height="9.8"/>
		<rect x="405.9" y="146.4" class="st17" width="14.4" height="9.8"/>
		<rect x="403.4" y="211.9" class="st7" width="16.8" height="9.8"/>
		<rect x="420.2" y="485.1" class="st4" width="8.3" height="9.8"/>
		<rect x="420.2" y="594.3" class="st5" width="19.1" height="9.8"/>
		<rect x="414.2" y="332.1" class="st4" width="6" height="9.8"/>
		<rect x="407.5" y="179.1" class="st4" width="12.8" height="9.8"/>
		<rect x="412.2" y="408.6" class="st9" width="8" height="9.8"/>
		<rect x="408.3" y="201" class="st4" width="11.9" height="9.8"/>
		<rect x="420.2" y="528.8" class="st4" width="15.7" height="9.8"/>
		<rect x="395.3" y="37.1" class="st8" width="25" height="9.8"/>
		<rect x="420.2" y="605.3" class="st4" width="22.9" height="9.8"/>
		<rect x="405" y="124.5" class="st4" width="15.2" height="9.8"/>
		<rect x="408.2" y="310.3" class="st4" width="12.1" height="9.8"/>
		<rect x="407.3" y="168.2" class="st18" width="13" height="9.8"/>
		<rect x="409.8" y="244.7" class="st19" width="10.5" height="9.8"/>
		<rect x="420.2" y="638" class="st4" width="26.5" height="9.8"/>
		<rect x="420.2" y="659.9" class="st11" width="19.3" height="9.8"/>
		<rect x="408.7" y="222.9" class="st4" width="11.5" height="9.8"/>
		<rect x="393.8" y="26.2" class="st4" width="26.5" height="9.8"/>
		<rect x="413.5" y="397.7" class="st11" width="6.8" height="9.8"/>
		<rect x="408.6" y="255.6" class="st4" width="11.6" height="9.8"/>
		<rect x="401.4" y="69.9" class="st4" width="18.9" height="9.8"/>
		<rect x="403.9" y="91.7" class="st4" width="16.4" height="9.8"/>
		<rect x="405.6" y="135.4" class="st6" width="14.6" height="9.8"/>
		<rect x="412.8" y="375.8" class="st17" width="7.4" height="9.8"/>
		<rect x="406.6" y="321.2" class="st9" width="13.6" height="9.8"/>
		<rect x="401.4" y="80.8" class="st9" width="18.8" height="9.8"/>
		<rect x="407.4" y="277.5" class="st10" width="12.8" height="9.8"/>
		<rect x="420.2" y="550.6" class="st11" width="18" height="9.8"/>
		<rect x="404.1" y="102.7" class="st8" width="16.1" height="9.8"/>
		<rect x="412.9" y="386.8" class="st11" width="7.4" height="9.8"/>
		<rect x="400.3" y="59" class="st20" width="19.9" height="9.8"/>
		<rect x="389.6" y="48" class="st4" width="30.6" height="9.8"/>
		<rect x="410.3" y="288.4" class="st4" width="9.9" height="9.8"/>
		<line class="st13" x1="420.2" y1="704.2" x2="420.2" y2="24.5"/>
		<line class="st14" x1="443.5" y1="622.2" x2="443.5" y2="620"/>
		<line class="st14" x1="443.5" y1="621.1" x2="439.4" y2="621.1"/>
		<line class="st14" x1="439.4" y1="622.2" x2="439.4" y2="620"/>
		<line class="st14" x1="415.2" y1="436.5" x2="415.2" y2="434.3"/>
		<line class="st14" x1="415.2" y1="435.4" x2="411.8" y2="435.4"/>
		<line class="st14" x1="411.8" y1="436.5" x2="411.8" y2="434.3"/>
		<line class="st14" x1="452.1" y1="676.8" x2="452.1" y2="674.7"/>
		<line class="st14" x1="452.1" y1="675.7" x2="446.1" y2="675.7"/>
		<line class="st14" x1="446.1" y1="676.8" x2="446.1" y2="674.7"/>
		<line class="st14" x1="410.7" y1="370.9" x2="410.7" y2="368.7"/>
		<line class="st14" x1="410.7" y1="369.8" x2="408.4" y2="369.8"/>
		<line class="st14" x1="408.4" y1="370.9" x2="408.4" y2="368.7"/>
		<line class="st14" x1="434.4" y1="480.2" x2="434.4" y2="478"/>
		<line class="st14" x1="434.4" y1="479.1" x2="429.7" y2="479.1"/>
		<line class="st14" x1="429.7" y1="480.2" x2="429.7" y2="478"/>
		<line class="st14" x1="411.6" y1="349" x2="411.6" y2="346.9"/>
		<line class="st14" x1="411.6" y1="348" x2="409.5" y2="348"/>
		<line class="st14" x1="409.5" y1="349" x2="409.5" y2="346.9"/>
		<line class="st14" x1="409.1" y1="272.6" x2="409.1" y2="270.4"/>
		<line class="st14" x1="409.1" y1="271.5" x2="401.6" y2="271.5"/>
		<line class="st14" x1="401.6" y1="272.6" x2="401.6" y2="270.4"/>
		<line class="st14" x1="409.2" y1="152.4" x2="409.2" y2="150.2"/>
		<line class="st14" x1="409.2" y1="151.3" x2="402.5" y2="151.3"/>
		<line class="st14" x1="402.5" y1="152.4" x2="402.5" y2="150.2"/>
		<line class="st14" x1="404.4" y1="217.9" x2="404.4" y2="215.8"/>
		<line class="st14" x1="404.4" y1="216.9" x2="402.4" y2="216.9"/>
		<line class="st14" x1="402.4" y1="217.9" x2="402.4" y2="215.8"/>
		<line class="st14" x1="431" y1="491.1" x2="431" y2="488.9"/>
		<line class="st14" x1="431" y1="490" x2="426" y2="490"/>
		<line class="st14" x1="426" y1="491.1" x2="426" y2="488.9"/>
		<line class="st14" x1="442.4" y1="600.3" x2="442.4" y2="598.2"/>
		<line class="st14" x1="442.4" y1="599.3" x2="436.2" y2="599.3"/>
		<line class="st14" x1="436.2" y1="600.3" x2="436.2" y2="598.2"/>
		<line class="st14" x1="415.6" y1="338.1" x2="415.6" y2="335.9"/>
		<line class="st14" x1="415.6" y1="337" x2="412.8" y2="337"/>
		<line class="st14" x1="412.8" y1="338.1" x2="412.8" y2="335.9"/>
		<line class="st14" x1="409.4" y1="185.2" x2="409.4" y2="183"/>
		<line class="st14" x1="409.4" y1="184.1" x2="405.6" y2="184.1"/>
		<line class="st14" x1="405.6" y1="185.2" x2="405.6" y2="183"/>
		<line class="st14" x1="413.7" y1="414.6" x2="413.7" y2="412.4"/>
		<line class="st14" x1="413.7" y1="413.5" x2="410.7" y2="413.5"/>
		<line class="st14" x1="410.7" y1="414.6" x2="410.7" y2="412.4"/>
		<line class="st14" x1="410.5" y1="207" x2="410.5" y2="204.8"/>
		<line class="st14" x1="410.5" y1="205.9" x2="406.1" y2="205.9"/>
		<line class="st14" x1="406.1" y1="207" x2="406.1" y2="204.8"/>
		<line class="st14" x1="438" y1="534.8" x2="438" y2="532.6"/>
		<line class="st14" x1="438" y1="533.7" x2="434" y2="533.7"/>
		<line class="st14" x1="434" y1="534.8" x2="434" y2="532.6"/>
		<line class="st14" x1="397.2" y1="43.1" x2="397.2" y2="40.9"/>
		<line class="st14" x1="397.2" y1="42" x2="393.3" y2="42"/>
		<line class="st14" x1="393.3" y1="43.1" x2="393.3" y2="40.9"/>
		<line class="st14" x1="446.7" y1="611.3" x2="446.7" y2="609.1"/>
		<line class="st14" x1="446.7" y1="610.2" x2="439.6" y2="610.2"/>
		<line class="st14" x1="439.6" y1="611.3" x2="439.6" y2="609.1"/>
		<line class="st14" x1="408.3" y1="130.5" x2="408.3" y2="128.4"/>
		<line class="st14" x1="408.3" y1="129.4" x2="401.8" y2="129.4"/>
		<line class="st14" x1="401.8" y1="130.5" x2="401.8" y2="128.4"/>
		<line class="st14" x1="410.1" y1="316.3" x2="410.1" y2="314.1"/>
		<line class="st14" x1="410.1" y1="315.2" x2="406.2" y2="315.2"/>
		<line class="st14" x1="406.2" y1="316.3" x2="406.2" y2="314.1"/>
		<line class="st14" x1="410.3" y1="174.2" x2="410.3" y2="172.1"/>
		<line class="st14" x1="410.3" y1="173.1" x2="404.2" y2="173.1"/>
		<line class="st14" x1="404.2" y1="174.2" x2="404.2" y2="172.1"/>
		<line class="st14" x1="412.8" y1="250.7" x2="412.8" y2="248.5"/>
		<line class="st14" x1="412.8" y1="249.6" x2="406.7" y2="249.6"/>
		<line class="st14" x1="406.7" y1="250.7" x2="406.7" y2="248.5"/>
		<line class="st14" x1="448.7" y1="644" x2="448.7" y2="641.9"/>
		<line class="st14" x1="448.7" y1="643" x2="444.7" y2="643"/>
		<line class="st14" x1="444.7" y1="644" x2="444.7" y2="641.9"/>
		<line class="st14" x1="442.4" y1="665.9" x2="442.4" y2="663.7"/>
		<line class="st14" x1="442.4" y1="664.8" x2="436.7" y2="664.8"/>
		<line class="st14" x1="436.7" y1="665.9" x2="436.7" y2="663.7"/>
		<line class="st14" x1="411.7" y1="228.9" x2="411.7" y2="226.7"/>
		<line class="st14" x1="411.7" y1="227.8" x2="405.7" y2="227.8"/>
		<line class="st14" x1="405.7" y1="228.9" x2="405.7" y2="226.7"/>
		<line class="st14" x1="396.8" y1="32.2" x2="396.8" y2="30"/>
		<line class="st14" x1="396.8" y1="31.1" x2="390.8" y2="31.1"/>
		<line class="st14" x1="390.8" y1="32.2" x2="390.8" y2="30"/>
		<line class="st14" x1="414.8" y1="403.7" x2="414.8" y2="401.5"/>
		<line class="st14" x1="414.8" y1="402.6" x2="412.1" y2="402.6"/>
		<line class="st14" x1="412.1" y1="403.7" x2="412.1" y2="401.5"/>
		<line class="st14" x1="410.3" y1="261.6" x2="410.3" y2="259.5"/>
		<line class="st14" x1="410.3" y1="260.5" x2="406.9" y2="260.5"/>
		<line class="st14" x1="406.9" y1="261.6" x2="406.9" y2="259.5"/>
		<line class="st14" x1="405" y1="75.9" x2="405" y2="73.7"/>
		<line class="st14" x1="405" y1="74.8" x2="397.7" y2="74.8"/>
		<line class="st14" x1="397.7" y1="75.9" x2="397.7" y2="73.7"/>
		<line class="st14" x1="406.6" y1="97.8" x2="406.6" y2="95.6"/>
		<line class="st14" x1="406.6" y1="96.7" x2="401.1" y2="96.7"/>
		<line class="st14" x1="401.1" y1="97.8" x2="401.1" y2="95.6"/>
		<line class="st14" x1="407.8" y1="141.5" x2="407.8" y2="139.3"/>
		<line class="st14" x1="407.8" y1="140.4" x2="403.5" y2="140.4"/>
		<line class="st14" x1="403.5" y1="141.5" x2="403.5" y2="139.3"/>
		<line class="st14" x1="414.9" y1="381.8" x2="414.9" y2="379.6"/>
		<line class="st14" x1="414.9" y1="380.7" x2="410.8" y2="380.7"/>
		<line class="st14" x1="410.8" y1="381.8" x2="410.8" y2="379.6"/>
		<line class="st14" x1="408.8" y1="327.2" x2="408.8" y2="325"/>
		<line class="st14" x1="408.8" y1="326.1" x2="404.4" y2="326.1"/>
		<line class="st14" x1="404.4" y1="327.2" x2="404.4" y2="325"/>
		<line class="st14" x1="404.1" y1="86.8" x2="404.1" y2="84.6"/>
		<line class="st14" x1="404.1" y1="85.7" x2="398.6" y2="85.7"/>
		<line class="st14" x1="398.6" y1="86.8" x2="398.6" y2="84.6"/>
		<line class="st14" x1="409.2" y1="283.5" x2="409.2" y2="281.3"/>
		<line class="st14" x1="409.2" y1="282.4" x2="405.7" y2="282.4"/>
		<line class="st14" x1="405.7" y1="283.5" x2="405.7" y2="281.3"/>
		<line class="st14" x1="441.9" y1="556.7" x2="441.9" y2="554.5"/>
		<line class="st14" x1="441.9" y1="555.5" x2="434.5" y2="555.5"/>
		<line class="st14" x1="434.5" y1="556.7" x2="434.5" y2="554.5"/>
		<line class="st14" x1="405.7" y1="108.7" x2="405.7" y2="106.5"/>
		<line class="st14" x1="405.7" y1="107.6" x2="402.5" y2="107.6"/>
		<line class="st14" x1="402.5" y1="108.7" x2="402.5" y2="106.5"/>
		<line class="st14" x1="413.5" y1="392.8" x2="413.5" y2="390.6"/>
		<line class="st14" x1="413.5" y1="391.7" x2="412.2" y2="391.7"/>
		<line class="st14" x1="412.2" y1="392.8" x2="412.2" y2="390.6"/>
		<line class="st14" x1="402.4" y1="65" x2="402.4" y2="62.8"/>
		<line class="st14" x1="402.4" y1="63.9" x2="398.2" y2="63.9"/>
		<line class="st14" x1="398.2" y1="65" x2="398.2" y2="62.8"/>
		<line class="st14" x1="392.1" y1="54" x2="392.1" y2="51.9"/>
		<line class="st14" x1="392.1" y1="53" x2="387.1" y2="53"/>
		<line class="st14" x1="387.1" y1="54" x2="387.1" y2="51.9"/>
		<line class="st14" x1="411.2" y1="294.4" x2="411.2" y2="292.2"/>
		<line class="st14" x1="411.2" y1="293.3" x2="409.4" y2="293.3"/>
		<line class="st14" x1="409.4" y1="294.4" x2="409.4" y2="292.2"/>
	</g>
</g>
<g>
	<defs>
		<rect id="SVGID_00000106848979626200702340000014710678938185500816_" width="598" height="756"/>
	</defs>
	<clipPath id="SVGID_00000015336138029898448970000013911312182144318115_">
		<use xlink:href="#SVGID_00000106848979626200702340000014710678938185500816_"  style="overflow:visible;"/>
	</clipPath>
</g>
<g>
	<defs>
		<rect id="SVGID_00000109731494834411606570000012522160151633124500_" x="211.8" y="6" width="79.8" height="18.6"/>
	</defs>
	<clipPath id="SVGID_00000111173505347455746860000001305694944265984922_">
		<use xlink:href="#SVGID_00000109731494834411606570000012522160151633124500_"  style="overflow:visible;"/>
	</clipPath>
	<g style="clip-path:url(#SVGID_00000111173505347455746860000001305694944265984922_);">
		<rect x="211.8" y="6" class="st22" width="79.8" height="18.6"/>
		<rect x="241.8" y="10.5" class="st23" width="19.7" height="11.4"/>
		<text transform="matrix(1 0 0 1 241.8403 18.7002)" class="st24"><tspan x="0" y="0" class="st25 st26 st27 st28">H</tspan><tspan x="13.3" y="0" class="st25 st26 st27">S</tspan></text>
	</g>
</g>
<g>
	<defs>
		<rect id="SVGID_00000032610896812866066210000016257581218465259944_" width="598" height="756"/>
	</defs>
	<clipPath id="SVGID_00000053517972367770598560000002003271866170637454_">
		<use xlink:href="#SVGID_00000032610896812866066210000016257581218465259944_"  style="overflow:visible;"/>
	</clipPath>
</g>
<g>
	<defs>
		<rect id="SVGID_00000119111664910727575570000003635288465052570275_" x="297.6" y="6" width="79.8" height="18.6"/>
	</defs>
	<clipPath id="SVGID_00000092446350455491441500000003147915667034409646_">
		<use xlink:href="#SVGID_00000119111664910727575570000003635288465052570275_"  style="overflow:visible;"/>
	</clipPath>
	<g style="clip-path:url(#SVGID_00000092446350455491441500000003147915667034409646_);">
		<rect x="297.6" y="6" class="st22" width="79.8" height="18.6"/>
		<text transform="matrix(1 0 0 1 327.94 18.7)" class="st25 st26 st27">KTR</text>
	</g>
</g>
<g>
	<defs>
		<rect id="SVGID_00000067916313506198802220000007381089468816228511_" width="598" height="756"/>
	</defs>
	<clipPath id="SVGID_00000034089040223553352400000008696656757597303174_">
		<use xlink:href="#SVGID_00000067916313506198802220000007381089468816228511_"  style="overflow:visible;"/>
	</clipPath>
</g>
<g>
	<defs>
		<rect id="SVGID_00000063592459053954414850000017367668079639336887_" x="383.4" y="6" width="79.8" height="18.6"/>
	</defs>
	<clipPath id="SVGID_00000098192024705988069780000006958368704140119203_">
		<use xlink:href="#SVGID_00000063592459053954414850000017367668079639336887_"  style="overflow:visible;"/>
	</clipPath>
	<g style="clip-path:url(#SVGID_00000098192024705988069780000006958368704140119203_);">
		<rect x="383.4" y="6" class="st22" width="79.8" height="18.6"/>
		<rect x="411.2" y="10.5" class="st23" width="25.1" height="11.4"/>
		<text transform="matrix(1 0 0 1 411.1797 18.7002)" class="st24"><tspan x="0" y="0" class="st25 st26 st27 st31">KT</tspan><tspan x="18.7" y="0" class="st25 st26 st27">Y</tspan></text>
	</g>
</g>
<g>
	<defs>
		<rect id="SVGID_00000021822900887861078750000006848903160449059743_" width="598" height="756"/>
	</defs>
	<clipPath id="SVGID_00000160165453397621543070000005236869221751830706_">
		<use xlink:href="#SVGID_00000021822900887861078750000006848903160449059743_"  style="overflow:visible;"/>
	</clipPath>
	<g style="clip-path:url(#SVGID_00000160165453397621543070000005236869221751830706_);">
		<line class="st14" x1="211.8" y1="704.2" x2="291.6" y2="704.2"/>
		<line class="st33" x1="229.7" y1="707.1" x2="229.7" y2="704.2"/>
		<line class="st33" x1="248.6" y1="707.1" x2="248.6" y2="704.2"/>
		<line class="st33" x1="267.5" y1="707.1" x2="267.5" y2="704.2"/>
		<line class="st33" x1="286.3" y1="707.1" x2="286.3" y2="704.2"/>
		<rect x="224.4" y="707.8" class="st23" width="10.7" height="14.2"/>
		<text transform="matrix(1 0 0 1 224.4053 718.1396)" class="st26 st34">-5</text>
		<text transform="matrix(1 0 0 1 245.2531 718.14)" class="st26 st34">0</text>
		<text transform="matrix(1 0 0 1 264.1131 718.14)" class="st26 st34">5</text>
		<rect x="279.6" y="707.8" class="st23" width="13.4" height="14.2"/>
		<text transform="matrix(1 0 0 1 279.626 718.1396)" class="st26 st34">10</text>
		<line class="st14" x1="297.6" y1="704.2" x2="377.5" y2="704.2"/>
		<line class="st33" x1="315.6" y1="707.1" x2="315.6" y2="704.2"/>
		<line class="st33" x1="334.4" y1="707.1" x2="334.4" y2="704.2"/>
		<line class="st33" x1="353.3" y1="707.1" x2="353.3" y2="704.2"/>
		<line class="st33" x1="372.1" y1="707.1" x2="372.1" y2="704.2"/>
		<rect x="310.2" y="707.8" class="st23" width="10.7" height="14.2"/>
		<text transform="matrix(1 0 0 1 310.2251 718.1396)" class="st26 st34">-5</text>
		<text transform="matrix(1 0 0 1 331.0731 718.14)" class="st26 st34">0</text>
		<text transform="matrix(1 0 0 1 349.9331 718.14)" class="st26 st34">5</text>
		<rect x="365.4" y="707.8" class="st23" width="13.4" height="14.2"/>
		<text transform="matrix(1 0 0 1 365.4463 718.1396)" class="st26 st34">10</text>
		<line class="st14" x1="383.4" y1="704.2" x2="463.3" y2="704.2"/>
		<line class="st33" x1="401.4" y1="707.1" x2="401.4" y2="704.2"/>
		<line class="st33" x1="420.2" y1="707.1" x2="420.2" y2="704.2"/>
		<line class="st33" x1="439.1" y1="707.1" x2="439.1" y2="704.2"/>
		<line class="st33" x1="458" y1="707.1" x2="458" y2="704.2"/>
		<rect x="396" y="707.8" class="st23" width="10.7" height="14.2"/>
		<text transform="matrix(1 0 0 1 396.0449 718.1396)" class="st26 st34">-5</text>
		<text transform="matrix(1 0 0 1 416.9031 718.14)" class="st26 st34">0</text>
		<text transform="matrix(1 0 0 1 435.7531 718.14)" class="st26 st34">5</text>
		<rect x="451.3" y="707.8" class="st23" width="13.4" height="14.2"/>
		<text transform="matrix(1 0 0 1 451.2764 718.1396)" class="st26 st34">10</text>
		<line class="st14" x1="211.8" y1="704.2" x2="211.8" y2="24.5"/>
		<text transform="matrix(1 0 0 1 111.037 701.89)" class="st35 st34">Altererythrobacter</text>
		<text transform="matrix(1 0 0 1 149.4979 690.97)" class="st35 st34">Variovorax</text>
		<rect x="135.3" y="669.7" class="st23" width="72" height="14.2"/>
		<text transform="matrix(1 0 0 1 135.2773 680.04)" class="st24"><tspan x="0" y="0" class="st35 st34 st36">Tropici</tspan><tspan x="68" y="0" class="st35 st34">-</tspan></text>
		<text transform="matrix(1 0 0 1 155.0643 669.12)" class="st35 st34">Brevifollis</text>
		<text transform="matrix(1 0 0 1 139.0389 658.19)" class="st35 st34">Caenimonas</text>
		<text transform="matrix(1 0 0 1 156.3885 647.26)" class="st35 st34">Azoarcus</text>
		<text transform="matrix(1 0 0 1 83.0174 636.34)" class="st35 st34">Methylophilaceae MM2</text>
		<rect x="110.4" y="615.1" class="st23" width="96.1" height="14.2"/>
		<text transform="matrix(1 0 0 1 110.3516 625.4102)" class="st35 st34">Novosphingobium</text>
		<rect x="136.4" y="604.2" class="st23" width="70.1" height="14.2"/>
		<text transform="matrix(1 0 0 1 136.3613 614.4902)" class="st35 st34">Sphingobium</text>
		<text transform="matrix(1 0 0 1 124.3905 603.56)" class="st35 st34">Microbacterium</text>
		<text transform="matrix(1 0 0 1 151.7127 592.63)" class="st35 st34">Xylophilus</text>
		<rect x="113.7" y="571.4" class="st23" width="92.8" height="14.2"/>
		<text transform="matrix(1 0 0 1 113.6621 581.71)" class="st35 st34">Pseudoduganella</text>
		<text transform="matrix(1 0 0 1 135.7049 570.78)" class="st35 st34">Polaromonas</text>
		<text transform="matrix(1 0 0 1 119.0291 559.86)" class="st35 st34">Prosthecobacter</text>
		<text transform="matrix(1 0 0 1 107.7088 548.93)" class="st35 st34">Noviherbaspirillum</text>
		<rect x="163.7" y="527.7" class="st23" width="42.7" height="14.2"/>
		<text transform="matrix(1 0 0 1 163.7129 538)" class="st35 st34">Shinella</text>
		<text transform="matrix(1 0 0 1 147.0487 527.08)" class="st35 st34">Acidovorax</text>
		<text transform="matrix(1 0 0 1 163.0565 516.15)" class="st35 st34">Devosia</text>
		<text transform="matrix(1 0 0 1 142.3905 505.23)" class="st35 st34">Ramlibacter</text>
		<text transform="matrix(1 0 0 1 130.367 494.3)" class="st35 st34">Methylotenera</text>
		<text transform="matrix(1 0 0 1 128.3573 483.37)" class="st35 st34">Limnohabitans</text>
		<text transform="matrix(1 0 0 1 125.0233 472.45)" class="st35 st34">Chthoniobacter</text>
		<rect x="168.4" y="451.2" class="st23" width="38" height="14.2"/>
		<text transform="matrix(1 0 0 1 168.3828 461.5195)" class="st35 st34">Dongia</text>
		<text transform="matrix(1 0 0 1 124.3788 450.6)" class="st35 st34">Flavobacterium</text>
		<text transform="matrix(1 0 0 1 129.6932 439.67)" class="st35 st34">Pseudomonas</text>
		<text transform="matrix(1 0 0 1 133.0506 428.74)" class="st35 st34">Streptomyces</text>
		<rect x="69.7" y="407.5" class="st23" width="136.8" height="14.2"/>
		<text transform="matrix(1 0 0 1 69.6582 417.8203)" class="st35 st34">Pyrinomonadaceae RB41</text>
		<text transform="matrix(1 0 0 1 73.6717 406.89)" class="st35 st34">Candidatus Omnitrophus</text>
		<text transform="matrix(1 0 0 1 161.7206 395.97)" class="st35 st34">Opitutus</text>
		<text transform="matrix(1 0 0 1 135.6991 385.04)" class="st35 st34">Paenibacillus</text>
		<text transform="matrix(1 0 0 1 169.0565 374.11)" class="st35 st34">Gaiella</text>
		<rect x="61" y="352.9" class="st23" width="145.4" height="14.2"/>
		<text transform="matrix(1 0 0 1 60.9922 363.1904)" class="st35 st34">Candidatus Nitrososphaera</text>
		<text transform="matrix(1 0 0 1 61.6776 352.26)" class="st35 st34">Nitrosomonadaceae MND1</text>
		<text transform="matrix(1 0 0 1 133.701 341.34)" class="st35 st34">Pseudolabrys</text>
		<text transform="matrix(1 0 0 1 89.0057 330.41)" class="st35 st34">Candidatus Solibacter</text>
		<text transform="matrix(1 0 0 1 135.6873 319.48)" class="st35 st34">Rhodoplanes</text>
		<text transform="matrix(1 0 0 1 144.3768 308.56)" class="st35 st34">Bdellovibrio</text>
		<text transform="matrix(1 0 0 1 149.0467 297.63)" class="st35 st34">Reyranella</text>
		<rect x="146.4" y="276.4" class="st23" width="60" height="14.2"/>
		<text transform="matrix(1 0 0 1 146.3809 286.71)" class="st35 st34">Haliangium</text>
		<text transform="matrix(1 0 0 1 66.9979 275.78)" class="st35 st34">Nitrosomonadaceae IS-44</text>
		<text transform="matrix(1 0 0 1 166.3788 264.85)" class="st35 st34">Bauldia</text>
		<text transform="matrix(1 0 0 1 121.7186 253.93)" class="st35 st34">Gemmatimonas</text>
		<rect x="114.3" y="232.7" class="st23" width="92.1" height="14.2"/>
		<text transform="matrix(1 0 0 1 114.3359 243)" class="st35 st34">Hydrogenophaga</text>
		<text transform="matrix(1 0 0 1 119.7088 232.07)" class="st35 st34">Polycyclovorans</text>
		<text transform="matrix(1 0 0 1 155.0643 221.15)" class="st35 st34">Nitrospira</text>
		<text transform="matrix(1 0 0 1 123.0428 210.22)" class="st35 st34">Pedomicrobium</text>
		<text transform="matrix(1 0 0 1 105.6932 199.3)" class="st35 st34">Anaeromyxobacter</text>
		<text transform="matrix(1 0 0 1 46.3084 188.37)" class="st35 st34">Nitrosomonadaceae Ellin6067</text>
		<text transform="matrix(1 0 0 1 66.3358 177.44)" class="st35 st34">Anaerolineaceae UTCFX1</text>
		<text transform="matrix(1 0 0 1 125.035 166.52)" class="st35 st34">Solirubrobacter</text>
		<text transform="matrix(1 0 0 1 165.0604 155.59)" class="st35 st34">Bacillus</text>
		<rect x="146.8" y="134.4" class="st23" width="60.7" height="14.2"/>
		<text transform="matrix(1 0 0 1 146.832 144.6699)" class="st24"><tspan x="0" y="0" class="st35 st34 st28">Terri</tspan><tspan x="56.7" y="0" class="st35 st34">-</tspan></text>
		<text transform="matrix(1 0 0 1 126.3534 133.74)" class="st35 st34">Sphingomonas</text>
		<text transform="matrix(1 0 0 1 135.7049 122.81)" class="st35 st34">Conexibacter</text>
		<text transform="matrix(1 0 0 1 72.3358 111.89)" class="st35 st34">Candidatus Nitrosotenuis</text>
		<text transform="matrix(1 0 0 1 110.3573 100.96)" class="st35 st34">Phenylobacterium</text>
		<text transform="matrix(1 0 0 1 148.3846 90.04)" class="st35 st34">Bryobacter</text>
		<text transform="matrix(1 0 0 1 58.3202 79.11)" class="st35 st34">Hyphomonadaceae SWB02</text>
		<text transform="matrix(1 0 0 1 163.7245 68.18)" class="st35 st34">Pirellula</text>
		<text transform="matrix(1 0 0 1 132.3827 57.26)" class="st35 st34">Nitrosomonas</text>
		<text transform="matrix(1 0 0 1 121.7127 46.33)" class="st35 st34">Nitrosarchaeum</text>
		<text transform="matrix(1 0 0 1 147.9276 35.41)" class="st35 st34">Lysobacter</text>
		<line class="st33" x1="208.8" y1="697.6" x2="211.8" y2="697.6"/>
		<line class="st33" x1="208.8" y1="686.7" x2="211.8" y2="686.7"/>
		<line class="st33" x1="208.8" y1="675.7" x2="211.8" y2="675.7"/>
		<line class="st33" x1="208.8" y1="664.8" x2="211.8" y2="664.8"/>
		<line class="st33" x1="208.8" y1="653.9" x2="211.8" y2="653.9"/>
		<line class="st33" x1="208.8" y1="643" x2="211.8" y2="643"/>
		<line class="st33" x1="208.8" y1="632" x2="211.8" y2="632"/>
		<line class="st33" x1="208.8" y1="621.1" x2="211.8" y2="621.1"/>
		<line class="st33" x1="208.8" y1="610.2" x2="211.8" y2="610.2"/>
		<line class="st33" x1="208.8" y1="599.3" x2="211.8" y2="599.3"/>
		<line class="st33" x1="208.8" y1="588.3" x2="211.8" y2="588.3"/>
		<line class="st33" x1="208.8" y1="577.4" x2="211.8" y2="577.4"/>
		<line class="st33" x1="208.8" y1="566.5" x2="211.8" y2="566.5"/>
		<line class="st33" x1="208.8" y1="555.5" x2="211.8" y2="555.5"/>
		<line class="st33" x1="208.8" y1="544.6" x2="211.8" y2="544.6"/>
		<line class="st33" x1="208.8" y1="533.7" x2="211.8" y2="533.7"/>
		<line class="st33" x1="208.8" y1="522.8" x2="211.8" y2="522.8"/>
		<line class="st33" x1="208.8" y1="511.9" x2="211.8" y2="511.9"/>
		<line class="st33" x1="208.8" y1="500.9" x2="211.8" y2="500.9"/>
		<line class="st33" x1="208.8" y1="490" x2="211.8" y2="490"/>
		<line class="st33" x1="208.8" y1="479.1" x2="211.8" y2="479.1"/>
		<line class="st33" x1="208.8" y1="468.1" x2="211.8" y2="468.1"/>
		<line class="st33" x1="208.8" y1="457.2" x2="211.8" y2="457.2"/>
		<line class="st33" x1="208.8" y1="446.3" x2="211.8" y2="446.3"/>
		<line class="st33" x1="208.8" y1="435.4" x2="211.8" y2="435.4"/>
		<line class="st33" x1="208.8" y1="424.4" x2="211.8" y2="424.4"/>
		<line class="st33" x1="208.8" y1="413.5" x2="211.8" y2="413.5"/>
		<line class="st33" x1="208.8" y1="402.6" x2="211.8" y2="402.6"/>
		<line class="st33" x1="208.8" y1="391.7" x2="211.8" y2="391.7"/>
		<line class="st33" x1="208.8" y1="380.7" x2="211.8" y2="380.7"/>
		<line class="st33" x1="208.8" y1="369.8" x2="211.8" y2="369.8"/>
		<line class="st33" x1="208.8" y1="358.9" x2="211.8" y2="358.9"/>
		<line class="st33" x1="208.8" y1="348" x2="211.8" y2="348"/>
		<line class="st33" x1="208.8" y1="337" x2="211.8" y2="337"/>
		<line class="st33" x1="208.8" y1="326.1" x2="211.8" y2="326.1"/>
		<line class="st33" x1="208.8" y1="315.2" x2="211.8" y2="315.2"/>
		<line class="st33" x1="208.8" y1="304.3" x2="211.8" y2="304.3"/>
		<line class="st33" x1="208.8" y1="293.3" x2="211.8" y2="293.3"/>
		<line class="st33" x1="208.8" y1="282.4" x2="211.8" y2="282.4"/>
		<line class="st33" x1="208.8" y1="271.5" x2="211.8" y2="271.5"/>
		<line class="st33" x1="208.8" y1="260.5" x2="211.8" y2="260.5"/>
		<line class="st33" x1="208.8" y1="249.6" x2="211.8" y2="249.6"/>
		<line class="st33" x1="208.8" y1="238.7" x2="211.8" y2="238.7"/>
		<line class="st33" x1="208.8" y1="227.8" x2="211.8" y2="227.8"/>
		<line class="st33" x1="208.8" y1="216.9" x2="211.8" y2="216.9"/>
		<line class="st33" x1="208.8" y1="205.9" x2="211.8" y2="205.9"/>
		<line class="st33" x1="208.8" y1="195" x2="211.8" y2="195"/>
		<line class="st33" x1="208.8" y1="184.1" x2="211.8" y2="184.1"/>
		<line class="st33" x1="208.8" y1="173.1" x2="211.8" y2="173.1"/>
		<line class="st33" x1="208.8" y1="162.2" x2="211.8" y2="162.2"/>
		<line class="st33" x1="208.8" y1="151.3" x2="211.8" y2="151.3"/>
		<line class="st33" x1="208.8" y1="140.4" x2="211.8" y2="140.4"/>
		<line class="st33" x1="208.8" y1="129.4" x2="211.8" y2="129.4"/>
		<line class="st33" x1="208.8" y1="118.5" x2="211.8" y2="118.5"/>
		<line class="st33" x1="208.8" y1="107.6" x2="211.8" y2="107.6"/>
		<line class="st33" x1="208.8" y1="96.7" x2="211.8" y2="96.7"/>
		<line class="st33" x1="208.8" y1="85.7" x2="211.8" y2="85.7"/>
		<line class="st33" x1="208.8" y1="74.8" x2="211.8" y2="74.8"/>
		<line class="st33" x1="208.8" y1="63.9" x2="211.8" y2="63.9"/>
		<line class="st33" x1="208.8" y1="53" x2="211.8" y2="53"/>
		<line class="st33" x1="208.8" y1="42" x2="211.8" y2="42"/>
		<line class="st33" x1="208.8" y1="31.1" x2="211.8" y2="31.1"/>
		<rect x="246.6" y="722.1" class="st23" width="182.8" height="14.2"/>
		<text transform="matrix(1 0 0 1 246.5879 732.3896)" class="st26 st34">Log 2- Fold Abundance Difference</text>
		<rect x="475.2" y="237.4" class="st0" width="116.8" height="253.8"/>
		<text transform="matrix(1 0 0 1 481.21 253.34)" class="st26 st34">Phylum</text>
		<rect x="481.9" y="261.4" class="st9" width="15.9" height="15.9"/>
		<rect x="481.9" y="278.6" class="st5" width="15.9" height="15.9"/>
		<rect x="481.9" y="295.9" class="st6" width="15.9" height="15.9"/>
		<rect x="481.9" y="313.2" class="st12" width="15.9" height="15.9"/>
		<rect x="481.9" y="330.5" class="st18" width="15.9" height="15.9"/>
		<rect x="481.9" y="347.8" class="st8" width="15.9" height="15.9"/>
		<rect x="481.9" y="365" class="st17" width="15.9" height="15.9"/>
		<rect x="481.9" y="382.3" class="st19" width="15.9" height="15.9"/>
		<rect x="481.9" y="399.6" class="st10" width="15.9" height="15.9"/>
		<rect x="481.9" y="416.9" class="st7" width="15.9" height="15.9"/>
		<rect x="481.9" y="434.2" class="st20" width="15.9" height="15.9"/>
		<rect x="481.9" y="451.4" class="st4" width="15.9" height="15.9"/>
		<rect x="481.9" y="468.7" class="st11" width="15.9" height="15.9"/>
		<text transform="matrix(1 0 0 1 504.47 272.73)" class="st35 st27">Acidobacteriota</text>
		<text transform="matrix(1 0 0 1 504.47 290.01)" class="st35 st27">Actinobacteriota</text>
		<text transform="matrix(1 0 0 1 504.47 307.29)" class="st35 st27">Bacteroidota</text>
		<text transform="matrix(1 0 0 1 504.47 324.57)" class="st35 st27">Bdellovibrionota</text>
		<text transform="matrix(1 0 0 1 504.47 341.85)" class="st35 st27">Chloroflexi</text>
		<text transform="matrix(1 0 0 1 504.47 359.13)" class="st35 st27">Crenarchaeota</text>
		<text transform="matrix(1 0 0 1 504.47 376.41)" class="st35 st27">Firmicutes</text>
		<text transform="matrix(1 0 0 1 504.47 393.69)" class="st35 st27">Gemmatimonadota</text>
		<text transform="matrix(1 0 0 1 504.47 410.97)" class="st35 st27">Myxococcota</text>
		<text transform="matrix(1 0 0 1 504.47 428.25)" class="st35 st27">Nitrospirota</text>
		<text transform="matrix(1 0 0 1 504.47 445.53)" class="st35 st27">Planctomycetota</text>
		<text transform="matrix(1 0 0 1 504.47 462.81)" class="st35 st27">Proteobacteria</text>
		<rect x="504.5" y="471.9" class="st23" width="77.8" height="11.4"/>
		<text transform="matrix(1 0 0 1 504.4697 480.0898)" class="st24"><tspan x="0" y="0" class="st35 st27">Verrucomicrobio</tspan><tspan x="74.7" y="0" class="st35 st27">-</tspan></text>
		<text transform="matrix(1 0 0 1 468.1534 499.9)" class="st26 st27">Soils under a carbon-rich PRB</text>
	</g>
</g>
<rect x="158" y="9" class="st23" width="54" height="27"/>
<text transform="matrix(1 0 0 1 158 19.7397)" class="st37 st38">Genus</text>
</svg>
