<?xml version="1.0" encoding="utf-8"?>
<!-- Generator: Adobe Illustrator 25.1.0, SVG Export Plug-In . SVG Version: 6.00 Build 0)  -->
<svg version="1.1" id="Layer_1" xmlns="http://www.w3.org/2000/svg" xmlns:xlink="http://www.w3.org/1999/xlink" x="0px" y="0px"
	 viewBox="0 0 546 493" style="enable-background:new 0 0 546 493;" xml:space="preserve">
<style type="text/css">
	.st0{fill:#FFFFFF;}
	.st1{clip-path:url(#SVGID_4_);}
	.st2{fill:#FFFFFF;stroke:#FFFFFF;stroke-width:1.16;stroke-linecap:round;stroke-linejoin:round;stroke-miterlimit:10;}
	.st3{clip-path:url(#SVGID_8_);fill:#FFFFFF;}
	.st4{clip-path:url(#SVGID_8_);fill:#593F28;}
	
		.st5{clip-path:url(#SVGID_8_);fill:#739D6E;stroke:#739D6E;stroke-width:0.71;stroke-linecap:round;stroke-linejoin:round;stroke-miterlimit:10;}
	.st6{clip-path:url(#SVGID_8_);fill:#89C0DB;}
	
		.st7{clip-path:url(#SVGID_8_);fill:none;stroke:#BEBEBE;stroke-width:1.71;stroke-linejoin:round;stroke-miterlimit:10;stroke-dasharray:9.1,9.1;}
	.st8{clip-path:url(#SVGID_8_);enable-background:new    ;}
	.st9{font-family:'ArialMT';}
	.st10{font-size:11.04px;}
	
		.st11{clip-path:url(#SVGID_8_);fill:none;stroke:#000000;stroke-width:1.07;stroke-linejoin:round;stroke-miterlimit:10;stroke-opacity:0.7;}
	
		.st12{clip-path:url(#SVGID_8_);fill:#89C0DB;fill-opacity:0.2;stroke:#89C0DB;stroke-width:1.07;stroke-linecap:round;stroke-linejoin:round;stroke-miterlimit:10;}
	
		.st13{clip-path:url(#SVGID_8_);fill:#593F28;fill-opacity:0.2;stroke:#593F28;stroke-width:1.07;stroke-linecap:round;stroke-linejoin:round;stroke-miterlimit:10;stroke-dasharray:2.85,2.85;}
	
		.st14{clip-path:url(#SVGID_8_);fill:#739D6E;fill-opacity:0.2;stroke:#739D6E;stroke-width:1.07;stroke-linecap:round;stroke-linejoin:round;stroke-miterlimit:10;stroke-dasharray:5.69,2.85;}
	.st15{clip-path:url(#SVGID_10_);}
	.st16{fill:none;stroke:#000000;stroke-width:1.07;stroke-linejoin:round;stroke-miterlimit:10;}
	.st17{fill:none;}
	.st18{font-size:12px;}
	.st19{fill:none;stroke:#333333;stroke-width:1.16;stroke-linejoin:round;stroke-miterlimit:10;}
	.st20{fill:#89C0DB;}
	.st21{fill:#89C0DB;fill-opacity:0.2;stroke:#89C0DB;stroke-width:1.07;stroke-linecap:square;stroke-miterlimit:10;}
	.st22{fill:#593F28;}
	
		.st23{fill:#593F28;fill-opacity:0.2;stroke:#593F28;stroke-width:1.07;stroke-linecap:square;stroke-miterlimit:10;stroke-dasharray:2.85,2.85;}
	.st24{fill:#739D6E;stroke:#739D6E;stroke-width:0.71;stroke-linecap:round;stroke-linejoin:round;stroke-miterlimit:10;}
	
		.st25{fill:#739D6E;fill-opacity:0.2;stroke:#739D6E;stroke-width:1.07;stroke-linecap:square;stroke-miterlimit:10;stroke-dasharray:5.69,2.85;}
	.st26{enable-background:new    ;}
	.st27{font-size:9.6px;}
	.st28{letter-spacing:6;}
	.st29{letter-spacing:3;}
</style>
<rect class="st0" width="546" height="493"/>
<g>
	<defs>
		<rect id="SVGID_1_" width="546" height="493"/>
	</defs>
	<clipPath id="SVGID_2_">
		<use xlink:href="#SVGID_1_"  style="overflow:visible;"/>
	</clipPath>
</g>
<g>
	<defs>
		<rect id="SVGID_3_" x="9.8" width="526.4" height="493"/>
	</defs>
	<clipPath id="SVGID_4_">
		<use xlink:href="#SVGID_3_"  style="overflow:visible;"/>
	</clipPath>
	<g class="st1">
		<rect x="9.8" class="st2" width="526.4" height="493"/>
	</g>
</g>
<g>
	<defs>
		<rect id="SVGID_5_" width="546" height="493"/>
	</defs>
	<clipPath id="SVGID_6_">
		<use xlink:href="#SVGID_5_"  style="overflow:visible;"/>
	</clipPath>
</g>
<g>
	<defs>
		<rect id="SVGID_7_" x="46.1" y="6" width="411.9" height="435.2"/>
	</defs>
	<clipPath id="SVGID_8_">
		<use xlink:href="#SVGID_7_"  style="overflow:visible;"/>
	</clipPath>
	<rect x="46.1" y="6" class="st3" width="411.9" height="435.2"/>
	<polygon class="st4" points="136.9,163.5 139.5,168.1 134.2,168.1 	"/>
	<polygon class="st4" points="132.1,127.1 134.7,131.7 129.4,131.7 	"/>
	<polygon class="st4" points="127,163.6 129.6,168.2 124.4,168.2 	"/>
	<polygon class="st4" points="144.3,176 146.9,180.6 141.6,180.6 	"/>
	<polygon class="st4" points="236.9,201.1 239.6,205.6 234.3,205.6 	"/>
	<polygon class="st4" points="215.8,125.2 218.5,129.7 213.2,129.7 	"/>
	<polygon class="st4" points="152.1,256 154.7,260.5 149.5,260.5 	"/>
	<polygon class="st4" points="146.8,328.8 149.4,333.3 144.1,333.3 	"/>
	<polygon class="st4" points="108.6,307.4 111.3,312 106,312 	"/>
	<polygon class="st4" points="137.2,262.7 139.8,267.3 134.5,267.3 	"/>
	<polygon class="st4" points="177.1,204.6 179.7,209.2 174.4,209.2 	"/>
	<polygon class="st4" points="187.6,359.9 190.2,364.5 184.9,364.5 	"/>
	<circle class="st5" cx="356.2" cy="214.9" r="2"/>
	<circle class="st5" cx="367.7" cy="173.4" r="2"/>
	<circle class="st5" cx="372.8" cy="176.2" r="2"/>
	<circle class="st5" cx="384.6" cy="181.3" r="2"/>
	<circle class="st5" cx="370.1" cy="178.2" r="2"/>
	<circle class="st5" cx="363.2" cy="136.4" r="2"/>
	<circle class="st5" cx="367.4" cy="147.5" r="2"/>
	<circle class="st5" cx="394" cy="270.1" r="2"/>
	<polygon class="st6" points="406.7,263 410.6,263 410.6,259.1 406.7,259.1 	"/>
	<polygon class="st6" points="407.9,261.6 411.8,261.6 411.8,257.7 407.9,257.7 	"/>
	<polygon class="st6" points="400.7,234.3 404.6,234.3 404.6,230.4 400.7,230.4 	"/>
	<polygon class="st6" points="406.2,259.5 410.2,259.5 410.2,255.6 406.2,255.6 	"/>
	<polygon class="st6" points="395.3,244.4 399.2,244.4 399.2,240.5 395.3,240.5 	"/>
	<polygon class="st6" points="393.9,233.8 397.8,233.8 397.8,229.9 393.9,229.9 	"/>
	<polygon class="st6" points="401.7,263.1 405.6,263.1 405.6,259.2 401.7,259.2 	"/>
	<polygon class="st6" points="398.9,252.5 402.8,252.5 402.8,248.6 398.9,248.6 	"/>
	<polygon class="st6" points="398.3,254.7 402.2,254.7 402.2,250.8 398.3,250.8 	"/>
	<polygon class="st6" points="404,259.7 408,259.7 408,255.8 404,255.8 	"/>
	<line class="st7" x1="0" y1="223.2" x2="546" y2="223.2"/>
	<line class="st7" x1="297" y1="441.1" x2="297" y2="6"/>
	<g class="st8">
		<text transform="matrix(1 0 0 1 173.2536 161.04)" class="st9 st10">C</text>
	</g>
	<g class="st8">
		<text transform="matrix(1 0 0 1 151.1036 168.11)" class="st9 st10">N</text>
	</g>
	<g class="st8">
		<text transform="matrix(1 0 0 1 427.3883 289)" class="st9 st10">Sand</text>
	</g>
	<g class="st8">
		<text transform="matrix(1 0 0 1 177.4718 151.52)" class="st9 st10">Silt</text>
	</g>
	<g class="st8">
		<text transform="matrix(1 0 0 1 101.7773 199.2)" class="st9 st10">Clay</text>
	</g>
	<line class="st11" x1="297" y1="223.2" x2="184.5" y2="156.7"/>
	<polyline class="st11" points="188.6,156.8 184.5,156.7 186.5,160.3 	"/>
	<line class="st11" x1="297" y1="223.2" x2="161.6" y2="166.8"/>
	<polyline class="st11" points="165.7,166.3 161.6,166.8 164.1,170.1 	"/>
	<line class="st11" x1="297" y1="223.2" x2="426.4" y2="284"/>
	<polyline class="st11" points="422.2,284.3 426.4,284 424,280.6 	"/>
	<line class="st11" x1="297" y1="223.2" x2="186.2" y2="154.4"/>
	<polyline class="st11" points="190.3,154.6 186.2,154.4 188.2,158.1 	"/>
	<line class="st11" x1="297" y1="223.2" x2="127.8" y2="196"/>
	<polyline class="st11" points="131.6,194.5 127.8,196 130.9,198.6 	"/>
	<polygon class="st12" points="416.8,273.8 416.7,271.5 416.4,269 415.9,266.2 415.3,263.3 414.4,260.1 413.4,256.9 412.2,253.6 
		411,250.2 409.6,246.9 408.1,243.7 406.5,240.7 404.9,237.8 403.3,235.1 401.7,232.7 400.1,230.6 398.6,228.9 397.1,227.5 
		395.8,226.5 394.6,225.9 393.5,225.6 392.6,225.9 391.8,226.5 391.2,227.5 390.8,228.9 390.6,230.6 390.6,232.7 390.8,235.1 
		391.2,237.7 391.8,240.6 392.6,243.7 393.5,246.9 394.6,250.2 395.8,253.5 397.1,256.8 398.6,260 400.1,263.2 401.7,266.2 
		403.3,269 404.9,271.5 406.5,273.7 408.1,275.6 409.6,277.2 411,278.4 412.2,279.2 413.4,279.7 414.4,279.7 415.3,279.3 
		415.9,278.5 416.4,277.3 416.7,275.7 	"/>
	<polygon class="st13" points="241.6,208.8 240.9,184.7 238.9,161.1 235.6,138.5 231.1,117.2 225.3,97.5 218.5,79.7 210.7,64.1 
		202,50.9 192.5,40.4 182.5,32.6 172,27.7 161.3,25.8 150.4,26.8 139.5,30.9 128.9,37.9 118.6,47.7 108.9,60.1 99.8,75.1 91.5,92.3 
		84.2,111.5 77.9,132.3 72.7,154.6 68.8,177.9 66.1,201.9 64.8,226.3 64.8,250.6 66.1,274.5 68.8,297.6 72.7,319.6 77.9,340.1 
		84.2,358.9 91.5,375.6 99.8,390.1 108.9,402 118.6,411.2 128.9,417.5 139.5,420.9 150.4,421.4 161.3,418.8 172,413.2 182.5,404.9 
		192.5,393.7 202,380 210.7,363.9 218.5,345.6 225.3,325.6 231.1,304 235.6,281.1 238.9,257.4 240.9,233.2 	"/>
	<polygon class="st14" points="396.7,229 396.5,219.7 396,209.6 395,199.1 393.7,188.1 392,177 390,165.8 387.7,154.7 385.2,143.9 
		382.4,133.6 379.5,123.9 376.4,114.9 373.3,106.9 370.1,99.8 366.9,93.9 363.8,89.2 360.8,85.8 358,83.7 355.3,83 352.9,83.7 
		350.8,85.7 349,89.1 347.4,93.7 346.3,99.6 345.5,106.6 345.1,114.6 345.1,123.6 345.5,133.2 346.3,143.6 347.4,154.3 349,165.4 
		350.8,176.6 352.9,187.8 355.3,198.7 358,209.3 360.8,219.3 363.8,228.7 366.9,237.2 370.1,244.8 373.3,251.3 376.4,256.6 
		379.5,260.6 382.4,263.4 385.2,264.8 387.7,264.8 390,263.5 392,260.8 393.7,256.8 395,251.5 396,245 396.5,237.5 	"/>
</g>
<g>
	<defs>
		<rect id="SVGID_9_" width="546" height="493"/>
	</defs>
	<clipPath id="SVGID_10_">
		<use xlink:href="#SVGID_9_"  style="overflow:visible;"/>
	</clipPath>
	<g class="st15">
		<line class="st16" x1="46.1" y1="441.1" x2="46.1" y2="6"/>
		<rect x="30" y="400.8" class="st17" width="10.7" height="14.2"/>
		<text transform="matrix(1 0 0 1 30.02 411.0703)" class="st9 st18">-2</text>
		<rect x="30" y="309" class="st17" width="10.7" height="14.2"/>
		<text transform="matrix(1 0 0 1 30.02 319.3101)" class="st9 st18">-1</text>
		<text transform="matrix(1 0 0 1 34.0162 227.56)" class="st9 st18">0</text>
		<text transform="matrix(1 0 0 1 34.0162 135.81)" class="st9 st18">1</text>
		<text transform="matrix(1 0 0 1 34.0162 44.06)" class="st9 st18">2</text>
		<line class="st19" x1="43.1" y1="406.8" x2="46.1" y2="406.8"/>
		<line class="st19" x1="43.1" y1="315" x2="46.1" y2="315"/>
		<line class="st19" x1="43.1" y1="223.2" x2="46.1" y2="223.2"/>
		<line class="st19" x1="43.1" y1="131.5" x2="46.1" y2="131.5"/>
		<line class="st19" x1="43.1" y1="39.8" x2="46.1" y2="39.8"/>
		<line class="st16" x1="46.1" y1="441.1" x2="458" y2="441.1"/>
		<line class="st19" x1="113.5" y1="444.1" x2="113.5" y2="441.1"/>
		<line class="st19" x1="205.3" y1="444.1" x2="205.3" y2="441.1"/>
		<line class="st19" x1="297" y1="444.1" x2="297" y2="441.1"/>
		<line class="st19" x1="388.8" y1="444.1" x2="388.8" y2="441.1"/>
		<rect x="103.2" y="444.8" class="st17" width="20.7" height="14.2"/>
		<text transform="matrix(1 0 0 1 103.2012 455.1201)" class="st9 st18">-1.0</text>
		<rect x="195" y="444.8" class="st17" width="20.7" height="14.2"/>
		<text transform="matrix(1 0 0 1 194.9609 455.1201)" class="st9 st18">-0.5</text>
		<text transform="matrix(1 0 0 1 288.7092 455.12)" class="st9 st18">0.0</text>
		<text transform="matrix(1 0 0 1 380.4592 455.12)" class="st9 st18">0.5</text>
		<rect x="231" y="459.1" class="st17" width="42" height="14.2"/>
		<text transform="matrix(1 0 0 1 231.0371 469.3799)" class="st9 st18">NMDS1</text>
		<rect x="14.1" y="202.6" class="st17" width="14.2" height="42"/>
		<text transform="matrix(6.123234e-17 -1 1 6.123234e-17 24.3789 244.5625)" class="st9 st18">NMDS2</text>
		<rect x="470" y="183" class="st0" width="60.3" height="81"/>
		<rect x="475.9" y="188.7" class="st17" width="45.4" height="14.2"/>
		<text transform="matrix(1 0 0 1 475.9297 198.9502)" class="st9 st18">Location</text>
		<polygon class="st20" points="482.6,216.9 486.5,216.9 486.5,212.9 482.6,212.9 		"/>
		<rect x="476.6" y="207" class="st21" width="15.9" height="15.9"/>
		<polygon class="st22" points="484.6,229.1 487.2,233.7 481.9,233.7 		"/>
		<rect x="476.6" y="224.2" class="st23" width="15.9" height="15.9"/>
		<circle class="st24" cx="484.6" cy="249.5" r="2"/>
		<rect x="476.6" y="241.5" class="st25" width="15.9" height="15.9"/>
		<rect x="499.2" y="210.1" class="st17" width="19.7" height="11.4"/>
		<text transform="matrix(1 0 0 1 499.1904 218.3398)" class="st26"><tspan x="0" y="0" class="st9 st27 st28">H</tspan><tspan x="13.3" y="0" class="st9 st27">S</tspan></text>
		<text transform="matrix(1 0 0 1 499.19 235.62)" class="st9 st27">KTR</text>
		<rect x="499.2" y="244.7" class="st17" width="25.1" height="11.4"/>
		<text transform="matrix(1 0 0 1 499.1904 252.8999)" class="st26"><tspan x="0" y="0" class="st9 st27 st29">KT</tspan><tspan x="18.7" y="0" class="st9 st27">Y</tspan></text>
		<rect x="347.4" y="476.7" class="st17" width="111.2" height="11.4"/>
		<text transform="matrix(1 0 0 1 347.4355 484.9004)" class="st26"><tspan x="0" y="0" class="st9 st27">ANOVA(Location)</tspan><tspan x="76.3" y="0" class="st9 st27"> </tspan><tspan x="78.9" y="0" class="st9 st27">&lt;</tspan><tspan x="84.5" y="0" class="st9 st27"> </tspan><tspan x="87.2" y="0" class="st9 st27">0.001</tspan></text>
	</g>
</g>
</svg>
