<?xml version="1.0" encoding="utf-8"?>
<!-- Generator: Adobe Illustrator 25.1.0, SVG Export Plug-In . SVG Version: 6.00 Build 0)  -->
<svg version="1.1" id="Layer_1" xmlns="http://www.w3.org/2000/svg" xmlns:xlink="http://www.w3.org/1999/xlink" x="0px" y="0px"
	 viewBox="0 0 833 491" style="enable-background:new 0 0 833 491;" xml:space="preserve">
<style type="text/css">
	.st0{fill:#FFFFFF;}
	.st1{clip-path:url(#SVGID_4_);}
	.st2{fill:#FFFFFF;stroke:#FFFFFF;stroke-width:1.16;stroke-linecap:round;stroke-linejoin:round;stroke-miterlimit:10;}
	.st3{clip-path:url(#SVGID_8_);}
	.st4{fill:#593F28;}
	.st5{fill:#739D6E;stroke:#739D6E;stroke-width:0.71;stroke-linecap:round;stroke-linejoin:round;stroke-miterlimit:10;}
	.st6{fill:#89C0DB;}
	.st7{fill:none;stroke:#BEBEBE;stroke-width:1.71;stroke-linejoin:round;stroke-miterlimit:10;stroke-dasharray:9.1,9.1;}
	.st8{font-family:'ArialMT';}
	.st9{font-size:11.04px;}
	.st10{fill:none;stroke:#000000;stroke-width:1.07;stroke-linejoin:round;stroke-miterlimit:10;stroke-opacity:0.7;}
	
		.st11{fill:#89C0DB;fill-opacity:0.2;stroke:#89C0DB;stroke-width:1.07;stroke-linecap:round;stroke-linejoin:round;stroke-miterlimit:10;}
	
		.st12{fill:#593F28;fill-opacity:0.2;stroke:#593F28;stroke-width:1.07;stroke-linecap:round;stroke-linejoin:round;stroke-miterlimit:10;stroke-dasharray:2.85,2.85;}
	
		.st13{fill:#739D6E;fill-opacity:0.2;stroke:#739D6E;stroke-width:1.07;stroke-linecap:round;stroke-linejoin:round;stroke-miterlimit:10;stroke-dasharray:5.69,2.85;}
	.st14{clip-path:url(#SVGID_10_);}
	.st15{fill:none;stroke:#000000;stroke-width:1.07;stroke-linejoin:round;stroke-miterlimit:10;}
	.st16{fill:none;}
	.st17{font-size:12px;}
	.st18{fill:none;stroke:#333333;stroke-width:1.16;stroke-linejoin:round;stroke-miterlimit:10;}
	.st19{fill:#89C0DB;fill-opacity:0.2;stroke:#89C0DB;stroke-width:1.07;stroke-linecap:square;stroke-miterlimit:10;}
	
		.st20{fill:#593F28;fill-opacity:0.2;stroke:#593F28;stroke-width:1.07;stroke-linecap:square;stroke-miterlimit:10;stroke-dasharray:2.85,2.85;}
	
		.st21{fill:#739D6E;fill-opacity:0.2;stroke:#739D6E;stroke-width:1.07;stroke-linecap:square;stroke-miterlimit:10;stroke-dasharray:5.69,2.85;}
	.st22{enable-background:new    ;}
	.st23{font-size:9.6px;}
	.st24{letter-spacing:6;}
	.st25{letter-spacing:3;}
</style>
<rect class="st0" width="833" height="491"/>
<g>
	<defs>
		<rect id="SVGID_1_" width="833" height="491"/>
	</defs>
	<clipPath id="SVGID_2_">
		<use xlink:href="#SVGID_1_"  style="overflow:visible;"/>
	</clipPath>
</g>
<g>
	<defs>
		<rect id="SVGID_3_" x="154.2" width="524.5" height="491"/>
	</defs>
	<clipPath id="SVGID_4_">
		<use xlink:href="#SVGID_3_"  style="overflow:visible;"/>
	</clipPath>
	<g class="st1">
		<rect x="154.2" class="st2" width="524.5" height="491"/>
	</g>
</g>
<g>
	<defs>
		<rect id="SVGID_5_" width="833" height="491"/>
	</defs>
	<clipPath id="SVGID_6_">
		<use xlink:href="#SVGID_5_"  style="overflow:visible;"/>
	</clipPath>
</g>
<g>
	<defs>
		<rect id="SVGID_7_" x="190.5" y="6" width="410" height="433.2"/>
	</defs>
	<clipPath id="SVGID_8_">
		<use xlink:href="#SVGID_7_"  style="overflow:visible;"/>
	</clipPath>
	<g class="st3">
		<rect x="190.5" y="6" class="st0" width="410" height="433.2"/>
		<polygon class="st4" points="280.9,162.8 283.5,167.4 278.3,167.4 		"/>
		<polygon class="st4" points="276.1,126.6 278.7,131.1 273.5,131.1 		"/>
		<polygon class="st4" points="271.1,162.9 273.7,167.5 268.5,167.5 		"/>
		<polygon class="st4" points="288.2,175.2 290.9,179.8 285.6,179.8 		"/>
		<polygon class="st4" points="380.5,200.2 383.1,204.7 377.9,204.7 		"/>
		<polygon class="st4" points="359.5,124.6 362.1,129.2 356.9,129.2 		"/>
		<polygon class="st4" points="296.1,254.8 298.7,259.4 293.4,259.4 		"/>
		<polygon class="st4" points="290.7,327.3 293.4,331.8 288.1,331.8 		"/>
		<polygon class="st4" points="252.8,306 255.4,310.6 250.2,310.6 		"/>
		<polygon class="st4" points="281.2,261.5 283.8,266.1 278.6,266.1 		"/>
		<polygon class="st4" points="320.9,203.7 323.5,208.2 318.3,208.2 		"/>
		<polygon class="st4" points="331.4,358.3 334,362.8 328.7,362.8 		"/>
		<circle class="st5" cx="499.2" cy="213.9" r="2"/>
		<path class="st5" d="M510.7,170.6c1.1,0,1.9,0.9,1.9,1.9s-0.9,1.9-1.9,1.9s-2-0.9-2-1.9S509.6,170.6,510.7,170.6z"/>
		<circle class="st5" cx="515.7" cy="175.5" r="2"/>
		<circle class="st5" cx="527.5" cy="180.5" r="2"/>
		<circle class="st5" cx="513" cy="177.4" r="2"/>
		<circle class="st5" cx="506.2" cy="135.8" r="2"/>
		<path class="st5" d="M510.3,144.9c1.1,0,1.9,0.9,1.9,1.9s-0.9,1.9-1.9,1.9s-2-0.9-2-1.9S509.3,144.9,510.3,144.9z"/>
		<circle class="st5" cx="536.8" cy="268.9" r="2"/>
		<polygon class="st6" points="549.5,261.8 553.4,261.8 553.4,257.9 549.5,257.9 		"/>
		<polygon class="st6" points="550.7,260.4 554.6,260.4 554.6,256.5 550.7,256.5 		"/>
		<polygon class="st6" points="543.5,233.3 547.4,233.3 547.4,229.4 543.5,229.4 		"/>
		<polygon class="st6" points="549,258.4 552.9,258.4 552.9,254.5 549,254.5 		"/>
		<polygon class="st6" points="538.2,243.4 542.1,243.4 542.1,239.5 538.2,239.5 		"/>
		<polygon class="st6" points="536.8,232.8 540.7,232.8 540.7,228.9 536.8,228.9 		"/>
		<polygon class="st6" points="544.5,262 548.5,262 548.5,258 544.5,258 		"/>
		<polygon class="st6" points="541.7,251.4 545.6,251.4 545.6,247.4 541.7,247.4 		"/>
		<polygon class="st6" points="541.1,253.5 545,253.5 545,249.6 541.1,249.6 		"/>
		<polygon class="st6" points="546.8,258.5 550.7,258.5 550.7,254.6 546.8,254.6 		"/>
		<line class="st7" x1="0" y1="222.3" x2="833" y2="222.3"/>
		<line class="st7" x1="440.3" y1="439.1" x2="440.3" y2="6"/>
		<text transform="matrix(1 0 0 1 317.1136 160.38)" class="st8 st9">C</text>
		<text transform="matrix(1 0 0 1 295.0836 167.4)" class="st8 st9">N</text>
		<text transform="matrix(1 0 0 1 569.0283 288.7)" class="st8 st9">Sand</text>
		<text transform="matrix(1 0 0 1 318.3218 150.86)" class="st8 st9">Silt</text>
		<text transform="matrix(1 0 0 1 247.9273 198.34)" class="st8 st9">Clay</text>
		<line class="st10" x1="440.3" y1="222.3" x2="328.3" y2="156"/>
		<polyline class="st10" points="332.4,156.1 328.3,156 330.3,159.6 		"/>
		<line class="st10" x1="440.3" y1="222.3" x2="305.5" y2="166.1"/>
		<polyline class="st10" points="309.6,165.5 305.5,166.1 308,169.3 		"/>
		<line class="st10" x1="440.3" y1="222.3" x2="569" y2="282.7"/>
		<polyline class="st10" points="565,283 569,282.7 566.7,279.3 		"/>
		<line class="st10" x1="440.3" y1="222.3" x2="330" y2="153.8"/>
		<polyline class="st10" points="334.1,153.9 330,153.8 332,157.4 		"/>
		<line class="st10" x1="440.3" y1="222.3" x2="271.8" y2="195.1"/>
		<polyline class="st10" points="275.6,193.6 271.8,195.1 275,197.7 		"/>
		<polygon class="st11" points="559.6,272.5 559.5,270.3 559.2,267.8 558.7,265 558,262.1 557.2,259 556.2,255.7 555,252.4 
			553.7,249.1 552.3,245.8 550.8,242.6 549.3,239.6 547.7,236.7 546.1,234.1 544.5,231.7 542.9,229.6 541.4,227.9 540,226.5 
			538.7,225.5 537.4,224.9 536.3,224.6 535.4,224.8 534.7,225.4 534.1,226.4 533.7,227.8 533.5,229.6 533.5,231.6 533.7,234 
			534.1,236.7 534.7,239.5 535.4,242.6 536.3,245.8 537.4,249 538.7,252.3 540,255.6 541.4,258.9 542.9,262 544.5,265 546.1,267.7 
			547.7,270.3 549.3,272.5 550.8,274.4 552.3,276 553.7,277.2 555,278 556.2,278.4 557.2,278.4 558,278 558.7,277.2 559.2,276 
			559.5,274.5 		"/>
		<polygon class="st12" points="385.1,207.9 384.5,183.9 382.5,160.4 379.2,137.9 374.6,116.7 368.9,97.1 362.1,79.4 354.4,63.9 
			345.7,50.7 336.3,40.2 326.3,32.5 315.9,27.6 305.2,25.7 294.4,26.7 283.5,30.8 273,37.7 262.7,47.5 253,59.9 244,74.8 
			235.8,91.9 228.4,111 222.2,131.8 217.1,153.9 213.1,177.1 210.5,201 209.2,225.3 209.2,249.4 210.5,273.2 213.1,296.2 
			217.1,318.1 222.2,338.6 228.4,357.3 235.8,373.9 244,388.3 253,400.1 262.7,409.3 273,415.6 283.5,419 294.4,419.4 305.2,416.9 
			315.9,411.4 326.3,403 336.3,391.9 345.7,378.2 354.4,362.2 362.1,344.1 368.9,324.1 374.6,302.6 379.2,279.9 382.5,256.2 
			384.5,232.1 		"/>
		<polygon class="st13" points="539.6,228 539.4,218.7 538.8,208.7 537.8,198.2 536.5,187.3 534.8,176.2 532.9,165.1 530.6,154 
			528.1,143.3 525.3,133 522.4,123.3 519.4,114.4 516.2,106.4 513.1,99.4 509.9,93.5 506.8,88.8 503.8,85.4 501,83.3 498.4,82.6 
			496,83.3 493.8,85.3 492,88.7 490.5,93.3 489.4,99.2 488.6,106.1 488.2,114.1 488.2,123 488.6,132.7 489.4,142.9 490.5,153.6 
			492,164.7 493.8,175.8 496,186.9 498.4,197.8 501,208.3 503.8,218.3 506.8,227.6 509.9,236.1 513.1,243.7 516.2,250.1 
			519.4,255.4 522.4,259.5 525.3,262.2 528.1,263.6 530.6,263.6 532.9,262.3 534.8,259.6 536.5,255.6 537.8,250.3 538.8,243.9 
			539.4,236.4 		"/>
	</g>
</g>
<g>
	<defs>
		<rect id="SVGID_9_" width="833" height="491"/>
	</defs>
	<clipPath id="SVGID_10_">
		<use xlink:href="#SVGID_9_"  style="overflow:visible;"/>
	</clipPath>
	<g class="st14">
		<line class="st15" x1="190.5" y1="439.1" x2="190.5" y2="6"/>
		<rect x="174.5" y="398.9" class="st16" width="10.7" height="14.2"/>
		<text transform="matrix(1 0 0 1 174.4702 409.2197)" class="st8 st17">-2</text>
		<rect x="174.5" y="307.6" class="st16" width="10.7" height="14.2"/>
		<text transform="matrix(1 0 0 1 174.4702 317.8901)" class="st8 st17">-1</text>
		<text transform="matrix(1 0 0 1 178.4662 226.56)" class="st8 st17">0</text>
		<text transform="matrix(1 0 0 1 178.4662 135.23)" class="st8 st17">1</text>
		<text transform="matrix(1 0 0 1 178.4662 43.9)" class="st8 st17">2</text>
		<line class="st18" x1="187.5" y1="404.9" x2="190.5" y2="404.9"/>
		<line class="st18" x1="187.5" y1="313.6" x2="190.5" y2="313.6"/>
		<line class="st18" x1="187.5" y1="222.3" x2="190.5" y2="222.3"/>
		<line class="st18" x1="187.5" y1="130.9" x2="190.5" y2="130.9"/>
		<line class="st18" x1="187.5" y1="39.6" x2="190.5" y2="39.6"/>
		<line class="st15" x1="190.5" y1="439.1" x2="600.5" y2="439.1"/>
		<line class="st18" x1="257.7" y1="442.1" x2="257.7" y2="439.1"/>
		<line class="st18" x1="349" y1="442.1" x2="349" y2="439.1"/>
		<line class="st18" x1="440.3" y1="442.1" x2="440.3" y2="439.1"/>
		<line class="st18" x1="531.7" y1="442.1" x2="531.7" y2="439.1"/>
		<rect x="247.3" y="442.8" class="st16" width="20.7" height="14.2"/>
		<text transform="matrix(1 0 0 1 247.3413 453.1201)" class="st8 st17">-1.0</text>
		<rect x="338.7" y="442.8" class="st16" width="20.7" height="14.2"/>
		<text transform="matrix(1 0 0 1 338.6709 453.1201)" class="st8 st17">-0.5</text>
		<text transform="matrix(1 0 0 1 431.9992 453.12)" class="st8 st17">0.0</text>
		<text transform="matrix(1 0 0 1 523.3292 453.12)" class="st8 st17">0.5</text>
		<rect x="374.5" y="457.1" class="st16" width="42" height="14.2"/>
		<text transform="matrix(1 0 0 1 374.5371 467.3799)" class="st8 st17">NMDS1</text>
		<rect x="158.5" y="201.6" class="st16" width="14.2" height="42"/>
		<text transform="matrix(6.123234e-17 -1 1 6.123234e-17 168.8291 243.5625)" class="st8 st17">NMDS2</text>
		<rect x="612.5" y="182" class="st0" width="60.3" height="81"/>
		<rect x="618.5" y="187.7" class="st16" width="45.4" height="14.2"/>
		<text transform="matrix(1 0 0 1 618.4902 197.9502)" class="st8 st17">Location</text>
		<polygon class="st6" points="625.2,215.9 629.1,215.9 629.1,211.9 625.2,211.9 		"/>
		<rect x="619.2" y="206" class="st19" width="15.9" height="15.9"/>
		<polygon class="st4" points="627.1,228.1 629.8,232.7 624.5,232.7 		"/>
		<rect x="619.2" y="223.2" class="st20" width="15.9" height="15.9"/>
		<circle class="st5" cx="627.1" cy="248.5" r="2"/>
		<rect x="619.2" y="240.5" class="st21" width="15.9" height="15.9"/>
		<rect x="641.7" y="209.1" class="st16" width="19.7" height="11.4"/>
		<text transform="matrix(1 0 0 1 641.7402 217.3398)" class="st22"><tspan x="0" y="0" class="st8 st23 st24">H</tspan><tspan x="13.3" y="0" class="st8 st23">S</tspan></text>
		<text transform="matrix(1 0 0 1 641.74 234.62)" class="st8 st23">KTR</text>
		<rect x="641.7" y="243.7" class="st16" width="25.1" height="11.4"/>
		<text transform="matrix(1 0 0 1 641.7402 251.8999)" class="st22"><tspan x="0" y="0" class="st8 st23 st25">KT</tspan><tspan x="18.7" y="0" class="st8 st23">Y</tspan></text>
		<rect x="462.3" y="474.7" class="st16" width="138.9" height="11.4"/>
		<text transform="matrix(1 0 0 1 462.2637 482.9004)" class="st22"><tspan x="0" y="0" class="st8 st23">PERMANOVA(Location)</tspan><tspan x="104" y="0" class="st8 st23"> </tspan><tspan x="106.7" y="0" class="st8 st23">&lt;</tspan><tspan x="112.3" y="0" class="st8 st23"> </tspan><tspan x="114.9" y="0" class="st8 st23">0.001</tspan></text>
	</g>
</g>
</svg>
