<?xml version="1.0" encoding="utf-8"?>
<!-- Generator: Adobe Illustrator 25.1.0, SVG Export Plug-In . SVG Version: 6.00 Build 0)  -->
<svg version="1.1" id="Layer_1" xmlns="http://www.w3.org/2000/svg" xmlns:xlink="http://www.w3.org/1999/xlink" x="0px" y="0px"
	 viewBox="0 0 833 491" style="enable-background:new 0 0 833 491;" xml:space="preserve">
<style type="text/css">
	.st0{fill:#FFFFFF;}
	.st1{clip-path:url(#SVGID_4_);}
	.st2{fill:#FFFFFF;stroke:#FFFFFF;stroke-width:1.16;stroke-linecap:round;stroke-linejoin:round;stroke-miterlimit:10;}
	.st3{clip-path:url(#SVGID_8_);}
	
		.st4{fill:#89C0DB;fill-opacity:0.2;stroke:#89C0DB;stroke-width:1.07;stroke-linecap:round;stroke-linejoin:round;stroke-miterlimit:10;}
	
		.st5{fill:#593F28;fill-opacity:0.2;stroke:#593F28;stroke-width:1.07;stroke-linecap:round;stroke-linejoin:round;stroke-miterlimit:10;stroke-dasharray:2.85,2.85;}
	
		.st6{fill:#739D6E;fill-opacity:0.2;stroke:#739D6E;stroke-width:1.07;stroke-linecap:round;stroke-linejoin:round;stroke-miterlimit:10;stroke-dasharray:5.69,2.85;}
	.st7{fill:none;stroke:#000000;stroke-width:1.07;stroke-linejoin:round;stroke-miterlimit:10;}
	.st8{font-family:'ArialMT';}
	.st9{font-size:11.04px;}
	.st10{fill:#593F28;}
	.st11{fill:#89C0DB;}
	.st12{fill:#739D6E;stroke:#739D6E;stroke-width:0.71;stroke-linecap:round;stroke-linejoin:round;stroke-miterlimit:10;}
	.st13{fill:none;stroke:#000000;stroke-width:1.71;stroke-linejoin:round;stroke-miterlimit:10;stroke-dasharray:9.1,9.1;}
	.st14{clip-path:url(#SVGID_10_);}
	.st15{fill:none;}
	.st16{font-size:12px;}
	.st17{fill:none;stroke:#333333;stroke-width:1.16;stroke-linejoin:round;stroke-miterlimit:10;}
	.st18{enable-background:new    ;}
	.st19{letter-spacing:14;}
	.st20{fill:#89C0DB;fill-opacity:0.2;stroke:#89C0DB;stroke-width:1.07;stroke-linecap:square;stroke-miterlimit:10;}
	
		.st21{fill:#593F28;fill-opacity:0.2;stroke:#593F28;stroke-width:1.07;stroke-linecap:square;stroke-miterlimit:10;stroke-dasharray:2.85,2.85;}
	
		.st22{fill:#739D6E;fill-opacity:0.2;stroke:#739D6E;stroke-width:1.07;stroke-linecap:square;stroke-miterlimit:10;stroke-dasharray:5.69,2.85;}
	.st23{font-size:9.6px;}
	.st24{letter-spacing:6;}
	.st25{letter-spacing:3;}
	.st26{letter-spacing:2;}
</style>
<rect class="st0" width="833" height="491"/>
<g>
	<defs>
		<rect id="SVGID_1_" width="833" height="491"/>
	</defs>
	<clipPath id="SVGID_2_">
		<use xlink:href="#SVGID_1_"  style="overflow:visible;"/>
	</clipPath>
</g>
<g>
	<defs>
		<rect id="SVGID_3_" x="131.9" width="569.2" height="491"/>
	</defs>
	<clipPath id="SVGID_4_">
		<use xlink:href="#SVGID_3_"  style="overflow:visible;"/>
	</clipPath>
	<g class="st1">
		<rect x="131.9" class="st2" width="569.2" height="491"/>
	</g>
</g>
<g>
	<defs>
		<rect id="SVGID_5_" width="833" height="491"/>
	</defs>
	<clipPath id="SVGID_6_">
		<use xlink:href="#SVGID_5_"  style="overflow:visible;"/>
	</clipPath>
</g>
<g>
	<defs>
		<rect id="SVGID_7_" x="178.2" y="6" width="444.7" height="433.2"/>
	</defs>
	<clipPath id="SVGID_8_">
		<use xlink:href="#SVGID_7_"  style="overflow:visible;"/>
	</clipPath>
	<g class="st3">
		<rect x="178.2" y="6" class="st0" width="444.7" height="433.2"/>
		<polygon class="st4" points="542.4,377.9 542,375 540.6,372.2 538.4,369.8 535.4,367.7 531.5,366 527,364.6 521.8,363.7 
			516,363.1 509.7,363 503,363.4 496,364.1 488.8,365.2 481.6,366.8 474.4,368.7 467.3,371 460.4,373.5 453.9,376.4 447.9,379.4 
			442.3,382.7 437.4,386 433.2,389.5 429.8,393 427.2,396.4 425.4,399.8 424.5,403 424.5,406.1 425.4,408.9 427.2,411.5 
			429.8,413.8 433.2,415.7 437.4,417.2 442.3,418.4 447.9,419.1 453.9,419.4 460.4,419.3 467.3,418.8 474.4,417.9 481.6,416.5 
			488.8,414.8 496,412.7 503,410.3 509.7,407.6 516,404.6 521.8,401.5 527,398.1 531.5,394.7 535.4,391.3 538.4,387.8 540.6,384.4 
			542,381.1 		"/>
		<polygon class="st5" points="360.1,345.8 359.5,341 357.6,335.9 354.6,330.5 350.5,324.8 345.2,319.1 339,313.3 331.8,307.6 
			323.9,302 315.2,296.7 306.1,291.6 296.5,286.9 286.6,282.7 276.7,279 266.8,275.9 257,273.4 247.6,271.6 238.7,270.4 230.4,270 
			222.8,270.2 216.1,271.2 210.4,272.9 205.7,275.2 202.1,278.1 199.6,281.7 198.4,285.8 198.4,290.3 199.6,295.3 202.1,300.6 
			205.7,306.1 210.4,311.8 216.1,317.5 222.8,323.3 230.4,329 238.7,334.5 247.6,339.7 257,344.5 266.8,349 276.7,353 286.6,356.4 
			296.5,359.2 306.1,361.4 315.2,362.9 323.9,363.7 331.8,363.8 339,363.1 345.2,361.8 350.5,359.8 354.6,357.2 357.6,353.9 
			359.5,350.1 		"/>
		<polygon class="st6" points="493.2,180.5 492.9,167 492,153.1 490.4,139 488.2,125 485.5,111.1 482.3,97.7 478.6,85 474.5,73.1 
			470,62.2 465.3,52.4 460.3,44 455.2,37.1 450.1,31.7 445,28 439.9,26 435.1,25.7 430.5,27.1 426.2,30.2 422.2,35.1 418.8,41.5 
			415.8,49.4 413.4,58.7 411.5,69.2 410.2,80.8 409.6,93.2 409.6,106.4 410.2,120.2 411.5,134.2 413.4,148.3 415.8,162.2 
			418.8,175.9 422.2,189 426.2,201.4 430.5,212.8 435.1,223.1 439.9,232.2 445,239.9 450.1,246 455.2,250.6 460.3,253.5 
			465.3,254.6 470,254.1 474.5,251.8 478.6,247.8 482.3,242.2 485.5,235 488.2,226.4 490.4,216.5 492,205.4 492.9,193.4 		"/>
		<line class="st7" x1="444.9" y1="309" x2="582.1" y2="273.9"/>
		<polyline class="st7" points="579,277 582.1,273.9 577.9,272.8 		"/>
		<line class="st7" x1="444.9" y1="309" x2="315.9" y2="373.8"/>
		<polyline class="st7" points="318.3,370.2 315.9,373.8 320.2,374 		"/>
		<line class="st7" x1="444.9" y1="309" x2="305.7" y2="329.9"/>
		<polyline class="st7" points="309.1,327.2 305.7,329.9 309.8,331.5 		"/>
		<line class="st7" x1="444.9" y1="309" x2="305.2" y2="331"/>
		<polyline class="st7" points="308.5,328.2 305.2,331 309.2,332.5 		"/>
		<line class="st7" x1="444.9" y1="309" x2="305.8" y2="347.4"/>
		<polyline class="st7" points="308.9,344.3 305.8,347.4 310,348.5 		"/>
		<text transform="matrix(1 0 0 1 584.7783 275.62)" class="st8 st9">Sand</text>
		<text transform="matrix(1 0 0 1 292.5173 380.45)" class="st8 st9">Clay</text>
		<text transform="matrix(1 0 0 1 288.1819 330.03)" class="st8 st9">Silt</text>
		<text transform="matrix(1 0 0 1 296.2336 339.19)" class="st8 st9">C</text>
		<text transform="matrix(1 0 0 1 294.9937 353.07)" class="st8 st9">N</text>
		<polygon class="st10" points="313.1,339.5 315.7,344.1 310.4,344.1 		"/>
		<polygon class="st10" points="287,335.6 289.6,340.2 284.4,340.2 		"/>
		<polygon class="st10" points="264.6,302.8 267.2,307.4 262,307.4 		"/>
		<polygon class="st10" points="239.9,291.1 242.5,295.6 237.2,295.6 		"/>
		<polygon class="st10" points="291,314.9 293.6,319.5 288.4,319.5 		"/>
		<polygon class="st10" points="240.5,314.9 243.1,319.5 237.9,319.5 		"/>
		<polygon class="st10" points="373.9,330.6 376.5,335.2 371.2,335.2 		"/>
		<polygon class="st10" points="256.6,267.6 259.2,272.2 254,272.2 		"/>
		<polygon class="st10" points="274.8,303.3 277.4,307.9 272.1,307.9 		"/>
		<polygon class="st10" points="301.9,314.5 304.5,319.1 299.2,319.1 		"/>
		<polygon class="st10" points="292.8,328.7 295.4,333.3 290.2,333.3 		"/>
		<polygon class="st10" points="252.2,313.1 254.8,317.7 249.6,317.7 		"/>
		<polygon class="st11" points="440.9,398.4 444.8,398.4 444.8,394.5 440.9,394.5 		"/>
		<polygon class="st11" points="445.4,395.7 449.3,395.7 449.3,391.8 445.4,391.8 		"/>
		<polygon class="st11" points="504.3,377.3 508.2,377.3 508.2,373.4 504.3,373.4 		"/>
		<polygon class="st11" points="486.9,421 490.8,421 490.8,417.1 486.9,417.1 		"/>
		<polygon class="st11" points="466.7,396.1 470.6,396.1 470.6,392.2 466.7,392.2 		"/>
		<polygon class="st11" points="499.2,384.3 503.1,384.3 503.1,380.4 499.2,380.4 		"/>
		<polygon class="st11" points="474.3,401.4 478.2,401.4 478.2,397.5 474.3,397.5 		"/>
		<polygon class="st11" points="498.3,382.5 502.2,382.5 502.2,378.6 498.3,378.6 		"/>
		<polygon class="st11" points="495.2,399.9 499.1,399.9 499.1,395.9 495.2,395.9 		"/>
		<polygon class="st11" points="490,391.6 493.9,391.6 493.9,387.7 490,387.7 		"/>
		<circle class="st12" cx="463.9" cy="167.1" r="2"/>
		<circle class="st12" cx="487.5" cy="208.5" r="2"/>
		<circle class="st12" cx="448.9" cy="101.1" r="2"/>
		<circle class="st12" cx="415.8" cy="229.4" r="2"/>
		<circle class="st12" cx="454.8" cy="109.6" r="2"/>
		<circle class="st12" cx="442.6" cy="101.7" r="2"/>
		<circle class="st12" cx="430.2" cy="144.6" r="2"/>
		<circle class="st12" cx="468.9" cy="223.7" r="2"/>
		<circle class="st12" cx="468.6" cy="188" r="2"/>
		<circle class="st12" cx="449.9" cy="89.5" r="2"/>
		<circle class="st12" cx="473.4" cy="183.2" r="2"/>
		<circle class="st12" cx="444.7" cy="126.8" r="2"/>
		<circle class="st12" cx="457" cy="95.5" r="2"/>
		<circle class="st12" cx="442.4" cy="100.7" r="2"/>
		<circle class="st12" cx="439.7" cy="143.2" r="2"/>
		<circle class="st12" cx="425.9" cy="175.8" r="2"/>
		<line class="st13" x1="178.2" y1="309" x2="622.9" y2="309"/>
		<line class="st13" x1="444.9" y1="439.1" x2="444.9" y2="6"/>
	</g>
</g>
<g>
	<defs>
		<rect id="SVGID_9_" width="833" height="491"/>
	</defs>
	<clipPath id="SVGID_10_">
		<use xlink:href="#SVGID_9_"  style="overflow:visible;"/>
	</clipPath>
	<g class="st14">
		<line class="st7" x1="178.2" y1="439.1" x2="178.2" y2="6"/>
		<rect x="152.1" y="404.3" class="st15" width="20.7" height="14.2"/>
		<text transform="matrix(1 0 0 1 152.1421 414.5801)" class="st8 st16">-0.5</text>
		<text transform="matrix(1 0 0 1 156.1384 313.35)" class="st8 st16">0.0</text>
		<text transform="matrix(1 0 0 1 156.1384 212.11)" class="st8 st16">0.5</text>
		<text transform="matrix(1 0 0 1 156.1384 110.88)" class="st8 st16">1.0</text>
		<line class="st17" x1="175.2" y1="410.3" x2="178.2" y2="410.3"/>
		<line class="st17" x1="175.2" y1="309" x2="178.2" y2="309"/>
		<line class="st17" x1="175.2" y1="207.8" x2="178.2" y2="207.8"/>
		<line class="st17" x1="175.2" y1="106.6" x2="178.2" y2="106.6"/>
		<line class="st7" x1="178.2" y1="439.1" x2="622.9" y2="439.1"/>
		<line class="st17" x1="191.8" y1="442.1" x2="191.8" y2="439.1"/>
		<line class="st17" x1="276.1" y1="442.1" x2="276.1" y2="439.1"/>
		<line class="st17" x1="360.5" y1="442.1" x2="360.5" y2="439.1"/>
		<line class="st17" x1="444.9" y1="442.1" x2="444.9" y2="439.1"/>
		<line class="st17" x1="529.2" y1="442.1" x2="529.2" y2="439.1"/>
		<line class="st17" x1="613.6" y1="442.1" x2="613.6" y2="439.1"/>
		<rect x="181.4" y="442.8" class="st15" width="20.7" height="14.2"/>
		<text transform="matrix(1 0 0 1 181.4312 453.1201)" class="st8 st16">-1.5</text>
		<rect x="265.8" y="442.8" class="st15" width="20.7" height="14.2"/>
		<text transform="matrix(1 0 0 1 265.791 453.1201)" class="st8 st16">-1.0</text>
		<rect x="350.2" y="442.8" class="st15" width="20.7" height="14.2"/>
		<text transform="matrix(1 0 0 1 350.1514 453.1201)" class="st8 st16">-0.5</text>
		<text transform="matrix(1 0 0 1 436.5092 453.12)" class="st8 st16">0.0</text>
		<text transform="matrix(1 0 0 1 520.8692 453.12)" class="st8 st16">0.5</text>
		<text transform="matrix(1 0 0 1 605.2292 453.12)" class="st8 st16">1.0</text>
		<rect x="361.9" y="457.1" class="st15" width="77.4" height="14.2"/>
		<text transform="matrix(1 0 0 1 361.8594 467.3799)" class="st8 st16">CCA1 (12.8%)</text>
		<rect x="136.1" y="184.3" class="st15" width="14.4" height="76.5"/>
		<text transform="matrix(6.123234e-17 -1 1 6.123234e-17 146.3691 260.7949)" class="st18"><tspan x="0" y="0" class="st8 st16 st19">CCA</tspan><tspan x="69.8" y="0" class="st8 st16">2 </tspan></text>
		<rect x="634.8" y="182" class="st0" width="60.3" height="81"/>
		<rect x="640.8" y="187.7" class="st15" width="45.4" height="14.2"/>
		<text transform="matrix(1 0 0 1 640.8203 197.9502)" class="st8 st16">Location</text>
		<rect x="641.5" y="206" class="st20" width="15.9" height="15.9"/>
		<polygon class="st11" points="647.5,215.9 651.4,215.9 651.4,211.9 647.5,211.9 		"/>
		<rect x="641.5" y="223.2" class="st21" width="15.9" height="15.9"/>
		<polygon class="st10" points="649.5,228.1 652.1,232.7 646.8,232.7 		"/>
		<rect x="641.5" y="240.5" class="st22" width="15.9" height="15.9"/>
		<circle class="st12" cx="649.5" cy="248.5" r="2"/>
		<rect x="664.1" y="209.1" class="st15" width="19.7" height="11.4"/>
		<text transform="matrix(1 0 0 1 664.0801 217.3398)" class="st18"><tspan x="0" y="0" class="st8 st23 st24">H</tspan><tspan x="13.3" y="0" class="st8 st23">S</tspan></text>
		<text transform="matrix(1 0 0 1 664.08 234.62)" class="st8 st23">KTR</text>
		<rect x="664.1" y="243.7" class="st15" width="25.1" height="11.4"/>
		<text transform="matrix(1 0 0 1 664.0801 251.8999)" class="st18"><tspan x="0" y="0" class="st8 st23 st25">KT</tspan><tspan x="18.7" y="0" class="st8 st23">Y</tspan></text>
		<rect x="495.3" y="474.7" class="st15" width="128.2" height="11.4"/>
		<text transform="matrix(1 0 0 1 495.2773 482.9004)" class="st18"><tspan x="0" y="0" class="st8 st23 st26">PERMANOVA(Loca</tspan><tspan x="125" y="0" class="st8 st23">-</tspan></text>
	</g>
</g>
</svg>
