<?xml version="1.0" encoding="utf-8"?>
<!-- Generator: Adobe Illustrator 25.1.0, SVG Export Plug-In . SVG Version: 6.00 Build 0)  -->
<svg version="1.1" id="Layer_1" xmlns="http://www.w3.org/2000/svg" xmlns:xlink="http://www.w3.org/1999/xlink" x="0px" y="0px"
	 viewBox="0 0 492 493" style="enable-background:new 0 0 492 493;" xml:space="preserve">
<style type="text/css">
	.st0{fill:#FFFFFF;}
	.st1{clip-path:url(#SVGID_4_);}
	.st2{fill:#FFFFFF;stroke:#FFFFFF;stroke-width:1.16;stroke-linecap:round;stroke-linejoin:round;stroke-miterlimit:10;}
	.st3{clip-path:url(#SVGID_8_);}
	
		.st4{fill:#89C0DB;fill-opacity:0.2;stroke:#89C0DB;stroke-width:1.07;stroke-linecap:round;stroke-linejoin:round;stroke-miterlimit:10;}
	
		.st5{fill:#593F28;fill-opacity:0.2;stroke:#593F28;stroke-width:1.07;stroke-linecap:round;stroke-linejoin:round;stroke-miterlimit:10;stroke-dasharray:2.85,2.85;}
	
		.st6{fill:#739D6E;fill-opacity:0.2;stroke:#739D6E;stroke-width:1.07;stroke-linecap:round;stroke-linejoin:round;stroke-miterlimit:10;stroke-dasharray:5.69,2.85;}
	.st7{fill:none;stroke:#000000;stroke-width:1.07;stroke-linejoin:round;stroke-miterlimit:10;}
	.st8{font-family:'ArialMT';}
	.st9{font-size:11.04px;}
	.st10{fill:#593F28;}
	.st11{fill:#89C0DB;}
	.st12{fill:#739D6E;stroke:#739D6E;stroke-width:0.71;stroke-linecap:round;stroke-linejoin:round;stroke-miterlimit:10;}
	.st13{fill:none;stroke:#000000;stroke-width:1.71;stroke-linejoin:round;stroke-miterlimit:10;stroke-dasharray:9.1,9.1;}
	.st14{clip-path:url(#SVGID_10_);}
	.st15{fill:none;}
	.st16{font-size:12px;}
	.st17{fill:none;stroke:#333333;stroke-width:1.16;stroke-linejoin:round;stroke-miterlimit:10;}
	.st18{enable-background:new    ;}
	.st19{letter-spacing:14;}
	.st20{fill:#89C0DB;fill-opacity:0.2;stroke:#89C0DB;stroke-width:1.07;stroke-linecap:square;stroke-miterlimit:10;}
	
		.st21{fill:#593F28;fill-opacity:0.2;stroke:#593F28;stroke-width:1.07;stroke-linecap:square;stroke-miterlimit:10;stroke-dasharray:2.85,2.85;}
	
		.st22{fill:#739D6E;fill-opacity:0.2;stroke:#739D6E;stroke-width:1.07;stroke-linecap:square;stroke-miterlimit:10;stroke-dasharray:5.69,2.85;}
	.st23{font-size:9.6px;}
	.st24{letter-spacing:6;}
	.st25{letter-spacing:3;}
</style>
<rect class="st0" width="492" height="493"/>
<g>
	<defs>
		<rect id="SVGID_1_" width="492" height="493"/>
	</defs>
	<clipPath id="SVGID_2_">
		<use xlink:href="#SVGID_1_"  style="overflow:visible;"/>
	</clipPath>
</g>
<g>
	<defs>
		<rect id="SVGID_3_" y="38.6" width="492" height="415.8"/>
	</defs>
	<clipPath id="SVGID_4_">
		<use xlink:href="#SVGID_3_"  style="overflow:visible;"/>
	</clipPath>
	<g class="st1">
		<rect y="38.6" class="st2" width="492" height="415.8"/>
	</g>
</g>
<g>
	<defs>
		<rect id="SVGID_5_" width="492" height="493"/>
	</defs>
	<clipPath id="SVGID_6_">
		<use xlink:href="#SVGID_5_"  style="overflow:visible;"/>
	</clipPath>
</g>
<g>
	<defs>
		<rect id="SVGID_7_" x="46.3" y="44.6" width="367.5" height="358"/>
	</defs>
	<clipPath id="SVGID_8_">
		<use xlink:href="#SVGID_7_"  style="overflow:visible;"/>
	</clipPath>
	<g class="st3">
		<rect x="46.3" y="44.6" class="st0" width="367.5" height="358"/>
		<polygon class="st4" points="347.3,352 346.9,349.5 345.8,347.3 344,345.3 341.5,343.5 338.3,342.1 334.5,341 330.2,340.2 
			325.5,339.8 320.2,339.6 314.7,339.9 309,340.5 303,341.5 297,342.8 291,344.3 285.2,346.2 279.5,348.3 274.1,350.7 269.1,353.2 
			264.6,355.9 260.5,358.7 257.1,361.5 254.2,364.4 252.1,367.2 250.6,370 249.9,372.7 249.9,375.2 250.6,377.6 252.1,379.7 
			254.2,381.6 257.1,383.1 260.5,384.4 264.6,385.4 269.1,386 274.1,386.3 279.5,386.2 285.2,385.7 291,385 297,383.8 303,382.4 
			309,380.7 314.7,378.7 320.2,376.5 325.5,374 330.2,371.4 334.5,368.7 338.3,365.8 341.5,363 344,360.1 345.8,357.3 346.9,354.6 
					"/>
		<polygon class="st5" points="196.6,325.4 196.1,321.4 194.6,317.2 192.1,312.7 188.7,308.1 184.3,303.3 179.2,298.6 173.2,293.8 
			166.7,289.2 159.6,284.8 152,280.6 144.1,276.8 135.9,273.3 127.7,270.2 119.5,267.6 111.4,265.6 103.7,264.1 96.3,263.1 
			89.4,262.7 83.2,263 77.6,263.8 72.9,265.1 69,267 66,269.5 64,272.4 63,275.8 63,279.6 64,283.6 66,288 69,292.6 72.9,297.3 
			77.6,302.1 83.2,306.8 89.4,311.5 96.3,316 103.7,320.3 111.4,324.4 119.5,328 127.7,331.3 135.9,334.1 144.1,336.5 152,338.3 
			159.6,339.5 166.7,340.2 173.2,340.2 179.2,339.7 184.3,338.6 188.7,337 192.1,334.8 194.6,332.1 196.1,329 		"/>
		<polygon class="st6" points="306.6,188.8 306.4,177.6 305.6,166.2 304.3,154.5 302.5,142.9 300.3,131.5 297.6,120.4 294.5,109.8 
			291.1,100 287.5,91 283.5,83 279.5,76 275.2,70.3 271,65.8 266.7,62.8 262.6,61.1 258.6,60.8 254.8,62 251.2,64.6 248,68.6 
			245.1,73.9 242.6,80.4 240.6,88.1 239.1,96.8 238.1,106.4 237.5,116.7 237.5,127.6 238.1,138.9 239.1,150.5 240.6,162.2 
			242.6,173.7 245.1,185 248,195.8 251.2,206 254.8,215.5 258.6,224 262.6,231.5 266.7,237.9 271,243 275.2,246.7 279.5,249.1 
			283.5,250.1 287.5,249.6 291.1,247.7 294.5,244.4 297.6,239.8 300.3,233.9 302.5,226.7 304.3,218.5 305.6,209.4 306.4,199.4 		"/>
		<line class="st7" x1="266.7" y1="295" x2="380.1" y2="266"/>
		<polyline class="st7" points="377.5,268.5 380.1,266 376.6,265 		"/>
		<line class="st7" x1="266.7" y1="295" x2="160.1" y2="348.5"/>
		<polyline class="st7" points="162.1,345.5 160.1,348.5 163.7,348.7 		"/>
		<line class="st7" x1="266.7" y1="295" x2="151.7" y2="312.3"/>
		<polyline class="st7" points="154.5,310.1 151.7,312.3 155,313.6 		"/>
		<line class="st7" x1="266.7" y1="295" x2="151.2" y2="313.1"/>
		<polyline class="st7" points="154,310.9 151.2,313.1 154.6,314.4 		"/>
		<line class="st7" x1="266.7" y1="295" x2="151.8" y2="326.7"/>
		<polyline class="st7" points="154.3,324.1 151.8,326.7 155.2,327.6 		"/>
		<text transform="matrix(1 0 0 1 383.1983 268.62)" class="st8 st9">Sand</text>
		<text transform="matrix(1 0 0 1 137.0673 353.51)" class="st8 st9">Clay</text>
		<text transform="matrix(1 0 0 1 132.7618 312.84)" class="st8 st9">Silt</text>
		<text transform="matrix(1 0 0 1 143.9236 320.8)" class="st8 st9">C</text>
		<text transform="matrix(1 0 0 1 142.5536 332.41)" class="st8 st9">N</text>
		<polygon class="st10" points="157.7,319.7 160.4,324.2 155.1,324.2 		"/>
		<polygon class="st10" points="136.2,316.5 138.8,321 133.6,321 		"/>
		<polygon class="st10" points="117.7,289.3 120.3,293.9 115.1,293.9 		"/>
		<polygon class="st10" points="97.3,279.6 99.9,284.2 94.6,284.2 		"/>
		<polygon class="st10" points="139.5,299.4 142.1,303.9 136.9,303.9 		"/>
		<polygon class="st10" points="97.8,299.3 100.4,303.9 95.2,303.9 		"/>
		<polygon class="st10" points="208,312.3 210.6,316.9 205.4,316.9 		"/>
		<polygon class="st10" points="111.1,260.3 113.7,264.9 108.5,264.9 		"/>
		<polygon class="st10" points="126.1,289.8 128.7,294.3 123.5,294.3 		"/>
		<polygon class="st10" points="148.5,299 151.1,303.6 145.9,303.6 		"/>
		<polygon class="st10" points="141,310.8 143.6,315.3 138.4,315.3 		"/>
		<polygon class="st10" points="107.4,297.9 110.1,302.4 104.8,302.4 		"/>
		<polygon class="st11" points="263,369.2 266.9,369.2 266.9,365.3 263,365.3 		"/>
		<polygon class="st11" points="266.8,367 270.7,367 270.7,363.1 266.8,363.1 		"/>
		<polygon class="st11" points="315.5,351.8 319.4,351.8 319.4,347.9 315.5,347.9 		"/>
		<polygon class="st11" points="301.1,387.9 305,387.9 305,384 301.1,384 		"/>
		<polygon class="st11" points="284.4,367.3 288.3,367.3 288.3,363.4 284.4,363.4 		"/>
		<polygon class="st11" points="311.3,357.5 315.2,357.5 315.2,353.6 311.3,353.6 		"/>
		<polygon class="st11" points="290.7,371.7 294.6,371.7 294.6,367.8 290.7,367.8 		"/>
		<polygon class="st11" points="310.5,356.1 314.4,356.1 314.4,352.2 310.5,352.2 		"/>
		<polygon class="st11" points="307.9,370.4 311.8,370.4 311.8,366.5 307.9,366.5 		"/>
		<polygon class="st11" points="303.6,363.6 307.5,363.6 307.5,359.7 303.6,359.7 		"/>
		<circle class="st12" cx="282.4" cy="177.8" r="2"/>
		<circle class="st12" cx="301.9" cy="211.9" r="2"/>
		<circle class="st12" cx="270" cy="123.2" r="2"/>
		<circle class="st12" cx="242.6" cy="229.2" r="1.9"/>
		<circle class="st12" cx="274.9" cy="130.2" r="2"/>
		<circle class="st12" cx="264.8" cy="123.7" r="2"/>
		<ellipse transform="matrix(0.1602 -0.9871 0.9871 0.1602 56.6891 384.93)" class="st12" cx="254.6" cy="159.1" rx="1.9" ry="2"/>
		<circle class="st12" cx="286.5" cy="224.5" r="2"/>
		<circle class="st12" cx="286.3" cy="195" r="2"/>
		<circle class="st12" cx="270.9" cy="113.6" r="2"/>
		<circle class="st12" cx="290.2" cy="191" r="2"/>
		<circle class="st12" cx="266.5" cy="144.4" r="2"/>
		<circle class="st12" cx="276.7" cy="118.6" r="2"/>
		<circle class="st12" cx="264.6" cy="122.9" r="2"/>
		<circle class="st12" cx="262.4" cy="158" r="2"/>
		<circle class="st12" cx="251" cy="184.9" r="1.9"/>
		<line class="st13" x1="0" y1="295" x2="492" y2="295"/>
		<line class="st13" x1="266.7" y1="402.5" x2="266.7" y2="44.6"/>
	</g>
</g>
<g>
	<defs>
		<rect id="SVGID_9_" width="492" height="493"/>
	</defs>
	<clipPath id="SVGID_10_">
		<use xlink:href="#SVGID_9_"  style="overflow:visible;"/>
	</clipPath>
	<g class="st14">
		<line class="st7" x1="46.3" y1="402.5" x2="46.3" y2="44.6"/>
		<rect x="20.2" y="372.7" class="st15" width="20.7" height="14.2"/>
		<text transform="matrix(1 0 0 1 20.2324 382.9902)" class="st8 st16">-0.5</text>
		<text transform="matrix(1 0 0 1 24.2284 299.33)" class="st8 st16">0.0</text>
		<text transform="matrix(1 0 0 1 24.2284 215.67)" class="st8 st16">0.5</text>
		<text transform="matrix(1 0 0 1 24.2284 132.02)" class="st8 st16">1.0</text>
		<line class="st17" x1="43.3" y1="378.7" x2="46.3" y2="378.7"/>
		<line class="st17" x1="43.3" y1="295" x2="46.3" y2="295"/>
		<line class="st17" x1="43.3" y1="211.4" x2="46.3" y2="211.4"/>
		<line class="st17" x1="43.3" y1="127.7" x2="46.3" y2="127.7"/>
		<line class="st7" x1="46.3" y1="402.5" x2="413.8" y2="402.5"/>
		<line class="st17" x1="57.5" y1="405.5" x2="57.5" y2="402.5"/>
		<line class="st17" x1="127.2" y1="405.5" x2="127.2" y2="402.5"/>
		<line class="st17" x1="196.9" y1="405.5" x2="196.9" y2="402.5"/>
		<line class="st17" x1="266.7" y1="405.5" x2="266.7" y2="402.5"/>
		<line class="st17" x1="336.4" y1="405.5" x2="336.4" y2="402.5"/>
		<line class="st17" x1="406.1" y1="405.5" x2="406.1" y2="402.5"/>
		<rect x="47.2" y="406.2" class="st15" width="20.7" height="14.2"/>
		<text transform="matrix(1 0 0 1 47.1709 416.5303)" class="st8 st16">-1.5</text>
		<rect x="116.9" y="406.2" class="st15" width="20.7" height="14.2"/>
		<text transform="matrix(1 0 0 1 116.8911 416.5303)" class="st8 st16">-1.0</text>
		<rect x="186.6" y="406.2" class="st15" width="20.7" height="14.2"/>
		<text transform="matrix(1 0 0 1 186.6011 416.5303)" class="st8 st16">-0.5</text>
		<text transform="matrix(1 0 0 1 258.3192 416.53)" class="st8 st16">0.0</text>
		<text transform="matrix(1 0 0 1 328.0292 416.53)" class="st8 st16">0.5</text>
		<text transform="matrix(1 0 0 1 397.7492 416.53)" class="st8 st16">1.0</text>
		<rect x="191.4" y="420.5" class="st15" width="77.4" height="14.2"/>
		<text transform="matrix(1 0 0 1 191.3594 430.79)" class="st8 st16">CCA1 (12.8%)</text>
		<rect x="4.2" y="185.3" class="st15" width="14.4" height="76.5"/>
		<text transform="matrix(6.123234e-17 -1 1 6.123234e-17 14.4688 261.7949)" class="st18"><tspan x="0" y="0" class="st8 st16 st19">CCA</tspan><tspan x="69.8" y="0" class="st8 st16">2 </tspan></text>
		<rect x="425.8" y="183" class="st0" width="60.3" height="81"/>
		<rect x="431.7" y="188.7" class="st15" width="45.4" height="14.2"/>
		<text transform="matrix(1 0 0 1 431.7197 198.9502)" class="st8 st16">Location</text>
		<rect x="432.4" y="207" class="st20" width="15.9" height="15.9"/>
		<polygon class="st11" points="438.4,216.9 442.3,216.9 442.3,212.9 438.4,212.9 		"/>
		<rect x="432.4" y="224.2" class="st21" width="15.9" height="15.9"/>
		<polygon class="st10" points="440.4,229.1 443,233.7 437.7,233.7 		"/>
		<rect x="432.4" y="241.5" class="st22" width="15.9" height="15.9"/>
		<circle class="st12" cx="440.4" cy="249.5" r="2"/>
		<rect x="455" y="210.1" class="st15" width="19.7" height="11.4"/>
		<text transform="matrix(1 0 0 1 454.9805 218.3398)" class="st18"><tspan x="0" y="0" class="st8 st23 st24">H</tspan><tspan x="13.3" y="0" class="st8 st23">S</tspan></text>
		<text transform="matrix(1 0 0 1 454.98 235.62)" class="st8 st23">KTR</text>
		<rect x="455" y="244.7" class="st15" width="25.1" height="11.4"/>
		<text transform="matrix(1 0 0 1 454.9805 252.8999)" class="st18"><tspan x="0" y="0" class="st8 st23 st25">KT</tspan><tspan x="18.7" y="0" class="st8 st23">Y</tspan></text>
		<rect x="313.9" y="438.1" class="st15" width="100.5" height="11.4"/>
		<text transform="matrix(1 0 0 1 313.8984 446.2998)" class="st18"><tspan x="0" y="0" class="st8 st23 st25">ANOVA(Loca</tspan><tspan x="97.3" y="0" class="st8 st23">-</tspan></text>
	</g>
</g>
</svg>
