<?xml version="1.0" encoding="utf-8"?>
<!-- Generator: Adobe Illustrator 25.1.0, SVG Export Plug-In . SVG Version: 6.00 Build 0)  -->
<svg version="1.1" id="Layer_1" xmlns="http://www.w3.org/2000/svg" xmlns:xlink="http://www.w3.org/1999/xlink" x="0px" y="0px"
	 viewBox="0 0 720 720" style="enable-background:new 0 0 720 720;" xml:space="preserve">
<style type="text/css">
	.st0{fill:#FFFFFF;}
	.st1{clip-path:url(#SVGID_4_);}
	.st2{fill:#FFFFFF;stroke:#FFFFFF;stroke-width:1.16;stroke-linecap:round;stroke-linejoin:round;stroke-miterlimit:10;}
	.st3{clip-path:url(#SVGID_8_);}
	.st4{fill:#6D93A4;}
	.st5{font-family:'Arial-ItalicMT';}
	.st6{font-size:14.23px;}
	.st7{fill:none;}
	.st8{enable-background:new    ;}
	.st9{fill:#799227;}
	.st10{letter-spacing:5;}
	.st11{fill:#5E3023;}
	.st12{fill:#AA8B6F;}
	.st13{fill:#D3C29D;}
	.st14{fill:#89C0DB;}
	.st15{fill:#B3C5AB;}
	.st16{fill:#3E5524;}
	.st17{fill:#6D93A4;stroke:#6D93A4;stroke-width:0.71;stroke-linecap:round;stroke-linejoin:round;stroke-miterlimit:10;}
	.st18{fill:#799227;stroke:#799227;stroke-width:0.71;stroke-linecap:round;stroke-linejoin:round;stroke-miterlimit:10;}
	.st19{fill:#5E3023;stroke:#5E3023;stroke-width:0.71;stroke-linecap:round;stroke-linejoin:round;stroke-miterlimit:10;}
	.st20{fill:#AA8B6F;stroke:#AA8B6F;stroke-width:0.71;stroke-linecap:round;stroke-linejoin:round;stroke-miterlimit:10;}
	.st21{fill:#EDD9AF;stroke:#EDD9AF;stroke-width:0.71;stroke-linecap:round;stroke-linejoin:round;stroke-miterlimit:10;}
	.st22{fill:#89C0DB;stroke:#89C0DB;stroke-width:0.71;stroke-linecap:round;stroke-linejoin:round;stroke-miterlimit:10;}
	.st23{fill:#B3C5AB;stroke:#B3C5AB;stroke-width:0.71;stroke-linecap:round;stroke-linejoin:round;stroke-miterlimit:10;}
	.st24{fill:#3E5524;stroke:#3E5524;stroke-width:0.71;stroke-linecap:round;stroke-linejoin:round;stroke-miterlimit:10;}
	.st25{fill:none;stroke:#000000;stroke-width:1.07;stroke-linejoin:round;stroke-miterlimit:10;}
	.st26{font-family:'ArialMT';}
	.st27{font-size:11.04px;}
	.st28{fill:none;stroke:#000000;stroke-width:1.71;stroke-linejoin:round;stroke-miterlimit:10;stroke-dasharray:9.1,9.1;}
	.st29{clip-path:url(#SVGID_10_);}
	.st30{font-size:12px;}
	.st31{fill:none;stroke:#333333;stroke-width:1.16;stroke-linejoin:round;stroke-miterlimit:10;}
	.st32{font-size:9.6px;}
	.st33{letter-spacing:4;}
</style>
<rect class="st0" width="720" height="720"/>
<g>
	<defs>
		<rect id="SVGID_1_" width="720" height="720"/>
	</defs>
	<clipPath id="SVGID_2_">
		<use xlink:href="#SVGID_1_"  style="overflow:visible;"/>
	</clipPath>
</g>
<g>
	<defs>
		<rect id="SVGID_3_" y="79.2" width="720" height="561.7"/>
	</defs>
	<clipPath id="SVGID_4_">
		<use xlink:href="#SVGID_3_"  style="overflow:visible;"/>
	</clipPath>
	<g class="st1">
		<rect y="79.2" class="st2" width="720" height="561.7"/>
	</g>
</g>
<g>
	<defs>
		<rect id="SVGID_5_" width="720" height="720"/>
	</defs>
	<clipPath id="SVGID_6_">
		<use xlink:href="#SVGID_5_"  style="overflow:visible;"/>
	</clipPath>
</g>
<g>
	<defs>
		<rect id="SVGID_7_" x="46.3" y="85.1" width="551.8" height="503.8"/>
	</defs>
	<clipPath id="SVGID_8_">
		<use xlink:href="#SVGID_7_"  style="overflow:visible;"/>
	</clipPath>
	<g class="st3">
		<rect x="46.3" y="85.1" class="st0" width="551.8" height="503.8"/>
		<text transform="matrix(1 0 0 1 477.4246 328.22)" class="st4 st5 st6">Pseudarthrobacter</text>
		<rect x="532.3" y="285.2" class="st7" width="62.4" height="16.8"/>
		<text transform="matrix(1 0 0 1 532.2646 297.4199)" class="st8"><tspan x="0" y="0" class="st9 st5 st6">Vogesel</tspan><tspan x="57.7" y="0" class="st9 st5 st6">-</tspan></text>
		<text transform="matrix(1 0 0 1 480.6153 463.04)" class="st9 st5 st6">Novosphingobium</text>
		<text transform="matrix(1 0 0 1 433.8833 294.31)" class="st9 st5 st6">Pseudomonas</text>
		<text transform="matrix(1 0 0 1 510.2078 439.47)" class="st9 st5 st6">Polaromonas</text>
		<rect x="509.6" y="386.1" class="st7" width="85.3" height="16.8"/>
		<text transform="matrix(1 0 0 1 509.584 398.3105)" class="st8"><tspan x="0" y="0" class="st9 st5 st6 st10">Tropici</tspan><tspan x="80.6" y="0" class="st9 st5 st6">-</tspan></text>
		<text transform="matrix(1 0 0 1 422.5802 421.99)" class="st9 st5 st6">Bradyrhizobium</text>
		<text transform="matrix(1 0 0 1 364.6125 223.38)" class="st4 st5 st6">Gaiella</text>
		<text transform="matrix(1 0 0 1 489.3823 260.15)" class="st11 st5 st6">Flavobacterium</text>
		<text transform="matrix(1 0 0 1 123.6057 354.7)" class="st9 st5 st6">Nitrosomonadaceae MND1</text>
		<text transform="matrix(1 0 0 1 49.8602 381.19)" class="st9 st5 st6">Nitrosomonadaceae IS-44</text>
		<text transform="matrix(1 0 0 1 181.9563 308.72)" class="st12 st5 st6">Nitrospira</text>
		<text transform="matrix(1 0 0 1 72.9193 472.42)" class="st13 st5 st6">Candidatus Nitrososphaera</text>
		<text transform="matrix(1 0 0 1 366.7531 103.07)" class="st9 st5 st6">Nitrosomonadaceae Ellin6067</text>
		<text transform="matrix(1 0 0 1 231.8975 404.41)" class="st14 st5 st6">Pyrinomonadaceae RB41</text>
		<text transform="matrix(1 0 0 1 432.8733 355.85)" class="st15 st5 st6">Anaeromyxobacter</text>
		<text transform="matrix(1 0 0 1 482.6369 367.93)" class="st9 st5 st6">Sphingobium</text>
		<text transform="matrix(1 0 0 1 346.3331 192.5)" class="st9 st5 st6">Sphingomonas</text>
		<text transform="matrix(1 0 0 1 86.8077 367.33)" class="st16 st5 st6">Anaerolineaceae UTCFX1</text>
		<text transform="matrix(1 0 0 1 87.6576 453.27)" class="st15 st5 st6">Haliangium</text>
		<circle class="st17" cx="557.1" cy="313.3" r="2"/>
		<circle class="st18" cx="548.5" cy="302.2" r="2"/>
		<circle class="st18" cx="570.5" cy="448.2" r="2"/>
		<circle class="st18" cx="527.2" cy="299" r="2"/>
		<circle class="st18" cx="562.9" cy="444.2" r="2"/>
		<circle class="st18" cx="573" cy="403" r="2"/>
		<circle class="st18" cx="526.2" cy="410.2" r="2"/>
		<circle class="st17" cx="376" cy="228" r="2"/>
		<circle class="st19" cx="548.9" cy="265" r="2"/>
		<circle class="st18" cx="198.5" cy="342.4" r="2"/>
		<circle class="st18" cx="71.4" cy="366.3" r="2"/>
		<circle class="st20" cx="201.7" cy="313.4" r="2"/>
		<circle class="st21" cx="148.3" cy="477.1" r="2"/>
		<circle class="st18" cx="450.7" cy="108" r="2"/>
		<circle class="st22" cx="302.2" cy="409.1" r="2"/>
		<circle class="st23" cx="549" cy="343.7" r="2"/>
		<circle class="st18" cx="570.3" cy="362.9" r="2"/>
		<circle class="st18" cx="382.9" cy="197.3" r="2"/>
		<circle class="st24" cx="91.6" cy="353.7" r="2"/>
		<circle class="st23" cx="82.9" cy="443.1" r="2"/>
		<line class="st25" x1="441.3" y1="342.5" x2="284.9" y2="358"/>
		<polyline class="st25" points="289,355.1 284.9,358 289.5,360.1 		"/>
		<line class="st25" x1="441.3" y1="342.5" x2="163.9" y2="328"/>
		<polyline class="st25" points="168.4,325.7 163.9,328 168.1,330.7 		"/>
		<line class="st25" x1="441.3" y1="342.5" x2="221.5" y2="555.4"/>
		<polyline class="st25" points="222.9,550.6 221.5,555.4 226.4,554.2 		"/>
		<line class="st25" x1="441.3" y1="342.5" x2="301.3" y2="434.4"/>
		<polyline class="st25" points="303.5,429.9 301.3,434.4 306.3,434.1 		"/>
		<text transform="matrix(1 0 0 1 261.7137 362.79)" class="st26 st27">DOC</text>
		<text transform="matrix(1 0 0 1 133.09 331.23)" class="st26 st27">NO3</text>
		<text transform="matrix(1 0 0 1 198.4618 570.03)" class="st26 st27">Mn</text>
		<text transform="matrix(1 0 0 1 285.0382 442.99)" class="st26 st27">Fe</text>
		<line class="st28" x1="0" y1="342.5" x2="720" y2="342.5"/>
		<line class="st28" x1="441.3" y1="589" x2="441.3" y2="85.1"/>
	</g>
</g>
<g>
	<defs>
		<rect id="SVGID_9_" width="720" height="720"/>
	</defs>
	<clipPath id="SVGID_10_">
		<use xlink:href="#SVGID_9_"  style="overflow:visible;"/>
	</clipPath>
	<g class="st29">
		<line class="st25" x1="46.3" y1="589" x2="46.3" y2="85.1"/>
		<rect x="20.2" y="566.8" class="st7" width="20.7" height="14.2"/>
		<text transform="matrix(1 0 0 1 20.2324 577.0596)" class="st26 st30">-0.6</text>
		<rect x="20.2" y="451.6" class="st7" width="20.7" height="14.2"/>
		<text transform="matrix(1 0 0 1 20.2324 461.9102)" class="st26 st30">-0.3</text>
		<text transform="matrix(1 0 0 1 24.2284 346.76)" class="st26 st30">0.0</text>
		<text transform="matrix(1 0 0 1 24.2284 231.61)" class="st26 st30">0.3</text>
		<text transform="matrix(1 0 0 1 24.2284 116.46)" class="st26 st30">0.6</text>
		<line class="st31" x1="43.3" y1="572.8" x2="46.3" y2="572.8"/>
		<line class="st31" x1="43.3" y1="457.6" x2="46.3" y2="457.6"/>
		<line class="st31" x1="43.3" y1="342.5" x2="46.3" y2="342.5"/>
		<line class="st31" x1="43.3" y1="227.3" x2="46.3" y2="227.3"/>
		<line class="st31" x1="43.3" y1="112.2" x2="46.3" y2="112.2"/>
		<line class="st25" x1="46.3" y1="589" x2="598.1" y2="589"/>
		<line class="st31" x1="222" y1="592" x2="222" y2="589"/>
		<line class="st31" x1="441.3" y1="592" x2="441.3" y2="589"/>
		<rect x="216.6" y="592.7" class="st7" width="10.7" height="14.2"/>
		<text transform="matrix(1 0 0 1 216.645 602.9697)" class="st26 st30">-1</text>
		<text transform="matrix(1 0 0 1 437.9831 602.97)" class="st26 st30">0</text>
		<rect x="285.2" y="606.9" class="st7" width="74" height="14.2"/>
		<text transform="matrix(1 0 0 1 285.1665 617.2295)" class="st26 st30">CCA1(43.9%)</text>
		<rect x="4.3" y="308.4" class="st7" width="14.2" height="57.3"/>
		<text transform="matrix(6.123234e-17 -1 1 6.123234e-17 14.5869 365.7324)" class="st26 st30">CCA2(3%)</text>
		<rect x="610" y="253.3" class="st0" width="104" height="167.4"/>
		<text transform="matrix(1 0 0 1 616 269.25)" class="st26 st30">Phylum</text>
		<circle class="st22" cx="624.6" cy="285.2" r="5.7"/>
		<circle class="st17" cx="624.6" cy="302.5" r="5.7"/>
		<circle class="st19" cx="624.6" cy="319.8" r="5.7"/>
		<circle class="st24" cx="624.6" cy="337" r="5.7"/>
		<circle class="st21" cx="624.6" cy="354.3" r="5.7"/>
		<circle class="st23" cx="624.6" cy="371.6" r="5.7"/>
		<circle class="st20" cx="624.6" cy="388.9" r="5.7"/>
		<circle class="st18" cx="624.6" cy="406.2" r="5.7"/>
		<text transform="matrix(1 0 0 1 639.26 288.64)" class="st5 st32">Acidobacteriota</text>
		<text transform="matrix(1 0 0 1 639.26 305.92)" class="st5 st32">Actinobacteriota</text>
		<text transform="matrix(1 0 0 1 639.26 323.2)" class="st5 st32">Bacteroidota</text>
		<text transform="matrix(1 0 0 1 639.26 340.48)" class="st5 st32">Chloroflexi</text>
		<text transform="matrix(1 0 0 1 639.26 357.76)" class="st5 st32">Crenarchaeota</text>
		<text transform="matrix(1 0 0 1 639.26 375.04)" class="st5 st32">Myxococcota</text>
		<text transform="matrix(1 0 0 1 639.26 392.32)" class="st5 st32">Nitrospirota</text>
		<text transform="matrix(1 0 0 1 639.26 409.6)" class="st5 st32">Proteobacteria</text>
		<rect x="503" y="624.5" class="st7" width="95.7" height="11.4"/>
		<text transform="matrix(1 0 0 1 502.9883 632.75)" class="st8"><tspan x="0" y="0" class="st26 st32 st33">ANOVA(mod</tspan><tspan x="92.5" y="0" class="st26 st32">-</tspan></text>
	</g>
</g>
</svg>
